%TF.GenerationSoftware,KiCad,Pcbnew,(5.1.4)-1*%
%TF.CreationDate,2020-03-16T02:32:59+08:00*%
%TF.ProjectId,9p-parallel-fused,39702d70-6172-4616-9c6c-656c2d667573,rev?*%
%TF.SameCoordinates,Original*%
%TF.FileFunction,Copper,L2,Bot*%
%TF.FilePolarity,Positive*%
%FSLAX46Y46*%
G04 Gerber Fmt 4.6, Leading zero omitted, Abs format (unit mm)*
G04 Created by KiCad (PCBNEW (5.1.4)-1) date 2020-03-16 02:32:59*
%MOMM*%
%LPD*%
G04 APERTURE LIST*
%TA.AperFunction,ComponentPad*%
%ADD10O,1.800000X3.600000*%
%TD*%
%TA.AperFunction,Conductor*%
%ADD11C,0.100000*%
%TD*%
%TA.AperFunction,ComponentPad*%
%ADD12C,1.800000*%
%TD*%
%TA.AperFunction,ComponentPad*%
%ADD13O,1.727200X1.727200*%
%TD*%
%TA.AperFunction,ComponentPad*%
%ADD14R,1.727200X1.727200*%
%TD*%
%TA.AperFunction,ComponentPad*%
%ADD15C,3.000000*%
%TD*%
%TA.AperFunction,Conductor*%
%ADD16C,2.500000*%
%TD*%
%TA.AperFunction,Conductor*%
%ADD17C,2.000000*%
%TD*%
%TA.AperFunction,Conductor*%
%ADD18C,1.000000*%
%TD*%
G04 APERTURE END LIST*
D10*
%TO.P,J5,9*%
%TO.N,9*%
X75640000Y-66000000D03*
%TO.P,J5,8*%
%TO.N,8*%
X70560000Y-66000000D03*
%TO.P,J5,7*%
%TO.N,7*%
X65480000Y-66000000D03*
%TO.P,J5,6*%
%TO.N,6*%
X60400000Y-66000000D03*
%TO.P,J5,5*%
%TO.N,5*%
X55320000Y-66000000D03*
%TO.P,J5,4*%
%TO.N,4*%
X50240000Y-66000000D03*
%TO.P,J5,3*%
%TO.N,3*%
X45160000Y-66000000D03*
%TO.P,J5,2*%
%TO.N,2*%
X40080000Y-66000000D03*
D11*
%TD*%
%TO.N,1*%
%TO.C,J5*%
G36*
X35674324Y-64201205D02*
G01*
X35698612Y-64204808D01*
X35722429Y-64210774D01*
X35745547Y-64219045D01*
X35767743Y-64229543D01*
X35788804Y-64242166D01*
X35808525Y-64256793D01*
X35826718Y-64273282D01*
X35843207Y-64291475D01*
X35857834Y-64311196D01*
X35870457Y-64332257D01*
X35880955Y-64354453D01*
X35889226Y-64377571D01*
X35895192Y-64401388D01*
X35898795Y-64425676D01*
X35900000Y-64450200D01*
X35900000Y-67549800D01*
X35898795Y-67574324D01*
X35895192Y-67598612D01*
X35889226Y-67622429D01*
X35880955Y-67645547D01*
X35870457Y-67667743D01*
X35857834Y-67688804D01*
X35843207Y-67708525D01*
X35826718Y-67726718D01*
X35808525Y-67743207D01*
X35788804Y-67757834D01*
X35767743Y-67770457D01*
X35745547Y-67780955D01*
X35722429Y-67789226D01*
X35698612Y-67795192D01*
X35674324Y-67798795D01*
X35649800Y-67800000D01*
X34350200Y-67800000D01*
X34325676Y-67798795D01*
X34301388Y-67795192D01*
X34277571Y-67789226D01*
X34254453Y-67780955D01*
X34232257Y-67770457D01*
X34211196Y-67757834D01*
X34191475Y-67743207D01*
X34173282Y-67726718D01*
X34156793Y-67708525D01*
X34142166Y-67688804D01*
X34129543Y-67667743D01*
X34119045Y-67645547D01*
X34110774Y-67622429D01*
X34104808Y-67598612D01*
X34101205Y-67574324D01*
X34100000Y-67549800D01*
X34100000Y-64450200D01*
X34101205Y-64425676D01*
X34104808Y-64401388D01*
X34110774Y-64377571D01*
X34119045Y-64354453D01*
X34129543Y-64332257D01*
X34142166Y-64311196D01*
X34156793Y-64291475D01*
X34173282Y-64273282D01*
X34191475Y-64256793D01*
X34211196Y-64242166D01*
X34232257Y-64229543D01*
X34254453Y-64219045D01*
X34277571Y-64210774D01*
X34301388Y-64204808D01*
X34325676Y-64201205D01*
X34350200Y-64200000D01*
X35649800Y-64200000D01*
X35674324Y-64201205D01*
X35674324Y-64201205D01*
G37*
D12*
%TO.P,J5,1*%
%TO.N,1*%
X35000000Y-66000000D03*
%TD*%
D10*
%TO.P,J4,9*%
%TO.N,9*%
X75640000Y-83000000D03*
%TO.P,J4,8*%
%TO.N,8*%
X70560000Y-83000000D03*
%TO.P,J4,7*%
%TO.N,7*%
X65480000Y-83000000D03*
%TO.P,J4,6*%
%TO.N,6*%
X60400000Y-83000000D03*
%TO.P,J4,5*%
%TO.N,5*%
X55320000Y-83000000D03*
%TO.P,J4,4*%
%TO.N,4*%
X50240000Y-83000000D03*
%TO.P,J4,3*%
%TO.N,3*%
X45160000Y-83000000D03*
%TO.P,J4,2*%
%TO.N,2*%
X40080000Y-83000000D03*
D11*
%TD*%
%TO.N,1*%
%TO.C,J4*%
G36*
X35674324Y-81201205D02*
G01*
X35698612Y-81204808D01*
X35722429Y-81210774D01*
X35745547Y-81219045D01*
X35767743Y-81229543D01*
X35788804Y-81242166D01*
X35808525Y-81256793D01*
X35826718Y-81273282D01*
X35843207Y-81291475D01*
X35857834Y-81311196D01*
X35870457Y-81332257D01*
X35880955Y-81354453D01*
X35889226Y-81377571D01*
X35895192Y-81401388D01*
X35898795Y-81425676D01*
X35900000Y-81450200D01*
X35900000Y-84549800D01*
X35898795Y-84574324D01*
X35895192Y-84598612D01*
X35889226Y-84622429D01*
X35880955Y-84645547D01*
X35870457Y-84667743D01*
X35857834Y-84688804D01*
X35843207Y-84708525D01*
X35826718Y-84726718D01*
X35808525Y-84743207D01*
X35788804Y-84757834D01*
X35767743Y-84770457D01*
X35745547Y-84780955D01*
X35722429Y-84789226D01*
X35698612Y-84795192D01*
X35674324Y-84798795D01*
X35649800Y-84800000D01*
X34350200Y-84800000D01*
X34325676Y-84798795D01*
X34301388Y-84795192D01*
X34277571Y-84789226D01*
X34254453Y-84780955D01*
X34232257Y-84770457D01*
X34211196Y-84757834D01*
X34191475Y-84743207D01*
X34173282Y-84726718D01*
X34156793Y-84708525D01*
X34142166Y-84688804D01*
X34129543Y-84667743D01*
X34119045Y-84645547D01*
X34110774Y-84622429D01*
X34104808Y-84598612D01*
X34101205Y-84574324D01*
X34100000Y-84549800D01*
X34100000Y-81450200D01*
X34101205Y-81425676D01*
X34104808Y-81401388D01*
X34110774Y-81377571D01*
X34119045Y-81354453D01*
X34129543Y-81332257D01*
X34142166Y-81311196D01*
X34156793Y-81291475D01*
X34173282Y-81273282D01*
X34191475Y-81256793D01*
X34211196Y-81242166D01*
X34232257Y-81229543D01*
X34254453Y-81219045D01*
X34277571Y-81210774D01*
X34301388Y-81204808D01*
X34325676Y-81201205D01*
X34350200Y-81200000D01*
X35649800Y-81200000D01*
X35674324Y-81201205D01*
X35674324Y-81201205D01*
G37*
D12*
%TO.P,J4,1*%
%TO.N,1*%
X35000000Y-83000000D03*
%TD*%
D10*
%TO.P,J3,9*%
%TO.N,9*%
X75640000Y-48000000D03*
%TO.P,J3,8*%
%TO.N,8*%
X70560000Y-48000000D03*
%TO.P,J3,7*%
%TO.N,7*%
X65480000Y-48000000D03*
%TO.P,J3,6*%
%TO.N,6*%
X60400000Y-48000000D03*
%TO.P,J3,5*%
%TO.N,5*%
X55320000Y-48000000D03*
%TO.P,J3,4*%
%TO.N,4*%
X50240000Y-48000000D03*
%TO.P,J3,3*%
%TO.N,3*%
X45160000Y-48000000D03*
%TO.P,J3,2*%
%TO.N,2*%
X40080000Y-48000000D03*
D11*
%TD*%
%TO.N,1*%
%TO.C,J3*%
G36*
X35674324Y-46201205D02*
G01*
X35698612Y-46204808D01*
X35722429Y-46210774D01*
X35745547Y-46219045D01*
X35767743Y-46229543D01*
X35788804Y-46242166D01*
X35808525Y-46256793D01*
X35826718Y-46273282D01*
X35843207Y-46291475D01*
X35857834Y-46311196D01*
X35870457Y-46332257D01*
X35880955Y-46354453D01*
X35889226Y-46377571D01*
X35895192Y-46401388D01*
X35898795Y-46425676D01*
X35900000Y-46450200D01*
X35900000Y-49549800D01*
X35898795Y-49574324D01*
X35895192Y-49598612D01*
X35889226Y-49622429D01*
X35880955Y-49645547D01*
X35870457Y-49667743D01*
X35857834Y-49688804D01*
X35843207Y-49708525D01*
X35826718Y-49726718D01*
X35808525Y-49743207D01*
X35788804Y-49757834D01*
X35767743Y-49770457D01*
X35745547Y-49780955D01*
X35722429Y-49789226D01*
X35698612Y-49795192D01*
X35674324Y-49798795D01*
X35649800Y-49800000D01*
X34350200Y-49800000D01*
X34325676Y-49798795D01*
X34301388Y-49795192D01*
X34277571Y-49789226D01*
X34254453Y-49780955D01*
X34232257Y-49770457D01*
X34211196Y-49757834D01*
X34191475Y-49743207D01*
X34173282Y-49726718D01*
X34156793Y-49708525D01*
X34142166Y-49688804D01*
X34129543Y-49667743D01*
X34119045Y-49645547D01*
X34110774Y-49622429D01*
X34104808Y-49598612D01*
X34101205Y-49574324D01*
X34100000Y-49549800D01*
X34100000Y-46450200D01*
X34101205Y-46425676D01*
X34104808Y-46401388D01*
X34110774Y-46377571D01*
X34119045Y-46354453D01*
X34129543Y-46332257D01*
X34142166Y-46311196D01*
X34156793Y-46291475D01*
X34173282Y-46273282D01*
X34191475Y-46256793D01*
X34211196Y-46242166D01*
X34232257Y-46229543D01*
X34254453Y-46219045D01*
X34277571Y-46210774D01*
X34301388Y-46204808D01*
X34325676Y-46201205D01*
X34350200Y-46200000D01*
X35649800Y-46200000D01*
X35674324Y-46201205D01*
X35674324Y-46201205D01*
G37*
D12*
%TO.P,J3,1*%
%TO.N,1*%
X35000000Y-48000000D03*
%TD*%
D10*
%TO.P,J1,9*%
%TO.N,9in*%
X75440000Y-137100000D03*
%TO.P,J1,8*%
%TO.N,8in*%
X70360000Y-137100000D03*
%TO.P,J1,7*%
%TO.N,7in*%
X65280000Y-137100000D03*
%TO.P,J1,6*%
%TO.N,6in*%
X60200000Y-137100000D03*
%TO.P,J1,5*%
%TO.N,5in*%
X55120000Y-137100000D03*
%TO.P,J1,4*%
%TO.N,4in*%
X50040000Y-137100000D03*
%TO.P,J1,3*%
%TO.N,3in*%
X44960000Y-137100000D03*
%TO.P,J1,2*%
%TO.N,2in*%
X39880000Y-137100000D03*
D11*
%TD*%
%TO.N,1in*%
%TO.C,J1*%
G36*
X35474324Y-135301205D02*
G01*
X35498612Y-135304808D01*
X35522429Y-135310774D01*
X35545547Y-135319045D01*
X35567743Y-135329543D01*
X35588804Y-135342166D01*
X35608525Y-135356793D01*
X35626718Y-135373282D01*
X35643207Y-135391475D01*
X35657834Y-135411196D01*
X35670457Y-135432257D01*
X35680955Y-135454453D01*
X35689226Y-135477571D01*
X35695192Y-135501388D01*
X35698795Y-135525676D01*
X35700000Y-135550200D01*
X35700000Y-138649800D01*
X35698795Y-138674324D01*
X35695192Y-138698612D01*
X35689226Y-138722429D01*
X35680955Y-138745547D01*
X35670457Y-138767743D01*
X35657834Y-138788804D01*
X35643207Y-138808525D01*
X35626718Y-138826718D01*
X35608525Y-138843207D01*
X35588804Y-138857834D01*
X35567743Y-138870457D01*
X35545547Y-138880955D01*
X35522429Y-138889226D01*
X35498612Y-138895192D01*
X35474324Y-138898795D01*
X35449800Y-138900000D01*
X34150200Y-138900000D01*
X34125676Y-138898795D01*
X34101388Y-138895192D01*
X34077571Y-138889226D01*
X34054453Y-138880955D01*
X34032257Y-138870457D01*
X34011196Y-138857834D01*
X33991475Y-138843207D01*
X33973282Y-138826718D01*
X33956793Y-138808525D01*
X33942166Y-138788804D01*
X33929543Y-138767743D01*
X33919045Y-138745547D01*
X33910774Y-138722429D01*
X33904808Y-138698612D01*
X33901205Y-138674324D01*
X33900000Y-138649800D01*
X33900000Y-135550200D01*
X33901205Y-135525676D01*
X33904808Y-135501388D01*
X33910774Y-135477571D01*
X33919045Y-135454453D01*
X33929543Y-135432257D01*
X33942166Y-135411196D01*
X33956793Y-135391475D01*
X33973282Y-135373282D01*
X33991475Y-135356793D01*
X34011196Y-135342166D01*
X34032257Y-135329543D01*
X34054453Y-135319045D01*
X34077571Y-135310774D01*
X34101388Y-135304808D01*
X34125676Y-135301205D01*
X34150200Y-135300000D01*
X35449800Y-135300000D01*
X35474324Y-135301205D01*
X35474324Y-135301205D01*
G37*
D12*
%TO.P,J1,1*%
%TO.N,1in*%
X34800000Y-137100000D03*
%TD*%
D10*
%TO.P,J2,9*%
%TO.N,9in*%
X113020000Y-139390000D03*
%TO.P,J2,8*%
%TO.N,8in*%
X109210000Y-139390000D03*
%TO.P,J2,7*%
%TO.N,7in*%
X105400000Y-139390000D03*
%TO.P,J2,6*%
%TO.N,6in*%
X101590000Y-139390000D03*
%TO.P,J2,5*%
%TO.N,5in*%
X97780000Y-139390000D03*
%TO.P,J2,4*%
%TO.N,4in*%
X93970000Y-139390000D03*
%TO.P,J2,3*%
%TO.N,3in*%
X90160000Y-139390000D03*
%TO.P,J2,2*%
%TO.N,2in*%
X86350000Y-139390000D03*
D11*
%TD*%
%TO.N,1in*%
%TO.C,J2*%
G36*
X83214504Y-137591204D02*
G01*
X83238773Y-137594804D01*
X83262571Y-137600765D01*
X83285671Y-137609030D01*
X83307849Y-137619520D01*
X83328893Y-137632133D01*
X83348598Y-137646747D01*
X83366777Y-137663223D01*
X83383253Y-137681402D01*
X83397867Y-137701107D01*
X83410480Y-137722151D01*
X83420970Y-137744329D01*
X83429235Y-137767429D01*
X83435196Y-137791227D01*
X83438796Y-137815496D01*
X83440000Y-137840000D01*
X83440000Y-140940000D01*
X83438796Y-140964504D01*
X83435196Y-140988773D01*
X83429235Y-141012571D01*
X83420970Y-141035671D01*
X83410480Y-141057849D01*
X83397867Y-141078893D01*
X83383253Y-141098598D01*
X83366777Y-141116777D01*
X83348598Y-141133253D01*
X83328893Y-141147867D01*
X83307849Y-141160480D01*
X83285671Y-141170970D01*
X83262571Y-141179235D01*
X83238773Y-141185196D01*
X83214504Y-141188796D01*
X83190000Y-141190000D01*
X81890000Y-141190000D01*
X81865496Y-141188796D01*
X81841227Y-141185196D01*
X81817429Y-141179235D01*
X81794329Y-141170970D01*
X81772151Y-141160480D01*
X81751107Y-141147867D01*
X81731402Y-141133253D01*
X81713223Y-141116777D01*
X81696747Y-141098598D01*
X81682133Y-141078893D01*
X81669520Y-141057849D01*
X81659030Y-141035671D01*
X81650765Y-141012571D01*
X81644804Y-140988773D01*
X81641204Y-140964504D01*
X81640000Y-140940000D01*
X81640000Y-137840000D01*
X81641204Y-137815496D01*
X81644804Y-137791227D01*
X81650765Y-137767429D01*
X81659030Y-137744329D01*
X81669520Y-137722151D01*
X81682133Y-137701107D01*
X81696747Y-137681402D01*
X81713223Y-137663223D01*
X81731402Y-137646747D01*
X81751107Y-137632133D01*
X81772151Y-137619520D01*
X81794329Y-137609030D01*
X81817429Y-137600765D01*
X81841227Y-137594804D01*
X81865496Y-137591204D01*
X81890000Y-137590000D01*
X83190000Y-137590000D01*
X83214504Y-137591204D01*
X83214504Y-137591204D01*
G37*
D12*
%TO.P,J2,1*%
%TO.N,1in*%
X82540000Y-139390000D03*
%TD*%
D13*
%TO.P,J10,20*%
%TO.N,9*%
X110860000Y-45460000D03*
%TO.P,J10,19*%
X110860000Y-48000000D03*
%TO.P,J10,18*%
%TO.N,8*%
X108320000Y-45460000D03*
%TO.P,J10,17*%
X108320000Y-48000000D03*
%TO.P,J10,16*%
%TO.N,7*%
X105780000Y-45460000D03*
%TO.P,J10,15*%
X105780000Y-48000000D03*
%TO.P,J10,14*%
%TO.N,6*%
X103240000Y-45460000D03*
%TO.P,J10,13*%
X103240000Y-48000000D03*
%TO.P,J10,12*%
%TO.N,5*%
X100700000Y-45460000D03*
%TO.P,J10,11*%
X100700000Y-48000000D03*
%TO.P,J10,10*%
%TO.N,4*%
X98160000Y-45460000D03*
%TO.P,J10,9*%
X98160000Y-48000000D03*
%TO.P,J10,8*%
%TO.N,3*%
X95620000Y-45460000D03*
%TO.P,J10,7*%
X95620000Y-48000000D03*
%TO.P,J10,6*%
%TO.N,2*%
X93080000Y-45460000D03*
%TO.P,J10,5*%
X93080000Y-48000000D03*
%TO.P,J10,4*%
%TO.N,1*%
X90540000Y-45460000D03*
%TO.P,J10,3*%
X90540000Y-48000000D03*
%TO.P,J10,2*%
X88000000Y-45460000D03*
D14*
%TO.P,J10,1*%
X88000000Y-48000000D03*
%TD*%
D10*
%TO.P,J9,9*%
%TO.N,9*%
X122480000Y-84000000D03*
%TO.P,J9,8*%
%TO.N,8*%
X118670000Y-84000000D03*
%TO.P,J9,7*%
%TO.N,7*%
X114860000Y-84000000D03*
%TO.P,J9,6*%
%TO.N,6*%
X111050000Y-84000000D03*
%TO.P,J9,5*%
%TO.N,5*%
X107240000Y-84000000D03*
%TO.P,J9,4*%
%TO.N,4*%
X103430000Y-84000000D03*
%TO.P,J9,3*%
%TO.N,3*%
X99620000Y-84000000D03*
%TO.P,J9,2*%
%TO.N,2*%
X95810000Y-84000000D03*
D11*
%TD*%
%TO.N,1*%
%TO.C,J9*%
G36*
X92674504Y-82201204D02*
G01*
X92698773Y-82204804D01*
X92722571Y-82210765D01*
X92745671Y-82219030D01*
X92767849Y-82229520D01*
X92788893Y-82242133D01*
X92808598Y-82256747D01*
X92826777Y-82273223D01*
X92843253Y-82291402D01*
X92857867Y-82311107D01*
X92870480Y-82332151D01*
X92880970Y-82354329D01*
X92889235Y-82377429D01*
X92895196Y-82401227D01*
X92898796Y-82425496D01*
X92900000Y-82450000D01*
X92900000Y-85550000D01*
X92898796Y-85574504D01*
X92895196Y-85598773D01*
X92889235Y-85622571D01*
X92880970Y-85645671D01*
X92870480Y-85667849D01*
X92857867Y-85688893D01*
X92843253Y-85708598D01*
X92826777Y-85726777D01*
X92808598Y-85743253D01*
X92788893Y-85757867D01*
X92767849Y-85770480D01*
X92745671Y-85780970D01*
X92722571Y-85789235D01*
X92698773Y-85795196D01*
X92674504Y-85798796D01*
X92650000Y-85800000D01*
X91350000Y-85800000D01*
X91325496Y-85798796D01*
X91301227Y-85795196D01*
X91277429Y-85789235D01*
X91254329Y-85780970D01*
X91232151Y-85770480D01*
X91211107Y-85757867D01*
X91191402Y-85743253D01*
X91173223Y-85726777D01*
X91156747Y-85708598D01*
X91142133Y-85688893D01*
X91129520Y-85667849D01*
X91119030Y-85645671D01*
X91110765Y-85622571D01*
X91104804Y-85598773D01*
X91101204Y-85574504D01*
X91100000Y-85550000D01*
X91100000Y-82450000D01*
X91101204Y-82425496D01*
X91104804Y-82401227D01*
X91110765Y-82377429D01*
X91119030Y-82354329D01*
X91129520Y-82332151D01*
X91142133Y-82311107D01*
X91156747Y-82291402D01*
X91173223Y-82273223D01*
X91191402Y-82256747D01*
X91211107Y-82242133D01*
X91232151Y-82229520D01*
X91254329Y-82219030D01*
X91277429Y-82210765D01*
X91301227Y-82204804D01*
X91325496Y-82201204D01*
X91350000Y-82200000D01*
X92650000Y-82200000D01*
X92674504Y-82201204D01*
X92674504Y-82201204D01*
G37*
D12*
%TO.P,J9,1*%
%TO.N,1*%
X92000000Y-84000000D03*
%TD*%
D10*
%TO.P,J8,9*%
%TO.N,9*%
X122480000Y-72000000D03*
%TO.P,J8,8*%
%TO.N,8*%
X118670000Y-72000000D03*
%TO.P,J8,7*%
%TO.N,7*%
X114860000Y-72000000D03*
%TO.P,J8,6*%
%TO.N,6*%
X111050000Y-72000000D03*
%TO.P,J8,5*%
%TO.N,5*%
X107240000Y-72000000D03*
%TO.P,J8,4*%
%TO.N,4*%
X103430000Y-72000000D03*
%TO.P,J8,3*%
%TO.N,3*%
X99620000Y-72000000D03*
%TO.P,J8,2*%
%TO.N,2*%
X95810000Y-72000000D03*
D11*
%TD*%
%TO.N,1*%
%TO.C,J8*%
G36*
X92674504Y-70201204D02*
G01*
X92698773Y-70204804D01*
X92722571Y-70210765D01*
X92745671Y-70219030D01*
X92767849Y-70229520D01*
X92788893Y-70242133D01*
X92808598Y-70256747D01*
X92826777Y-70273223D01*
X92843253Y-70291402D01*
X92857867Y-70311107D01*
X92870480Y-70332151D01*
X92880970Y-70354329D01*
X92889235Y-70377429D01*
X92895196Y-70401227D01*
X92898796Y-70425496D01*
X92900000Y-70450000D01*
X92900000Y-73550000D01*
X92898796Y-73574504D01*
X92895196Y-73598773D01*
X92889235Y-73622571D01*
X92880970Y-73645671D01*
X92870480Y-73667849D01*
X92857867Y-73688893D01*
X92843253Y-73708598D01*
X92826777Y-73726777D01*
X92808598Y-73743253D01*
X92788893Y-73757867D01*
X92767849Y-73770480D01*
X92745671Y-73780970D01*
X92722571Y-73789235D01*
X92698773Y-73795196D01*
X92674504Y-73798796D01*
X92650000Y-73800000D01*
X91350000Y-73800000D01*
X91325496Y-73798796D01*
X91301227Y-73795196D01*
X91277429Y-73789235D01*
X91254329Y-73780970D01*
X91232151Y-73770480D01*
X91211107Y-73757867D01*
X91191402Y-73743253D01*
X91173223Y-73726777D01*
X91156747Y-73708598D01*
X91142133Y-73688893D01*
X91129520Y-73667849D01*
X91119030Y-73645671D01*
X91110765Y-73622571D01*
X91104804Y-73598773D01*
X91101204Y-73574504D01*
X91100000Y-73550000D01*
X91100000Y-70450000D01*
X91101204Y-70425496D01*
X91104804Y-70401227D01*
X91110765Y-70377429D01*
X91119030Y-70354329D01*
X91129520Y-70332151D01*
X91142133Y-70311107D01*
X91156747Y-70291402D01*
X91173223Y-70273223D01*
X91191402Y-70256747D01*
X91211107Y-70242133D01*
X91232151Y-70229520D01*
X91254329Y-70219030D01*
X91277429Y-70210765D01*
X91301227Y-70204804D01*
X91325496Y-70201204D01*
X91350000Y-70200000D01*
X92650000Y-70200000D01*
X92674504Y-70201204D01*
X92674504Y-70201204D01*
G37*
D12*
%TO.P,J8,1*%
%TO.N,1*%
X92000000Y-72000000D03*
%TD*%
D10*
%TO.P,J6,9*%
%TO.N,9*%
X122480000Y-59000000D03*
%TO.P,J6,8*%
%TO.N,8*%
X118670000Y-59000000D03*
%TO.P,J6,7*%
%TO.N,7*%
X114860000Y-59000000D03*
%TO.P,J6,6*%
%TO.N,6*%
X111050000Y-59000000D03*
%TO.P,J6,5*%
%TO.N,5*%
X107240000Y-59000000D03*
%TO.P,J6,4*%
%TO.N,4*%
X103430000Y-59000000D03*
%TO.P,J6,3*%
%TO.N,3*%
X99620000Y-59000000D03*
%TO.P,J6,2*%
%TO.N,2*%
X95810000Y-59000000D03*
D11*
%TD*%
%TO.N,1*%
%TO.C,J6*%
G36*
X92674504Y-57201204D02*
G01*
X92698773Y-57204804D01*
X92722571Y-57210765D01*
X92745671Y-57219030D01*
X92767849Y-57229520D01*
X92788893Y-57242133D01*
X92808598Y-57256747D01*
X92826777Y-57273223D01*
X92843253Y-57291402D01*
X92857867Y-57311107D01*
X92870480Y-57332151D01*
X92880970Y-57354329D01*
X92889235Y-57377429D01*
X92895196Y-57401227D01*
X92898796Y-57425496D01*
X92900000Y-57450000D01*
X92900000Y-60550000D01*
X92898796Y-60574504D01*
X92895196Y-60598773D01*
X92889235Y-60622571D01*
X92880970Y-60645671D01*
X92870480Y-60667849D01*
X92857867Y-60688893D01*
X92843253Y-60708598D01*
X92826777Y-60726777D01*
X92808598Y-60743253D01*
X92788893Y-60757867D01*
X92767849Y-60770480D01*
X92745671Y-60780970D01*
X92722571Y-60789235D01*
X92698773Y-60795196D01*
X92674504Y-60798796D01*
X92650000Y-60800000D01*
X91350000Y-60800000D01*
X91325496Y-60798796D01*
X91301227Y-60795196D01*
X91277429Y-60789235D01*
X91254329Y-60780970D01*
X91232151Y-60770480D01*
X91211107Y-60757867D01*
X91191402Y-60743253D01*
X91173223Y-60726777D01*
X91156747Y-60708598D01*
X91142133Y-60688893D01*
X91129520Y-60667849D01*
X91119030Y-60645671D01*
X91110765Y-60622571D01*
X91104804Y-60598773D01*
X91101204Y-60574504D01*
X91100000Y-60550000D01*
X91100000Y-57450000D01*
X91101204Y-57425496D01*
X91104804Y-57401227D01*
X91110765Y-57377429D01*
X91119030Y-57354329D01*
X91129520Y-57332151D01*
X91142133Y-57311107D01*
X91156747Y-57291402D01*
X91173223Y-57273223D01*
X91191402Y-57256747D01*
X91211107Y-57242133D01*
X91232151Y-57229520D01*
X91254329Y-57219030D01*
X91277429Y-57210765D01*
X91301227Y-57204804D01*
X91325496Y-57201204D01*
X91350000Y-57200000D01*
X92650000Y-57200000D01*
X92674504Y-57201204D01*
X92674504Y-57201204D01*
G37*
D12*
%TO.P,J6,1*%
%TO.N,1*%
X92000000Y-59000000D03*
%TD*%
D15*
%TO.P,F9,2*%
%TO.N,9in*%
X116500000Y-121600000D03*
%TO.P,F9,1*%
%TO.N,9*%
X116500000Y-99000000D03*
%TD*%
%TO.P,F8,2*%
%TO.N,8in*%
X105500000Y-121600000D03*
%TO.P,F8,1*%
%TO.N,8*%
X105500000Y-99000000D03*
%TD*%
%TO.P,F7,2*%
%TO.N,7in*%
X94500000Y-121600000D03*
%TO.P,F7,1*%
%TO.N,7*%
X94500000Y-99000000D03*
%TD*%
%TO.P,F6,2*%
%TO.N,6in*%
X83500000Y-121600000D03*
%TO.P,F6,1*%
%TO.N,6*%
X83500000Y-99000000D03*
%TD*%
%TO.P,F5,2*%
%TO.N,5in*%
X72500000Y-121600000D03*
%TO.P,F5,1*%
%TO.N,5*%
X72500000Y-99000000D03*
%TD*%
%TO.P,F4,2*%
%TO.N,4in*%
X61500000Y-121600000D03*
%TO.P,F4,1*%
%TO.N,4*%
X61500000Y-99000000D03*
%TD*%
%TO.P,F3,2*%
%TO.N,3in*%
X50500000Y-121600000D03*
%TO.P,F3,1*%
%TO.N,3*%
X50500000Y-99000000D03*
%TD*%
%TO.P,F2,2*%
%TO.N,2in*%
X39500000Y-121600000D03*
%TO.P,F2,1*%
%TO.N,2*%
X39500000Y-99000000D03*
%TD*%
%TO.P,F1,2*%
%TO.N,1in*%
X28500000Y-121600000D03*
%TO.P,F1,1*%
%TO.N,1*%
X28500000Y-99000000D03*
%TD*%
D16*
%TO.N,1in*%
X34440000Y-127540000D02*
X34440000Y-137370000D01*
X33850000Y-126950000D02*
X34440000Y-127540000D01*
X33850000Y-126950000D02*
X28500000Y-121600000D01*
%TO.N,2in*%
X39500000Y-128480000D02*
X39500000Y-121600000D01*
X39520000Y-128500000D02*
X39500000Y-128480000D01*
X39520000Y-128500000D02*
X39520000Y-137370000D01*
%TO.N,3in*%
X44600000Y-127500000D02*
X50500000Y-121600000D01*
X44600000Y-137370000D02*
X44600000Y-127500000D01*
%TO.N,4in*%
X49680000Y-133420000D02*
X61500000Y-121600000D01*
X49680000Y-137370000D02*
X49680000Y-133420000D01*
%TO.N,5in*%
X70530000Y-121600000D02*
X72500000Y-121600000D01*
X54760000Y-137370000D02*
X70530000Y-121600000D01*
%TO.N,6in*%
X59840000Y-136470000D02*
X59840000Y-137370000D01*
X71335805Y-124974195D02*
X59840000Y-136470000D01*
X80125805Y-124974195D02*
X71335805Y-124974195D01*
X83500000Y-121600000D02*
X80125805Y-124974195D01*
%TO.N,7in*%
X64920000Y-136470000D02*
X64920000Y-137370000D01*
X73260805Y-128129195D02*
X64920000Y-136470000D01*
X87970805Y-128129195D02*
X73260805Y-128129195D01*
X94500000Y-121600000D02*
X87970805Y-128129195D01*
%TO.N,8in*%
X105060000Y-121600000D02*
X105500000Y-121600000D01*
X70000000Y-136470000D02*
X70000000Y-137370000D01*
X75640795Y-130829205D02*
X70000000Y-136470000D01*
X95830795Y-130829205D02*
X75640795Y-130829205D01*
X96335000Y-130325000D02*
X95830795Y-130829205D01*
X96335000Y-130325000D02*
X101125000Y-125535000D01*
X101125000Y-125535000D02*
X105060000Y-121600000D01*
D17*
%TO.N,9in*%
X113020000Y-125080000D02*
X116500000Y-121600000D01*
D18*
X113020000Y-139390000D02*
X113020000Y-125080000D01*
D16*
X75080000Y-136050000D02*
X75080000Y-137370000D01*
X110980000Y-127120000D02*
X110760000Y-127120000D01*
X110980000Y-127120000D02*
X104570785Y-133529215D01*
X116500000Y-121600000D02*
X110980000Y-127120000D01*
X103170000Y-134930000D02*
X104570785Y-133529215D01*
X76200000Y-134930000D02*
X103170000Y-134930000D01*
X76200000Y-134930000D02*
X75080000Y-136050000D01*
%TO.N,1*%
X35000000Y-92500000D02*
X28500000Y-99000000D01*
X35000000Y-83000000D02*
X35000000Y-92500000D01*
D17*
X92000000Y-84000000D02*
X92000000Y-72000000D01*
X35000000Y-83000000D02*
X35000000Y-66000000D01*
X35000000Y-66000000D02*
X35000000Y-48000000D01*
X92000000Y-59000000D02*
X92000000Y-72000000D01*
X88000000Y-45460000D02*
X88000000Y-48000000D01*
X90540000Y-48000000D02*
X88000000Y-48000000D01*
X90540000Y-48000000D02*
X90540000Y-45460000D01*
X90540000Y-45460000D02*
X88000000Y-45460000D01*
D18*
X88000000Y-55000000D02*
X92000000Y-59000000D01*
X88000000Y-48000000D02*
X88000000Y-55000000D01*
D16*
%TO.N,2*%
X40080000Y-98420000D02*
X39500000Y-99000000D01*
X40080000Y-83000000D02*
X40080000Y-98420000D01*
D17*
X95810000Y-72000000D02*
X95810000Y-84000000D01*
X95810000Y-72000000D02*
X95810000Y-59000000D01*
X40080000Y-48000000D02*
X40080000Y-66000000D01*
X40080000Y-66000000D02*
X40080000Y-83000000D01*
X93080000Y-45460000D02*
X93080000Y-48000000D01*
D18*
X93080000Y-49221314D02*
X93080000Y-48000000D01*
X93080000Y-55370000D02*
X93080000Y-49221314D01*
X95810000Y-58100000D02*
X93080000Y-55370000D01*
X95810000Y-59000000D02*
X95810000Y-58100000D01*
D16*
%TO.N,3*%
X45160000Y-93660000D02*
X50500000Y-99000000D01*
X45160000Y-83000000D02*
X45160000Y-93660000D01*
D17*
X99620000Y-72000000D02*
X99620000Y-84000000D01*
X99620000Y-72000000D02*
X99620000Y-59000000D01*
D16*
X45160000Y-83000000D02*
X45160000Y-66000000D01*
X45160000Y-66000000D02*
X45160000Y-48000000D01*
D17*
X95620000Y-45460000D02*
X95620000Y-48000000D01*
D18*
X95620000Y-49221314D02*
X95620000Y-48000000D01*
X95620000Y-54100000D02*
X95620000Y-49221314D01*
X99620000Y-58100000D02*
X95620000Y-54100000D01*
X99620000Y-59000000D02*
X99620000Y-58100000D01*
D17*
%TO.N,4*%
X103430000Y-72000000D02*
X103430000Y-84000000D01*
X103430000Y-72000000D02*
X103430000Y-59000000D01*
X50240000Y-48000000D02*
X50240000Y-66000000D01*
X50240000Y-66000000D02*
X50240000Y-83000000D01*
X98160000Y-45460000D02*
X98160000Y-48000000D01*
D16*
X50240000Y-87740000D02*
X50240000Y-83000000D01*
X61500000Y-99000000D02*
X50240000Y-87740000D01*
D18*
X98160000Y-49221314D02*
X98160000Y-48000000D01*
X98160000Y-52830000D02*
X98160000Y-49221314D01*
X103430000Y-58100000D02*
X98160000Y-52830000D01*
X103430000Y-59000000D02*
X103430000Y-58100000D01*
D16*
%TO.N,5*%
X72500000Y-99000000D02*
X67800000Y-99000000D01*
X67020000Y-99000000D02*
X67800000Y-99000000D01*
X55320000Y-87300000D02*
X67020000Y-99000000D01*
X55320000Y-83000000D02*
X55320000Y-87300000D01*
D17*
X107240000Y-72000000D02*
X107240000Y-84000000D01*
X107240000Y-72000000D02*
X107240000Y-59000000D01*
D16*
X55320000Y-83000000D02*
X55320000Y-66000000D01*
X55320000Y-66000000D02*
X55320000Y-48000000D01*
D17*
X100700000Y-45460000D02*
X100700000Y-48000000D01*
D18*
X100700000Y-49221314D02*
X100700000Y-48000000D01*
X100700000Y-51560000D02*
X100700000Y-49221314D01*
X107240000Y-58100000D02*
X100700000Y-51560000D01*
X107240000Y-59000000D02*
X107240000Y-58100000D01*
D16*
%TO.N,6*%
X60400000Y-83900000D02*
X60400000Y-83000000D01*
X71250000Y-94750000D02*
X60400000Y-83900000D01*
X79250000Y-94750000D02*
X81700000Y-97200000D01*
X71250000Y-94750000D02*
X79250000Y-94750000D01*
X83500000Y-99000000D02*
X81700000Y-97200000D01*
D17*
X111050000Y-72000000D02*
X111050000Y-84000000D01*
X111050000Y-72000000D02*
X111050000Y-59000000D01*
X60400000Y-48000000D02*
X60400000Y-66000000D01*
X60400000Y-66000000D02*
X60400000Y-83000000D01*
X103240000Y-45460000D02*
X103240000Y-48000000D01*
D18*
X103240000Y-49221314D02*
X103240000Y-48000000D01*
X103240000Y-50290000D02*
X103240000Y-49221314D01*
X111050000Y-58100000D02*
X103240000Y-50290000D01*
X111050000Y-59000000D02*
X111050000Y-58100000D01*
D16*
%TO.N,7*%
X90100000Y-99000000D02*
X94500000Y-99000000D01*
X65480000Y-83900000D02*
X72340000Y-90760000D01*
X72340000Y-90760000D02*
X81960000Y-90760000D01*
X65480000Y-83000000D02*
X65480000Y-83900000D01*
X81960000Y-90760000D02*
X84700000Y-93500000D01*
X84700000Y-93500000D02*
X84700000Y-93600000D01*
X84700000Y-93600000D02*
X90100000Y-99000000D01*
D17*
X114860000Y-72000000D02*
X114860000Y-84000000D01*
X114860000Y-72000000D02*
X114860000Y-59000000D01*
D16*
X65480000Y-83000000D02*
X65480000Y-66000000D01*
X65480000Y-66000000D02*
X65480000Y-48000000D01*
D17*
X105780000Y-45460000D02*
X105780000Y-48000000D01*
D18*
X105780000Y-49020000D02*
X105780000Y-48000000D01*
X114860000Y-58100000D02*
X105780000Y-49020000D01*
X114860000Y-59000000D02*
X114860000Y-58100000D01*
D17*
%TO.N,8*%
X118670000Y-72000000D02*
X118670000Y-84000000D01*
X118670000Y-72000000D02*
X118670000Y-59000000D01*
X70560000Y-48000000D02*
X70560000Y-66000000D01*
X70560000Y-66000000D02*
X70560000Y-83000000D01*
X108320000Y-45460000D02*
X108320000Y-48000000D01*
D16*
X70560000Y-83900000D02*
X70560000Y-83000000D01*
X73480000Y-86820000D02*
X70560000Y-83900000D01*
X83280000Y-86820000D02*
X73480000Y-86820000D01*
X91710000Y-95250000D02*
X83280000Y-86820000D01*
X101750000Y-95250000D02*
X91710000Y-95250000D01*
X105500000Y-99000000D02*
X101750000Y-95250000D01*
D18*
X108570000Y-48000000D02*
X108320000Y-48000000D01*
X118670000Y-58100000D02*
X108570000Y-48000000D01*
X118670000Y-59000000D02*
X118670000Y-58100000D01*
D17*
%TO.N,9*%
X122480000Y-59000000D02*
X122480000Y-72000000D01*
X122480000Y-72000000D02*
X122480000Y-84000000D01*
X122480000Y-93020000D02*
X116500000Y-99000000D01*
X122480000Y-84000000D02*
X122480000Y-93020000D01*
X75640000Y-48000000D02*
X75640000Y-66000000D01*
X75640000Y-66000000D02*
X75640000Y-83000000D01*
X110860000Y-47877436D02*
X110860000Y-45460000D01*
D16*
X83600000Y-83000000D02*
X75640000Y-83000000D01*
X84818390Y-83000000D02*
X83600000Y-83000000D01*
X92568400Y-90750010D02*
X84818390Y-83000000D01*
X108250010Y-90750010D02*
X92568400Y-90750010D01*
X116500000Y-99000000D02*
X108250010Y-90750010D01*
D18*
X112081314Y-48000000D02*
X110860000Y-48000000D01*
X112380000Y-48000000D02*
X112081314Y-48000000D01*
X122480000Y-58100000D02*
X112380000Y-48000000D01*
X122480000Y-59000000D02*
X122480000Y-58100000D01*
%TD*%
M02*
