G04 #@! TF.GenerationSoftware,KiCad,Pcbnew,(5.1.4)-1*
G04 #@! TF.CreationDate,2020-02-28T16:59:15+08:00*
G04 #@! TF.ProjectId,9p-parallel-fused,39702d70-6172-4616-9c6c-656c2d667573,rev?*
G04 #@! TF.SameCoordinates,Original*
G04 #@! TF.FileFunction,Paste,Top*
G04 #@! TF.FilePolarity,Positive*
%FSLAX46Y46*%
G04 Gerber Fmt 4.6, Leading zero omitted, Abs format (unit mm)*
G04 Created by KiCad (PCBNEW (5.1.4)-1) date 2020-02-28 16:59:15*
%MOMM*%
%LPD*%
G04 APERTURE LIST*
%ADD10C,0.100000*%
%ADD11C,1.150000*%
%ADD12C,1.425000*%
G04 APERTURE END LIST*
D10*
G36*
X117899505Y-125301204D02*
G01*
X117923773Y-125304804D01*
X117947572Y-125310765D01*
X117970671Y-125319030D01*
X117992850Y-125329520D01*
X118013893Y-125342132D01*
X118033599Y-125356747D01*
X118051777Y-125373223D01*
X118068253Y-125391401D01*
X118082868Y-125411107D01*
X118095480Y-125432150D01*
X118105970Y-125454329D01*
X118114235Y-125477428D01*
X118120196Y-125501227D01*
X118123796Y-125525495D01*
X118125000Y-125549999D01*
X118125000Y-126450001D01*
X118123796Y-126474505D01*
X118120196Y-126498773D01*
X118114235Y-126522572D01*
X118105970Y-126545671D01*
X118095480Y-126567850D01*
X118082868Y-126588893D01*
X118068253Y-126608599D01*
X118051777Y-126626777D01*
X118033599Y-126643253D01*
X118013893Y-126657868D01*
X117992850Y-126670480D01*
X117970671Y-126680970D01*
X117947572Y-126689235D01*
X117923773Y-126695196D01*
X117899505Y-126698796D01*
X117875001Y-126700000D01*
X117224999Y-126700000D01*
X117200495Y-126698796D01*
X117176227Y-126695196D01*
X117152428Y-126689235D01*
X117129329Y-126680970D01*
X117107150Y-126670480D01*
X117086107Y-126657868D01*
X117066401Y-126643253D01*
X117048223Y-126626777D01*
X117031747Y-126608599D01*
X117017132Y-126588893D01*
X117004520Y-126567850D01*
X116994030Y-126545671D01*
X116985765Y-126522572D01*
X116979804Y-126498773D01*
X116976204Y-126474505D01*
X116975000Y-126450001D01*
X116975000Y-125549999D01*
X116976204Y-125525495D01*
X116979804Y-125501227D01*
X116985765Y-125477428D01*
X116994030Y-125454329D01*
X117004520Y-125432150D01*
X117017132Y-125411107D01*
X117031747Y-125391401D01*
X117048223Y-125373223D01*
X117066401Y-125356747D01*
X117086107Y-125342132D01*
X117107150Y-125329520D01*
X117129329Y-125319030D01*
X117152428Y-125310765D01*
X117176227Y-125304804D01*
X117200495Y-125301204D01*
X117224999Y-125300000D01*
X117875001Y-125300000D01*
X117899505Y-125301204D01*
X117899505Y-125301204D01*
G37*
D11*
X117550000Y-126000000D03*
D10*
G36*
X115849505Y-125301204D02*
G01*
X115873773Y-125304804D01*
X115897572Y-125310765D01*
X115920671Y-125319030D01*
X115942850Y-125329520D01*
X115963893Y-125342132D01*
X115983599Y-125356747D01*
X116001777Y-125373223D01*
X116018253Y-125391401D01*
X116032868Y-125411107D01*
X116045480Y-125432150D01*
X116055970Y-125454329D01*
X116064235Y-125477428D01*
X116070196Y-125501227D01*
X116073796Y-125525495D01*
X116075000Y-125549999D01*
X116075000Y-126450001D01*
X116073796Y-126474505D01*
X116070196Y-126498773D01*
X116064235Y-126522572D01*
X116055970Y-126545671D01*
X116045480Y-126567850D01*
X116032868Y-126588893D01*
X116018253Y-126608599D01*
X116001777Y-126626777D01*
X115983599Y-126643253D01*
X115963893Y-126657868D01*
X115942850Y-126670480D01*
X115920671Y-126680970D01*
X115897572Y-126689235D01*
X115873773Y-126695196D01*
X115849505Y-126698796D01*
X115825001Y-126700000D01*
X115174999Y-126700000D01*
X115150495Y-126698796D01*
X115126227Y-126695196D01*
X115102428Y-126689235D01*
X115079329Y-126680970D01*
X115057150Y-126670480D01*
X115036107Y-126657868D01*
X115016401Y-126643253D01*
X114998223Y-126626777D01*
X114981747Y-126608599D01*
X114967132Y-126588893D01*
X114954520Y-126567850D01*
X114944030Y-126545671D01*
X114935765Y-126522572D01*
X114929804Y-126498773D01*
X114926204Y-126474505D01*
X114925000Y-126450001D01*
X114925000Y-125549999D01*
X114926204Y-125525495D01*
X114929804Y-125501227D01*
X114935765Y-125477428D01*
X114944030Y-125454329D01*
X114954520Y-125432150D01*
X114967132Y-125411107D01*
X114981747Y-125391401D01*
X114998223Y-125373223D01*
X115016401Y-125356747D01*
X115036107Y-125342132D01*
X115057150Y-125329520D01*
X115079329Y-125319030D01*
X115102428Y-125310765D01*
X115126227Y-125304804D01*
X115150495Y-125301204D01*
X115174999Y-125300000D01*
X115825001Y-125300000D01*
X115849505Y-125301204D01*
X115849505Y-125301204D01*
G37*
D11*
X115500000Y-126000000D03*
D10*
G36*
X106849505Y-125301204D02*
G01*
X106873773Y-125304804D01*
X106897572Y-125310765D01*
X106920671Y-125319030D01*
X106942850Y-125329520D01*
X106963893Y-125342132D01*
X106983599Y-125356747D01*
X107001777Y-125373223D01*
X107018253Y-125391401D01*
X107032868Y-125411107D01*
X107045480Y-125432150D01*
X107055970Y-125454329D01*
X107064235Y-125477428D01*
X107070196Y-125501227D01*
X107073796Y-125525495D01*
X107075000Y-125549999D01*
X107075000Y-126450001D01*
X107073796Y-126474505D01*
X107070196Y-126498773D01*
X107064235Y-126522572D01*
X107055970Y-126545671D01*
X107045480Y-126567850D01*
X107032868Y-126588893D01*
X107018253Y-126608599D01*
X107001777Y-126626777D01*
X106983599Y-126643253D01*
X106963893Y-126657868D01*
X106942850Y-126670480D01*
X106920671Y-126680970D01*
X106897572Y-126689235D01*
X106873773Y-126695196D01*
X106849505Y-126698796D01*
X106825001Y-126700000D01*
X106174999Y-126700000D01*
X106150495Y-126698796D01*
X106126227Y-126695196D01*
X106102428Y-126689235D01*
X106079329Y-126680970D01*
X106057150Y-126670480D01*
X106036107Y-126657868D01*
X106016401Y-126643253D01*
X105998223Y-126626777D01*
X105981747Y-126608599D01*
X105967132Y-126588893D01*
X105954520Y-126567850D01*
X105944030Y-126545671D01*
X105935765Y-126522572D01*
X105929804Y-126498773D01*
X105926204Y-126474505D01*
X105925000Y-126450001D01*
X105925000Y-125549999D01*
X105926204Y-125525495D01*
X105929804Y-125501227D01*
X105935765Y-125477428D01*
X105944030Y-125454329D01*
X105954520Y-125432150D01*
X105967132Y-125411107D01*
X105981747Y-125391401D01*
X105998223Y-125373223D01*
X106016401Y-125356747D01*
X106036107Y-125342132D01*
X106057150Y-125329520D01*
X106079329Y-125319030D01*
X106102428Y-125310765D01*
X106126227Y-125304804D01*
X106150495Y-125301204D01*
X106174999Y-125300000D01*
X106825001Y-125300000D01*
X106849505Y-125301204D01*
X106849505Y-125301204D01*
G37*
D11*
X106500000Y-126000000D03*
D10*
G36*
X104799505Y-125301204D02*
G01*
X104823773Y-125304804D01*
X104847572Y-125310765D01*
X104870671Y-125319030D01*
X104892850Y-125329520D01*
X104913893Y-125342132D01*
X104933599Y-125356747D01*
X104951777Y-125373223D01*
X104968253Y-125391401D01*
X104982868Y-125411107D01*
X104995480Y-125432150D01*
X105005970Y-125454329D01*
X105014235Y-125477428D01*
X105020196Y-125501227D01*
X105023796Y-125525495D01*
X105025000Y-125549999D01*
X105025000Y-126450001D01*
X105023796Y-126474505D01*
X105020196Y-126498773D01*
X105014235Y-126522572D01*
X105005970Y-126545671D01*
X104995480Y-126567850D01*
X104982868Y-126588893D01*
X104968253Y-126608599D01*
X104951777Y-126626777D01*
X104933599Y-126643253D01*
X104913893Y-126657868D01*
X104892850Y-126670480D01*
X104870671Y-126680970D01*
X104847572Y-126689235D01*
X104823773Y-126695196D01*
X104799505Y-126698796D01*
X104775001Y-126700000D01*
X104124999Y-126700000D01*
X104100495Y-126698796D01*
X104076227Y-126695196D01*
X104052428Y-126689235D01*
X104029329Y-126680970D01*
X104007150Y-126670480D01*
X103986107Y-126657868D01*
X103966401Y-126643253D01*
X103948223Y-126626777D01*
X103931747Y-126608599D01*
X103917132Y-126588893D01*
X103904520Y-126567850D01*
X103894030Y-126545671D01*
X103885765Y-126522572D01*
X103879804Y-126498773D01*
X103876204Y-126474505D01*
X103875000Y-126450001D01*
X103875000Y-125549999D01*
X103876204Y-125525495D01*
X103879804Y-125501227D01*
X103885765Y-125477428D01*
X103894030Y-125454329D01*
X103904520Y-125432150D01*
X103917132Y-125411107D01*
X103931747Y-125391401D01*
X103948223Y-125373223D01*
X103966401Y-125356747D01*
X103986107Y-125342132D01*
X104007150Y-125329520D01*
X104029329Y-125319030D01*
X104052428Y-125310765D01*
X104076227Y-125304804D01*
X104100495Y-125301204D01*
X104124999Y-125300000D01*
X104775001Y-125300000D01*
X104799505Y-125301204D01*
X104799505Y-125301204D01*
G37*
D11*
X104450000Y-126000000D03*
D10*
G36*
X95874505Y-125301204D02*
G01*
X95898773Y-125304804D01*
X95922572Y-125310765D01*
X95945671Y-125319030D01*
X95967850Y-125329520D01*
X95988893Y-125342132D01*
X96008599Y-125356747D01*
X96026777Y-125373223D01*
X96043253Y-125391401D01*
X96057868Y-125411107D01*
X96070480Y-125432150D01*
X96080970Y-125454329D01*
X96089235Y-125477428D01*
X96095196Y-125501227D01*
X96098796Y-125525495D01*
X96100000Y-125549999D01*
X96100000Y-126450001D01*
X96098796Y-126474505D01*
X96095196Y-126498773D01*
X96089235Y-126522572D01*
X96080970Y-126545671D01*
X96070480Y-126567850D01*
X96057868Y-126588893D01*
X96043253Y-126608599D01*
X96026777Y-126626777D01*
X96008599Y-126643253D01*
X95988893Y-126657868D01*
X95967850Y-126670480D01*
X95945671Y-126680970D01*
X95922572Y-126689235D01*
X95898773Y-126695196D01*
X95874505Y-126698796D01*
X95850001Y-126700000D01*
X95199999Y-126700000D01*
X95175495Y-126698796D01*
X95151227Y-126695196D01*
X95127428Y-126689235D01*
X95104329Y-126680970D01*
X95082150Y-126670480D01*
X95061107Y-126657868D01*
X95041401Y-126643253D01*
X95023223Y-126626777D01*
X95006747Y-126608599D01*
X94992132Y-126588893D01*
X94979520Y-126567850D01*
X94969030Y-126545671D01*
X94960765Y-126522572D01*
X94954804Y-126498773D01*
X94951204Y-126474505D01*
X94950000Y-126450001D01*
X94950000Y-125549999D01*
X94951204Y-125525495D01*
X94954804Y-125501227D01*
X94960765Y-125477428D01*
X94969030Y-125454329D01*
X94979520Y-125432150D01*
X94992132Y-125411107D01*
X95006747Y-125391401D01*
X95023223Y-125373223D01*
X95041401Y-125356747D01*
X95061107Y-125342132D01*
X95082150Y-125329520D01*
X95104329Y-125319030D01*
X95127428Y-125310765D01*
X95151227Y-125304804D01*
X95175495Y-125301204D01*
X95199999Y-125300000D01*
X95850001Y-125300000D01*
X95874505Y-125301204D01*
X95874505Y-125301204D01*
G37*
D11*
X95525000Y-126000000D03*
D10*
G36*
X93824505Y-125301204D02*
G01*
X93848773Y-125304804D01*
X93872572Y-125310765D01*
X93895671Y-125319030D01*
X93917850Y-125329520D01*
X93938893Y-125342132D01*
X93958599Y-125356747D01*
X93976777Y-125373223D01*
X93993253Y-125391401D01*
X94007868Y-125411107D01*
X94020480Y-125432150D01*
X94030970Y-125454329D01*
X94039235Y-125477428D01*
X94045196Y-125501227D01*
X94048796Y-125525495D01*
X94050000Y-125549999D01*
X94050000Y-126450001D01*
X94048796Y-126474505D01*
X94045196Y-126498773D01*
X94039235Y-126522572D01*
X94030970Y-126545671D01*
X94020480Y-126567850D01*
X94007868Y-126588893D01*
X93993253Y-126608599D01*
X93976777Y-126626777D01*
X93958599Y-126643253D01*
X93938893Y-126657868D01*
X93917850Y-126670480D01*
X93895671Y-126680970D01*
X93872572Y-126689235D01*
X93848773Y-126695196D01*
X93824505Y-126698796D01*
X93800001Y-126700000D01*
X93149999Y-126700000D01*
X93125495Y-126698796D01*
X93101227Y-126695196D01*
X93077428Y-126689235D01*
X93054329Y-126680970D01*
X93032150Y-126670480D01*
X93011107Y-126657868D01*
X92991401Y-126643253D01*
X92973223Y-126626777D01*
X92956747Y-126608599D01*
X92942132Y-126588893D01*
X92929520Y-126567850D01*
X92919030Y-126545671D01*
X92910765Y-126522572D01*
X92904804Y-126498773D01*
X92901204Y-126474505D01*
X92900000Y-126450001D01*
X92900000Y-125549999D01*
X92901204Y-125525495D01*
X92904804Y-125501227D01*
X92910765Y-125477428D01*
X92919030Y-125454329D01*
X92929520Y-125432150D01*
X92942132Y-125411107D01*
X92956747Y-125391401D01*
X92973223Y-125373223D01*
X92991401Y-125356747D01*
X93011107Y-125342132D01*
X93032150Y-125329520D01*
X93054329Y-125319030D01*
X93077428Y-125310765D01*
X93101227Y-125304804D01*
X93125495Y-125301204D01*
X93149999Y-125300000D01*
X93800001Y-125300000D01*
X93824505Y-125301204D01*
X93824505Y-125301204D01*
G37*
D11*
X93475000Y-126000000D03*
D10*
G36*
X84874505Y-125301204D02*
G01*
X84898773Y-125304804D01*
X84922572Y-125310765D01*
X84945671Y-125319030D01*
X84967850Y-125329520D01*
X84988893Y-125342132D01*
X85008599Y-125356747D01*
X85026777Y-125373223D01*
X85043253Y-125391401D01*
X85057868Y-125411107D01*
X85070480Y-125432150D01*
X85080970Y-125454329D01*
X85089235Y-125477428D01*
X85095196Y-125501227D01*
X85098796Y-125525495D01*
X85100000Y-125549999D01*
X85100000Y-126450001D01*
X85098796Y-126474505D01*
X85095196Y-126498773D01*
X85089235Y-126522572D01*
X85080970Y-126545671D01*
X85070480Y-126567850D01*
X85057868Y-126588893D01*
X85043253Y-126608599D01*
X85026777Y-126626777D01*
X85008599Y-126643253D01*
X84988893Y-126657868D01*
X84967850Y-126670480D01*
X84945671Y-126680970D01*
X84922572Y-126689235D01*
X84898773Y-126695196D01*
X84874505Y-126698796D01*
X84850001Y-126700000D01*
X84199999Y-126700000D01*
X84175495Y-126698796D01*
X84151227Y-126695196D01*
X84127428Y-126689235D01*
X84104329Y-126680970D01*
X84082150Y-126670480D01*
X84061107Y-126657868D01*
X84041401Y-126643253D01*
X84023223Y-126626777D01*
X84006747Y-126608599D01*
X83992132Y-126588893D01*
X83979520Y-126567850D01*
X83969030Y-126545671D01*
X83960765Y-126522572D01*
X83954804Y-126498773D01*
X83951204Y-126474505D01*
X83950000Y-126450001D01*
X83950000Y-125549999D01*
X83951204Y-125525495D01*
X83954804Y-125501227D01*
X83960765Y-125477428D01*
X83969030Y-125454329D01*
X83979520Y-125432150D01*
X83992132Y-125411107D01*
X84006747Y-125391401D01*
X84023223Y-125373223D01*
X84041401Y-125356747D01*
X84061107Y-125342132D01*
X84082150Y-125329520D01*
X84104329Y-125319030D01*
X84127428Y-125310765D01*
X84151227Y-125304804D01*
X84175495Y-125301204D01*
X84199999Y-125300000D01*
X84850001Y-125300000D01*
X84874505Y-125301204D01*
X84874505Y-125301204D01*
G37*
D11*
X84525000Y-126000000D03*
D10*
G36*
X82824505Y-125301204D02*
G01*
X82848773Y-125304804D01*
X82872572Y-125310765D01*
X82895671Y-125319030D01*
X82917850Y-125329520D01*
X82938893Y-125342132D01*
X82958599Y-125356747D01*
X82976777Y-125373223D01*
X82993253Y-125391401D01*
X83007868Y-125411107D01*
X83020480Y-125432150D01*
X83030970Y-125454329D01*
X83039235Y-125477428D01*
X83045196Y-125501227D01*
X83048796Y-125525495D01*
X83050000Y-125549999D01*
X83050000Y-126450001D01*
X83048796Y-126474505D01*
X83045196Y-126498773D01*
X83039235Y-126522572D01*
X83030970Y-126545671D01*
X83020480Y-126567850D01*
X83007868Y-126588893D01*
X82993253Y-126608599D01*
X82976777Y-126626777D01*
X82958599Y-126643253D01*
X82938893Y-126657868D01*
X82917850Y-126670480D01*
X82895671Y-126680970D01*
X82872572Y-126689235D01*
X82848773Y-126695196D01*
X82824505Y-126698796D01*
X82800001Y-126700000D01*
X82149999Y-126700000D01*
X82125495Y-126698796D01*
X82101227Y-126695196D01*
X82077428Y-126689235D01*
X82054329Y-126680970D01*
X82032150Y-126670480D01*
X82011107Y-126657868D01*
X81991401Y-126643253D01*
X81973223Y-126626777D01*
X81956747Y-126608599D01*
X81942132Y-126588893D01*
X81929520Y-126567850D01*
X81919030Y-126545671D01*
X81910765Y-126522572D01*
X81904804Y-126498773D01*
X81901204Y-126474505D01*
X81900000Y-126450001D01*
X81900000Y-125549999D01*
X81901204Y-125525495D01*
X81904804Y-125501227D01*
X81910765Y-125477428D01*
X81919030Y-125454329D01*
X81929520Y-125432150D01*
X81942132Y-125411107D01*
X81956747Y-125391401D01*
X81973223Y-125373223D01*
X81991401Y-125356747D01*
X82011107Y-125342132D01*
X82032150Y-125329520D01*
X82054329Y-125319030D01*
X82077428Y-125310765D01*
X82101227Y-125304804D01*
X82125495Y-125301204D01*
X82149999Y-125300000D01*
X82800001Y-125300000D01*
X82824505Y-125301204D01*
X82824505Y-125301204D01*
G37*
D11*
X82475000Y-126000000D03*
D10*
G36*
X73849505Y-125301204D02*
G01*
X73873773Y-125304804D01*
X73897572Y-125310765D01*
X73920671Y-125319030D01*
X73942850Y-125329520D01*
X73963893Y-125342132D01*
X73983599Y-125356747D01*
X74001777Y-125373223D01*
X74018253Y-125391401D01*
X74032868Y-125411107D01*
X74045480Y-125432150D01*
X74055970Y-125454329D01*
X74064235Y-125477428D01*
X74070196Y-125501227D01*
X74073796Y-125525495D01*
X74075000Y-125549999D01*
X74075000Y-126450001D01*
X74073796Y-126474505D01*
X74070196Y-126498773D01*
X74064235Y-126522572D01*
X74055970Y-126545671D01*
X74045480Y-126567850D01*
X74032868Y-126588893D01*
X74018253Y-126608599D01*
X74001777Y-126626777D01*
X73983599Y-126643253D01*
X73963893Y-126657868D01*
X73942850Y-126670480D01*
X73920671Y-126680970D01*
X73897572Y-126689235D01*
X73873773Y-126695196D01*
X73849505Y-126698796D01*
X73825001Y-126700000D01*
X73174999Y-126700000D01*
X73150495Y-126698796D01*
X73126227Y-126695196D01*
X73102428Y-126689235D01*
X73079329Y-126680970D01*
X73057150Y-126670480D01*
X73036107Y-126657868D01*
X73016401Y-126643253D01*
X72998223Y-126626777D01*
X72981747Y-126608599D01*
X72967132Y-126588893D01*
X72954520Y-126567850D01*
X72944030Y-126545671D01*
X72935765Y-126522572D01*
X72929804Y-126498773D01*
X72926204Y-126474505D01*
X72925000Y-126450001D01*
X72925000Y-125549999D01*
X72926204Y-125525495D01*
X72929804Y-125501227D01*
X72935765Y-125477428D01*
X72944030Y-125454329D01*
X72954520Y-125432150D01*
X72967132Y-125411107D01*
X72981747Y-125391401D01*
X72998223Y-125373223D01*
X73016401Y-125356747D01*
X73036107Y-125342132D01*
X73057150Y-125329520D01*
X73079329Y-125319030D01*
X73102428Y-125310765D01*
X73126227Y-125304804D01*
X73150495Y-125301204D01*
X73174999Y-125300000D01*
X73825001Y-125300000D01*
X73849505Y-125301204D01*
X73849505Y-125301204D01*
G37*
D11*
X73500000Y-126000000D03*
D10*
G36*
X71799505Y-125301204D02*
G01*
X71823773Y-125304804D01*
X71847572Y-125310765D01*
X71870671Y-125319030D01*
X71892850Y-125329520D01*
X71913893Y-125342132D01*
X71933599Y-125356747D01*
X71951777Y-125373223D01*
X71968253Y-125391401D01*
X71982868Y-125411107D01*
X71995480Y-125432150D01*
X72005970Y-125454329D01*
X72014235Y-125477428D01*
X72020196Y-125501227D01*
X72023796Y-125525495D01*
X72025000Y-125549999D01*
X72025000Y-126450001D01*
X72023796Y-126474505D01*
X72020196Y-126498773D01*
X72014235Y-126522572D01*
X72005970Y-126545671D01*
X71995480Y-126567850D01*
X71982868Y-126588893D01*
X71968253Y-126608599D01*
X71951777Y-126626777D01*
X71933599Y-126643253D01*
X71913893Y-126657868D01*
X71892850Y-126670480D01*
X71870671Y-126680970D01*
X71847572Y-126689235D01*
X71823773Y-126695196D01*
X71799505Y-126698796D01*
X71775001Y-126700000D01*
X71124999Y-126700000D01*
X71100495Y-126698796D01*
X71076227Y-126695196D01*
X71052428Y-126689235D01*
X71029329Y-126680970D01*
X71007150Y-126670480D01*
X70986107Y-126657868D01*
X70966401Y-126643253D01*
X70948223Y-126626777D01*
X70931747Y-126608599D01*
X70917132Y-126588893D01*
X70904520Y-126567850D01*
X70894030Y-126545671D01*
X70885765Y-126522572D01*
X70879804Y-126498773D01*
X70876204Y-126474505D01*
X70875000Y-126450001D01*
X70875000Y-125549999D01*
X70876204Y-125525495D01*
X70879804Y-125501227D01*
X70885765Y-125477428D01*
X70894030Y-125454329D01*
X70904520Y-125432150D01*
X70917132Y-125411107D01*
X70931747Y-125391401D01*
X70948223Y-125373223D01*
X70966401Y-125356747D01*
X70986107Y-125342132D01*
X71007150Y-125329520D01*
X71029329Y-125319030D01*
X71052428Y-125310765D01*
X71076227Y-125304804D01*
X71100495Y-125301204D01*
X71124999Y-125300000D01*
X71775001Y-125300000D01*
X71799505Y-125301204D01*
X71799505Y-125301204D01*
G37*
D11*
X71450000Y-126000000D03*
D10*
G36*
X62874505Y-125301204D02*
G01*
X62898773Y-125304804D01*
X62922572Y-125310765D01*
X62945671Y-125319030D01*
X62967850Y-125329520D01*
X62988893Y-125342132D01*
X63008599Y-125356747D01*
X63026777Y-125373223D01*
X63043253Y-125391401D01*
X63057868Y-125411107D01*
X63070480Y-125432150D01*
X63080970Y-125454329D01*
X63089235Y-125477428D01*
X63095196Y-125501227D01*
X63098796Y-125525495D01*
X63100000Y-125549999D01*
X63100000Y-126450001D01*
X63098796Y-126474505D01*
X63095196Y-126498773D01*
X63089235Y-126522572D01*
X63080970Y-126545671D01*
X63070480Y-126567850D01*
X63057868Y-126588893D01*
X63043253Y-126608599D01*
X63026777Y-126626777D01*
X63008599Y-126643253D01*
X62988893Y-126657868D01*
X62967850Y-126670480D01*
X62945671Y-126680970D01*
X62922572Y-126689235D01*
X62898773Y-126695196D01*
X62874505Y-126698796D01*
X62850001Y-126700000D01*
X62199999Y-126700000D01*
X62175495Y-126698796D01*
X62151227Y-126695196D01*
X62127428Y-126689235D01*
X62104329Y-126680970D01*
X62082150Y-126670480D01*
X62061107Y-126657868D01*
X62041401Y-126643253D01*
X62023223Y-126626777D01*
X62006747Y-126608599D01*
X61992132Y-126588893D01*
X61979520Y-126567850D01*
X61969030Y-126545671D01*
X61960765Y-126522572D01*
X61954804Y-126498773D01*
X61951204Y-126474505D01*
X61950000Y-126450001D01*
X61950000Y-125549999D01*
X61951204Y-125525495D01*
X61954804Y-125501227D01*
X61960765Y-125477428D01*
X61969030Y-125454329D01*
X61979520Y-125432150D01*
X61992132Y-125411107D01*
X62006747Y-125391401D01*
X62023223Y-125373223D01*
X62041401Y-125356747D01*
X62061107Y-125342132D01*
X62082150Y-125329520D01*
X62104329Y-125319030D01*
X62127428Y-125310765D01*
X62151227Y-125304804D01*
X62175495Y-125301204D01*
X62199999Y-125300000D01*
X62850001Y-125300000D01*
X62874505Y-125301204D01*
X62874505Y-125301204D01*
G37*
D11*
X62525000Y-126000000D03*
D10*
G36*
X60824505Y-125301204D02*
G01*
X60848773Y-125304804D01*
X60872572Y-125310765D01*
X60895671Y-125319030D01*
X60917850Y-125329520D01*
X60938893Y-125342132D01*
X60958599Y-125356747D01*
X60976777Y-125373223D01*
X60993253Y-125391401D01*
X61007868Y-125411107D01*
X61020480Y-125432150D01*
X61030970Y-125454329D01*
X61039235Y-125477428D01*
X61045196Y-125501227D01*
X61048796Y-125525495D01*
X61050000Y-125549999D01*
X61050000Y-126450001D01*
X61048796Y-126474505D01*
X61045196Y-126498773D01*
X61039235Y-126522572D01*
X61030970Y-126545671D01*
X61020480Y-126567850D01*
X61007868Y-126588893D01*
X60993253Y-126608599D01*
X60976777Y-126626777D01*
X60958599Y-126643253D01*
X60938893Y-126657868D01*
X60917850Y-126670480D01*
X60895671Y-126680970D01*
X60872572Y-126689235D01*
X60848773Y-126695196D01*
X60824505Y-126698796D01*
X60800001Y-126700000D01*
X60149999Y-126700000D01*
X60125495Y-126698796D01*
X60101227Y-126695196D01*
X60077428Y-126689235D01*
X60054329Y-126680970D01*
X60032150Y-126670480D01*
X60011107Y-126657868D01*
X59991401Y-126643253D01*
X59973223Y-126626777D01*
X59956747Y-126608599D01*
X59942132Y-126588893D01*
X59929520Y-126567850D01*
X59919030Y-126545671D01*
X59910765Y-126522572D01*
X59904804Y-126498773D01*
X59901204Y-126474505D01*
X59900000Y-126450001D01*
X59900000Y-125549999D01*
X59901204Y-125525495D01*
X59904804Y-125501227D01*
X59910765Y-125477428D01*
X59919030Y-125454329D01*
X59929520Y-125432150D01*
X59942132Y-125411107D01*
X59956747Y-125391401D01*
X59973223Y-125373223D01*
X59991401Y-125356747D01*
X60011107Y-125342132D01*
X60032150Y-125329520D01*
X60054329Y-125319030D01*
X60077428Y-125310765D01*
X60101227Y-125304804D01*
X60125495Y-125301204D01*
X60149999Y-125300000D01*
X60800001Y-125300000D01*
X60824505Y-125301204D01*
X60824505Y-125301204D01*
G37*
D11*
X60475000Y-126000000D03*
D10*
G36*
X51874505Y-125301204D02*
G01*
X51898773Y-125304804D01*
X51922572Y-125310765D01*
X51945671Y-125319030D01*
X51967850Y-125329520D01*
X51988893Y-125342132D01*
X52008599Y-125356747D01*
X52026777Y-125373223D01*
X52043253Y-125391401D01*
X52057868Y-125411107D01*
X52070480Y-125432150D01*
X52080970Y-125454329D01*
X52089235Y-125477428D01*
X52095196Y-125501227D01*
X52098796Y-125525495D01*
X52100000Y-125549999D01*
X52100000Y-126450001D01*
X52098796Y-126474505D01*
X52095196Y-126498773D01*
X52089235Y-126522572D01*
X52080970Y-126545671D01*
X52070480Y-126567850D01*
X52057868Y-126588893D01*
X52043253Y-126608599D01*
X52026777Y-126626777D01*
X52008599Y-126643253D01*
X51988893Y-126657868D01*
X51967850Y-126670480D01*
X51945671Y-126680970D01*
X51922572Y-126689235D01*
X51898773Y-126695196D01*
X51874505Y-126698796D01*
X51850001Y-126700000D01*
X51199999Y-126700000D01*
X51175495Y-126698796D01*
X51151227Y-126695196D01*
X51127428Y-126689235D01*
X51104329Y-126680970D01*
X51082150Y-126670480D01*
X51061107Y-126657868D01*
X51041401Y-126643253D01*
X51023223Y-126626777D01*
X51006747Y-126608599D01*
X50992132Y-126588893D01*
X50979520Y-126567850D01*
X50969030Y-126545671D01*
X50960765Y-126522572D01*
X50954804Y-126498773D01*
X50951204Y-126474505D01*
X50950000Y-126450001D01*
X50950000Y-125549999D01*
X50951204Y-125525495D01*
X50954804Y-125501227D01*
X50960765Y-125477428D01*
X50969030Y-125454329D01*
X50979520Y-125432150D01*
X50992132Y-125411107D01*
X51006747Y-125391401D01*
X51023223Y-125373223D01*
X51041401Y-125356747D01*
X51061107Y-125342132D01*
X51082150Y-125329520D01*
X51104329Y-125319030D01*
X51127428Y-125310765D01*
X51151227Y-125304804D01*
X51175495Y-125301204D01*
X51199999Y-125300000D01*
X51850001Y-125300000D01*
X51874505Y-125301204D01*
X51874505Y-125301204D01*
G37*
D11*
X51525000Y-126000000D03*
D10*
G36*
X49824505Y-125301204D02*
G01*
X49848773Y-125304804D01*
X49872572Y-125310765D01*
X49895671Y-125319030D01*
X49917850Y-125329520D01*
X49938893Y-125342132D01*
X49958599Y-125356747D01*
X49976777Y-125373223D01*
X49993253Y-125391401D01*
X50007868Y-125411107D01*
X50020480Y-125432150D01*
X50030970Y-125454329D01*
X50039235Y-125477428D01*
X50045196Y-125501227D01*
X50048796Y-125525495D01*
X50050000Y-125549999D01*
X50050000Y-126450001D01*
X50048796Y-126474505D01*
X50045196Y-126498773D01*
X50039235Y-126522572D01*
X50030970Y-126545671D01*
X50020480Y-126567850D01*
X50007868Y-126588893D01*
X49993253Y-126608599D01*
X49976777Y-126626777D01*
X49958599Y-126643253D01*
X49938893Y-126657868D01*
X49917850Y-126670480D01*
X49895671Y-126680970D01*
X49872572Y-126689235D01*
X49848773Y-126695196D01*
X49824505Y-126698796D01*
X49800001Y-126700000D01*
X49149999Y-126700000D01*
X49125495Y-126698796D01*
X49101227Y-126695196D01*
X49077428Y-126689235D01*
X49054329Y-126680970D01*
X49032150Y-126670480D01*
X49011107Y-126657868D01*
X48991401Y-126643253D01*
X48973223Y-126626777D01*
X48956747Y-126608599D01*
X48942132Y-126588893D01*
X48929520Y-126567850D01*
X48919030Y-126545671D01*
X48910765Y-126522572D01*
X48904804Y-126498773D01*
X48901204Y-126474505D01*
X48900000Y-126450001D01*
X48900000Y-125549999D01*
X48901204Y-125525495D01*
X48904804Y-125501227D01*
X48910765Y-125477428D01*
X48919030Y-125454329D01*
X48929520Y-125432150D01*
X48942132Y-125411107D01*
X48956747Y-125391401D01*
X48973223Y-125373223D01*
X48991401Y-125356747D01*
X49011107Y-125342132D01*
X49032150Y-125329520D01*
X49054329Y-125319030D01*
X49077428Y-125310765D01*
X49101227Y-125304804D01*
X49125495Y-125301204D01*
X49149999Y-125300000D01*
X49800001Y-125300000D01*
X49824505Y-125301204D01*
X49824505Y-125301204D01*
G37*
D11*
X49475000Y-126000000D03*
D10*
G36*
X40874505Y-125301204D02*
G01*
X40898773Y-125304804D01*
X40922572Y-125310765D01*
X40945671Y-125319030D01*
X40967850Y-125329520D01*
X40988893Y-125342132D01*
X41008599Y-125356747D01*
X41026777Y-125373223D01*
X41043253Y-125391401D01*
X41057868Y-125411107D01*
X41070480Y-125432150D01*
X41080970Y-125454329D01*
X41089235Y-125477428D01*
X41095196Y-125501227D01*
X41098796Y-125525495D01*
X41100000Y-125549999D01*
X41100000Y-126450001D01*
X41098796Y-126474505D01*
X41095196Y-126498773D01*
X41089235Y-126522572D01*
X41080970Y-126545671D01*
X41070480Y-126567850D01*
X41057868Y-126588893D01*
X41043253Y-126608599D01*
X41026777Y-126626777D01*
X41008599Y-126643253D01*
X40988893Y-126657868D01*
X40967850Y-126670480D01*
X40945671Y-126680970D01*
X40922572Y-126689235D01*
X40898773Y-126695196D01*
X40874505Y-126698796D01*
X40850001Y-126700000D01*
X40199999Y-126700000D01*
X40175495Y-126698796D01*
X40151227Y-126695196D01*
X40127428Y-126689235D01*
X40104329Y-126680970D01*
X40082150Y-126670480D01*
X40061107Y-126657868D01*
X40041401Y-126643253D01*
X40023223Y-126626777D01*
X40006747Y-126608599D01*
X39992132Y-126588893D01*
X39979520Y-126567850D01*
X39969030Y-126545671D01*
X39960765Y-126522572D01*
X39954804Y-126498773D01*
X39951204Y-126474505D01*
X39950000Y-126450001D01*
X39950000Y-125549999D01*
X39951204Y-125525495D01*
X39954804Y-125501227D01*
X39960765Y-125477428D01*
X39969030Y-125454329D01*
X39979520Y-125432150D01*
X39992132Y-125411107D01*
X40006747Y-125391401D01*
X40023223Y-125373223D01*
X40041401Y-125356747D01*
X40061107Y-125342132D01*
X40082150Y-125329520D01*
X40104329Y-125319030D01*
X40127428Y-125310765D01*
X40151227Y-125304804D01*
X40175495Y-125301204D01*
X40199999Y-125300000D01*
X40850001Y-125300000D01*
X40874505Y-125301204D01*
X40874505Y-125301204D01*
G37*
D11*
X40525000Y-126000000D03*
D10*
G36*
X38824505Y-125301204D02*
G01*
X38848773Y-125304804D01*
X38872572Y-125310765D01*
X38895671Y-125319030D01*
X38917850Y-125329520D01*
X38938893Y-125342132D01*
X38958599Y-125356747D01*
X38976777Y-125373223D01*
X38993253Y-125391401D01*
X39007868Y-125411107D01*
X39020480Y-125432150D01*
X39030970Y-125454329D01*
X39039235Y-125477428D01*
X39045196Y-125501227D01*
X39048796Y-125525495D01*
X39050000Y-125549999D01*
X39050000Y-126450001D01*
X39048796Y-126474505D01*
X39045196Y-126498773D01*
X39039235Y-126522572D01*
X39030970Y-126545671D01*
X39020480Y-126567850D01*
X39007868Y-126588893D01*
X38993253Y-126608599D01*
X38976777Y-126626777D01*
X38958599Y-126643253D01*
X38938893Y-126657868D01*
X38917850Y-126670480D01*
X38895671Y-126680970D01*
X38872572Y-126689235D01*
X38848773Y-126695196D01*
X38824505Y-126698796D01*
X38800001Y-126700000D01*
X38149999Y-126700000D01*
X38125495Y-126698796D01*
X38101227Y-126695196D01*
X38077428Y-126689235D01*
X38054329Y-126680970D01*
X38032150Y-126670480D01*
X38011107Y-126657868D01*
X37991401Y-126643253D01*
X37973223Y-126626777D01*
X37956747Y-126608599D01*
X37942132Y-126588893D01*
X37929520Y-126567850D01*
X37919030Y-126545671D01*
X37910765Y-126522572D01*
X37904804Y-126498773D01*
X37901204Y-126474505D01*
X37900000Y-126450001D01*
X37900000Y-125549999D01*
X37901204Y-125525495D01*
X37904804Y-125501227D01*
X37910765Y-125477428D01*
X37919030Y-125454329D01*
X37929520Y-125432150D01*
X37942132Y-125411107D01*
X37956747Y-125391401D01*
X37973223Y-125373223D01*
X37991401Y-125356747D01*
X38011107Y-125342132D01*
X38032150Y-125329520D01*
X38054329Y-125319030D01*
X38077428Y-125310765D01*
X38101227Y-125304804D01*
X38125495Y-125301204D01*
X38149999Y-125300000D01*
X38800001Y-125300000D01*
X38824505Y-125301204D01*
X38824505Y-125301204D01*
G37*
D11*
X38475000Y-126000000D03*
D10*
G36*
X29874505Y-125301204D02*
G01*
X29898773Y-125304804D01*
X29922572Y-125310765D01*
X29945671Y-125319030D01*
X29967850Y-125329520D01*
X29988893Y-125342132D01*
X30008599Y-125356747D01*
X30026777Y-125373223D01*
X30043253Y-125391401D01*
X30057868Y-125411107D01*
X30070480Y-125432150D01*
X30080970Y-125454329D01*
X30089235Y-125477428D01*
X30095196Y-125501227D01*
X30098796Y-125525495D01*
X30100000Y-125549999D01*
X30100000Y-126450001D01*
X30098796Y-126474505D01*
X30095196Y-126498773D01*
X30089235Y-126522572D01*
X30080970Y-126545671D01*
X30070480Y-126567850D01*
X30057868Y-126588893D01*
X30043253Y-126608599D01*
X30026777Y-126626777D01*
X30008599Y-126643253D01*
X29988893Y-126657868D01*
X29967850Y-126670480D01*
X29945671Y-126680970D01*
X29922572Y-126689235D01*
X29898773Y-126695196D01*
X29874505Y-126698796D01*
X29850001Y-126700000D01*
X29199999Y-126700000D01*
X29175495Y-126698796D01*
X29151227Y-126695196D01*
X29127428Y-126689235D01*
X29104329Y-126680970D01*
X29082150Y-126670480D01*
X29061107Y-126657868D01*
X29041401Y-126643253D01*
X29023223Y-126626777D01*
X29006747Y-126608599D01*
X28992132Y-126588893D01*
X28979520Y-126567850D01*
X28969030Y-126545671D01*
X28960765Y-126522572D01*
X28954804Y-126498773D01*
X28951204Y-126474505D01*
X28950000Y-126450001D01*
X28950000Y-125549999D01*
X28951204Y-125525495D01*
X28954804Y-125501227D01*
X28960765Y-125477428D01*
X28969030Y-125454329D01*
X28979520Y-125432150D01*
X28992132Y-125411107D01*
X29006747Y-125391401D01*
X29023223Y-125373223D01*
X29041401Y-125356747D01*
X29061107Y-125342132D01*
X29082150Y-125329520D01*
X29104329Y-125319030D01*
X29127428Y-125310765D01*
X29151227Y-125304804D01*
X29175495Y-125301204D01*
X29199999Y-125300000D01*
X29850001Y-125300000D01*
X29874505Y-125301204D01*
X29874505Y-125301204D01*
G37*
D11*
X29525000Y-126000000D03*
D10*
G36*
X27824505Y-125301204D02*
G01*
X27848773Y-125304804D01*
X27872572Y-125310765D01*
X27895671Y-125319030D01*
X27917850Y-125329520D01*
X27938893Y-125342132D01*
X27958599Y-125356747D01*
X27976777Y-125373223D01*
X27993253Y-125391401D01*
X28007868Y-125411107D01*
X28020480Y-125432150D01*
X28030970Y-125454329D01*
X28039235Y-125477428D01*
X28045196Y-125501227D01*
X28048796Y-125525495D01*
X28050000Y-125549999D01*
X28050000Y-126450001D01*
X28048796Y-126474505D01*
X28045196Y-126498773D01*
X28039235Y-126522572D01*
X28030970Y-126545671D01*
X28020480Y-126567850D01*
X28007868Y-126588893D01*
X27993253Y-126608599D01*
X27976777Y-126626777D01*
X27958599Y-126643253D01*
X27938893Y-126657868D01*
X27917850Y-126670480D01*
X27895671Y-126680970D01*
X27872572Y-126689235D01*
X27848773Y-126695196D01*
X27824505Y-126698796D01*
X27800001Y-126700000D01*
X27149999Y-126700000D01*
X27125495Y-126698796D01*
X27101227Y-126695196D01*
X27077428Y-126689235D01*
X27054329Y-126680970D01*
X27032150Y-126670480D01*
X27011107Y-126657868D01*
X26991401Y-126643253D01*
X26973223Y-126626777D01*
X26956747Y-126608599D01*
X26942132Y-126588893D01*
X26929520Y-126567850D01*
X26919030Y-126545671D01*
X26910765Y-126522572D01*
X26904804Y-126498773D01*
X26901204Y-126474505D01*
X26900000Y-126450001D01*
X26900000Y-125549999D01*
X26901204Y-125525495D01*
X26904804Y-125501227D01*
X26910765Y-125477428D01*
X26919030Y-125454329D01*
X26929520Y-125432150D01*
X26942132Y-125411107D01*
X26956747Y-125391401D01*
X26973223Y-125373223D01*
X26991401Y-125356747D01*
X27011107Y-125342132D01*
X27032150Y-125329520D01*
X27054329Y-125319030D01*
X27077428Y-125310765D01*
X27101227Y-125304804D01*
X27125495Y-125301204D01*
X27149999Y-125300000D01*
X27800001Y-125300000D01*
X27824505Y-125301204D01*
X27824505Y-125301204D01*
G37*
D11*
X27475000Y-126000000D03*
D10*
G36*
X118474504Y-128626204D02*
G01*
X118498773Y-128629804D01*
X118522571Y-128635765D01*
X118545671Y-128644030D01*
X118567849Y-128654520D01*
X118588893Y-128667133D01*
X118608598Y-128681747D01*
X118626777Y-128698223D01*
X118643253Y-128716402D01*
X118657867Y-128736107D01*
X118670480Y-128757151D01*
X118680970Y-128779329D01*
X118689235Y-128802429D01*
X118695196Y-128826227D01*
X118698796Y-128850496D01*
X118700000Y-128875000D01*
X118700000Y-130125000D01*
X118698796Y-130149504D01*
X118695196Y-130173773D01*
X118689235Y-130197571D01*
X118680970Y-130220671D01*
X118670480Y-130242849D01*
X118657867Y-130263893D01*
X118643253Y-130283598D01*
X118626777Y-130301777D01*
X118608598Y-130318253D01*
X118588893Y-130332867D01*
X118567849Y-130345480D01*
X118545671Y-130355970D01*
X118522571Y-130364235D01*
X118498773Y-130370196D01*
X118474504Y-130373796D01*
X118450000Y-130375000D01*
X117525000Y-130375000D01*
X117500496Y-130373796D01*
X117476227Y-130370196D01*
X117452429Y-130364235D01*
X117429329Y-130355970D01*
X117407151Y-130345480D01*
X117386107Y-130332867D01*
X117366402Y-130318253D01*
X117348223Y-130301777D01*
X117331747Y-130283598D01*
X117317133Y-130263893D01*
X117304520Y-130242849D01*
X117294030Y-130220671D01*
X117285765Y-130197571D01*
X117279804Y-130173773D01*
X117276204Y-130149504D01*
X117275000Y-130125000D01*
X117275000Y-128875000D01*
X117276204Y-128850496D01*
X117279804Y-128826227D01*
X117285765Y-128802429D01*
X117294030Y-128779329D01*
X117304520Y-128757151D01*
X117317133Y-128736107D01*
X117331747Y-128716402D01*
X117348223Y-128698223D01*
X117366402Y-128681747D01*
X117386107Y-128667133D01*
X117407151Y-128654520D01*
X117429329Y-128644030D01*
X117452429Y-128635765D01*
X117476227Y-128629804D01*
X117500496Y-128626204D01*
X117525000Y-128625000D01*
X118450000Y-128625000D01*
X118474504Y-128626204D01*
X118474504Y-128626204D01*
G37*
D12*
X117987500Y-129500000D03*
D10*
G36*
X115499504Y-128626204D02*
G01*
X115523773Y-128629804D01*
X115547571Y-128635765D01*
X115570671Y-128644030D01*
X115592849Y-128654520D01*
X115613893Y-128667133D01*
X115633598Y-128681747D01*
X115651777Y-128698223D01*
X115668253Y-128716402D01*
X115682867Y-128736107D01*
X115695480Y-128757151D01*
X115705970Y-128779329D01*
X115714235Y-128802429D01*
X115720196Y-128826227D01*
X115723796Y-128850496D01*
X115725000Y-128875000D01*
X115725000Y-130125000D01*
X115723796Y-130149504D01*
X115720196Y-130173773D01*
X115714235Y-130197571D01*
X115705970Y-130220671D01*
X115695480Y-130242849D01*
X115682867Y-130263893D01*
X115668253Y-130283598D01*
X115651777Y-130301777D01*
X115633598Y-130318253D01*
X115613893Y-130332867D01*
X115592849Y-130345480D01*
X115570671Y-130355970D01*
X115547571Y-130364235D01*
X115523773Y-130370196D01*
X115499504Y-130373796D01*
X115475000Y-130375000D01*
X114550000Y-130375000D01*
X114525496Y-130373796D01*
X114501227Y-130370196D01*
X114477429Y-130364235D01*
X114454329Y-130355970D01*
X114432151Y-130345480D01*
X114411107Y-130332867D01*
X114391402Y-130318253D01*
X114373223Y-130301777D01*
X114356747Y-130283598D01*
X114342133Y-130263893D01*
X114329520Y-130242849D01*
X114319030Y-130220671D01*
X114310765Y-130197571D01*
X114304804Y-130173773D01*
X114301204Y-130149504D01*
X114300000Y-130125000D01*
X114300000Y-128875000D01*
X114301204Y-128850496D01*
X114304804Y-128826227D01*
X114310765Y-128802429D01*
X114319030Y-128779329D01*
X114329520Y-128757151D01*
X114342133Y-128736107D01*
X114356747Y-128716402D01*
X114373223Y-128698223D01*
X114391402Y-128681747D01*
X114411107Y-128667133D01*
X114432151Y-128654520D01*
X114454329Y-128644030D01*
X114477429Y-128635765D01*
X114501227Y-128629804D01*
X114525496Y-128626204D01*
X114550000Y-128625000D01*
X115475000Y-128625000D01*
X115499504Y-128626204D01*
X115499504Y-128626204D01*
G37*
D12*
X115012500Y-129500000D03*
D10*
G36*
X118462004Y-132626204D02*
G01*
X118486273Y-132629804D01*
X118510071Y-132635765D01*
X118533171Y-132644030D01*
X118555349Y-132654520D01*
X118576393Y-132667133D01*
X118596098Y-132681747D01*
X118614277Y-132698223D01*
X118630753Y-132716402D01*
X118645367Y-132736107D01*
X118657980Y-132757151D01*
X118668470Y-132779329D01*
X118676735Y-132802429D01*
X118682696Y-132826227D01*
X118686296Y-132850496D01*
X118687500Y-132875000D01*
X118687500Y-134125000D01*
X118686296Y-134149504D01*
X118682696Y-134173773D01*
X118676735Y-134197571D01*
X118668470Y-134220671D01*
X118657980Y-134242849D01*
X118645367Y-134263893D01*
X118630753Y-134283598D01*
X118614277Y-134301777D01*
X118596098Y-134318253D01*
X118576393Y-134332867D01*
X118555349Y-134345480D01*
X118533171Y-134355970D01*
X118510071Y-134364235D01*
X118486273Y-134370196D01*
X118462004Y-134373796D01*
X118437500Y-134375000D01*
X117512500Y-134375000D01*
X117487996Y-134373796D01*
X117463727Y-134370196D01*
X117439929Y-134364235D01*
X117416829Y-134355970D01*
X117394651Y-134345480D01*
X117373607Y-134332867D01*
X117353902Y-134318253D01*
X117335723Y-134301777D01*
X117319247Y-134283598D01*
X117304633Y-134263893D01*
X117292020Y-134242849D01*
X117281530Y-134220671D01*
X117273265Y-134197571D01*
X117267304Y-134173773D01*
X117263704Y-134149504D01*
X117262500Y-134125000D01*
X117262500Y-132875000D01*
X117263704Y-132850496D01*
X117267304Y-132826227D01*
X117273265Y-132802429D01*
X117281530Y-132779329D01*
X117292020Y-132757151D01*
X117304633Y-132736107D01*
X117319247Y-132716402D01*
X117335723Y-132698223D01*
X117353902Y-132681747D01*
X117373607Y-132667133D01*
X117394651Y-132654520D01*
X117416829Y-132644030D01*
X117439929Y-132635765D01*
X117463727Y-132629804D01*
X117487996Y-132626204D01*
X117512500Y-132625000D01*
X118437500Y-132625000D01*
X118462004Y-132626204D01*
X118462004Y-132626204D01*
G37*
D12*
X117975000Y-133500000D03*
D10*
G36*
X115487004Y-132626204D02*
G01*
X115511273Y-132629804D01*
X115535071Y-132635765D01*
X115558171Y-132644030D01*
X115580349Y-132654520D01*
X115601393Y-132667133D01*
X115621098Y-132681747D01*
X115639277Y-132698223D01*
X115655753Y-132716402D01*
X115670367Y-132736107D01*
X115682980Y-132757151D01*
X115693470Y-132779329D01*
X115701735Y-132802429D01*
X115707696Y-132826227D01*
X115711296Y-132850496D01*
X115712500Y-132875000D01*
X115712500Y-134125000D01*
X115711296Y-134149504D01*
X115707696Y-134173773D01*
X115701735Y-134197571D01*
X115693470Y-134220671D01*
X115682980Y-134242849D01*
X115670367Y-134263893D01*
X115655753Y-134283598D01*
X115639277Y-134301777D01*
X115621098Y-134318253D01*
X115601393Y-134332867D01*
X115580349Y-134345480D01*
X115558171Y-134355970D01*
X115535071Y-134364235D01*
X115511273Y-134370196D01*
X115487004Y-134373796D01*
X115462500Y-134375000D01*
X114537500Y-134375000D01*
X114512996Y-134373796D01*
X114488727Y-134370196D01*
X114464929Y-134364235D01*
X114441829Y-134355970D01*
X114419651Y-134345480D01*
X114398607Y-134332867D01*
X114378902Y-134318253D01*
X114360723Y-134301777D01*
X114344247Y-134283598D01*
X114329633Y-134263893D01*
X114317020Y-134242849D01*
X114306530Y-134220671D01*
X114298265Y-134197571D01*
X114292304Y-134173773D01*
X114288704Y-134149504D01*
X114287500Y-134125000D01*
X114287500Y-132875000D01*
X114288704Y-132850496D01*
X114292304Y-132826227D01*
X114298265Y-132802429D01*
X114306530Y-132779329D01*
X114317020Y-132757151D01*
X114329633Y-132736107D01*
X114344247Y-132716402D01*
X114360723Y-132698223D01*
X114378902Y-132681747D01*
X114398607Y-132667133D01*
X114419651Y-132654520D01*
X114441829Y-132644030D01*
X114464929Y-132635765D01*
X114488727Y-132629804D01*
X114512996Y-132626204D01*
X114537500Y-132625000D01*
X115462500Y-132625000D01*
X115487004Y-132626204D01*
X115487004Y-132626204D01*
G37*
D12*
X115000000Y-133500000D03*
D10*
G36*
X107474504Y-128626204D02*
G01*
X107498773Y-128629804D01*
X107522571Y-128635765D01*
X107545671Y-128644030D01*
X107567849Y-128654520D01*
X107588893Y-128667133D01*
X107608598Y-128681747D01*
X107626777Y-128698223D01*
X107643253Y-128716402D01*
X107657867Y-128736107D01*
X107670480Y-128757151D01*
X107680970Y-128779329D01*
X107689235Y-128802429D01*
X107695196Y-128826227D01*
X107698796Y-128850496D01*
X107700000Y-128875000D01*
X107700000Y-130125000D01*
X107698796Y-130149504D01*
X107695196Y-130173773D01*
X107689235Y-130197571D01*
X107680970Y-130220671D01*
X107670480Y-130242849D01*
X107657867Y-130263893D01*
X107643253Y-130283598D01*
X107626777Y-130301777D01*
X107608598Y-130318253D01*
X107588893Y-130332867D01*
X107567849Y-130345480D01*
X107545671Y-130355970D01*
X107522571Y-130364235D01*
X107498773Y-130370196D01*
X107474504Y-130373796D01*
X107450000Y-130375000D01*
X106525000Y-130375000D01*
X106500496Y-130373796D01*
X106476227Y-130370196D01*
X106452429Y-130364235D01*
X106429329Y-130355970D01*
X106407151Y-130345480D01*
X106386107Y-130332867D01*
X106366402Y-130318253D01*
X106348223Y-130301777D01*
X106331747Y-130283598D01*
X106317133Y-130263893D01*
X106304520Y-130242849D01*
X106294030Y-130220671D01*
X106285765Y-130197571D01*
X106279804Y-130173773D01*
X106276204Y-130149504D01*
X106275000Y-130125000D01*
X106275000Y-128875000D01*
X106276204Y-128850496D01*
X106279804Y-128826227D01*
X106285765Y-128802429D01*
X106294030Y-128779329D01*
X106304520Y-128757151D01*
X106317133Y-128736107D01*
X106331747Y-128716402D01*
X106348223Y-128698223D01*
X106366402Y-128681747D01*
X106386107Y-128667133D01*
X106407151Y-128654520D01*
X106429329Y-128644030D01*
X106452429Y-128635765D01*
X106476227Y-128629804D01*
X106500496Y-128626204D01*
X106525000Y-128625000D01*
X107450000Y-128625000D01*
X107474504Y-128626204D01*
X107474504Y-128626204D01*
G37*
D12*
X106987500Y-129500000D03*
D10*
G36*
X104499504Y-128626204D02*
G01*
X104523773Y-128629804D01*
X104547571Y-128635765D01*
X104570671Y-128644030D01*
X104592849Y-128654520D01*
X104613893Y-128667133D01*
X104633598Y-128681747D01*
X104651777Y-128698223D01*
X104668253Y-128716402D01*
X104682867Y-128736107D01*
X104695480Y-128757151D01*
X104705970Y-128779329D01*
X104714235Y-128802429D01*
X104720196Y-128826227D01*
X104723796Y-128850496D01*
X104725000Y-128875000D01*
X104725000Y-130125000D01*
X104723796Y-130149504D01*
X104720196Y-130173773D01*
X104714235Y-130197571D01*
X104705970Y-130220671D01*
X104695480Y-130242849D01*
X104682867Y-130263893D01*
X104668253Y-130283598D01*
X104651777Y-130301777D01*
X104633598Y-130318253D01*
X104613893Y-130332867D01*
X104592849Y-130345480D01*
X104570671Y-130355970D01*
X104547571Y-130364235D01*
X104523773Y-130370196D01*
X104499504Y-130373796D01*
X104475000Y-130375000D01*
X103550000Y-130375000D01*
X103525496Y-130373796D01*
X103501227Y-130370196D01*
X103477429Y-130364235D01*
X103454329Y-130355970D01*
X103432151Y-130345480D01*
X103411107Y-130332867D01*
X103391402Y-130318253D01*
X103373223Y-130301777D01*
X103356747Y-130283598D01*
X103342133Y-130263893D01*
X103329520Y-130242849D01*
X103319030Y-130220671D01*
X103310765Y-130197571D01*
X103304804Y-130173773D01*
X103301204Y-130149504D01*
X103300000Y-130125000D01*
X103300000Y-128875000D01*
X103301204Y-128850496D01*
X103304804Y-128826227D01*
X103310765Y-128802429D01*
X103319030Y-128779329D01*
X103329520Y-128757151D01*
X103342133Y-128736107D01*
X103356747Y-128716402D01*
X103373223Y-128698223D01*
X103391402Y-128681747D01*
X103411107Y-128667133D01*
X103432151Y-128654520D01*
X103454329Y-128644030D01*
X103477429Y-128635765D01*
X103501227Y-128629804D01*
X103525496Y-128626204D01*
X103550000Y-128625000D01*
X104475000Y-128625000D01*
X104499504Y-128626204D01*
X104499504Y-128626204D01*
G37*
D12*
X104012500Y-129500000D03*
D10*
G36*
X107474504Y-132626204D02*
G01*
X107498773Y-132629804D01*
X107522571Y-132635765D01*
X107545671Y-132644030D01*
X107567849Y-132654520D01*
X107588893Y-132667133D01*
X107608598Y-132681747D01*
X107626777Y-132698223D01*
X107643253Y-132716402D01*
X107657867Y-132736107D01*
X107670480Y-132757151D01*
X107680970Y-132779329D01*
X107689235Y-132802429D01*
X107695196Y-132826227D01*
X107698796Y-132850496D01*
X107700000Y-132875000D01*
X107700000Y-134125000D01*
X107698796Y-134149504D01*
X107695196Y-134173773D01*
X107689235Y-134197571D01*
X107680970Y-134220671D01*
X107670480Y-134242849D01*
X107657867Y-134263893D01*
X107643253Y-134283598D01*
X107626777Y-134301777D01*
X107608598Y-134318253D01*
X107588893Y-134332867D01*
X107567849Y-134345480D01*
X107545671Y-134355970D01*
X107522571Y-134364235D01*
X107498773Y-134370196D01*
X107474504Y-134373796D01*
X107450000Y-134375000D01*
X106525000Y-134375000D01*
X106500496Y-134373796D01*
X106476227Y-134370196D01*
X106452429Y-134364235D01*
X106429329Y-134355970D01*
X106407151Y-134345480D01*
X106386107Y-134332867D01*
X106366402Y-134318253D01*
X106348223Y-134301777D01*
X106331747Y-134283598D01*
X106317133Y-134263893D01*
X106304520Y-134242849D01*
X106294030Y-134220671D01*
X106285765Y-134197571D01*
X106279804Y-134173773D01*
X106276204Y-134149504D01*
X106275000Y-134125000D01*
X106275000Y-132875000D01*
X106276204Y-132850496D01*
X106279804Y-132826227D01*
X106285765Y-132802429D01*
X106294030Y-132779329D01*
X106304520Y-132757151D01*
X106317133Y-132736107D01*
X106331747Y-132716402D01*
X106348223Y-132698223D01*
X106366402Y-132681747D01*
X106386107Y-132667133D01*
X106407151Y-132654520D01*
X106429329Y-132644030D01*
X106452429Y-132635765D01*
X106476227Y-132629804D01*
X106500496Y-132626204D01*
X106525000Y-132625000D01*
X107450000Y-132625000D01*
X107474504Y-132626204D01*
X107474504Y-132626204D01*
G37*
D12*
X106987500Y-133500000D03*
D10*
G36*
X104499504Y-132626204D02*
G01*
X104523773Y-132629804D01*
X104547571Y-132635765D01*
X104570671Y-132644030D01*
X104592849Y-132654520D01*
X104613893Y-132667133D01*
X104633598Y-132681747D01*
X104651777Y-132698223D01*
X104668253Y-132716402D01*
X104682867Y-132736107D01*
X104695480Y-132757151D01*
X104705970Y-132779329D01*
X104714235Y-132802429D01*
X104720196Y-132826227D01*
X104723796Y-132850496D01*
X104725000Y-132875000D01*
X104725000Y-134125000D01*
X104723796Y-134149504D01*
X104720196Y-134173773D01*
X104714235Y-134197571D01*
X104705970Y-134220671D01*
X104695480Y-134242849D01*
X104682867Y-134263893D01*
X104668253Y-134283598D01*
X104651777Y-134301777D01*
X104633598Y-134318253D01*
X104613893Y-134332867D01*
X104592849Y-134345480D01*
X104570671Y-134355970D01*
X104547571Y-134364235D01*
X104523773Y-134370196D01*
X104499504Y-134373796D01*
X104475000Y-134375000D01*
X103550000Y-134375000D01*
X103525496Y-134373796D01*
X103501227Y-134370196D01*
X103477429Y-134364235D01*
X103454329Y-134355970D01*
X103432151Y-134345480D01*
X103411107Y-134332867D01*
X103391402Y-134318253D01*
X103373223Y-134301777D01*
X103356747Y-134283598D01*
X103342133Y-134263893D01*
X103329520Y-134242849D01*
X103319030Y-134220671D01*
X103310765Y-134197571D01*
X103304804Y-134173773D01*
X103301204Y-134149504D01*
X103300000Y-134125000D01*
X103300000Y-132875000D01*
X103301204Y-132850496D01*
X103304804Y-132826227D01*
X103310765Y-132802429D01*
X103319030Y-132779329D01*
X103329520Y-132757151D01*
X103342133Y-132736107D01*
X103356747Y-132716402D01*
X103373223Y-132698223D01*
X103391402Y-132681747D01*
X103411107Y-132667133D01*
X103432151Y-132654520D01*
X103454329Y-132644030D01*
X103477429Y-132635765D01*
X103501227Y-132629804D01*
X103525496Y-132626204D01*
X103550000Y-132625000D01*
X104475000Y-132625000D01*
X104499504Y-132626204D01*
X104499504Y-132626204D01*
G37*
D12*
X104012500Y-133500000D03*
D10*
G36*
X96462004Y-132626204D02*
G01*
X96486273Y-132629804D01*
X96510071Y-132635765D01*
X96533171Y-132644030D01*
X96555349Y-132654520D01*
X96576393Y-132667133D01*
X96596098Y-132681747D01*
X96614277Y-132698223D01*
X96630753Y-132716402D01*
X96645367Y-132736107D01*
X96657980Y-132757151D01*
X96668470Y-132779329D01*
X96676735Y-132802429D01*
X96682696Y-132826227D01*
X96686296Y-132850496D01*
X96687500Y-132875000D01*
X96687500Y-134125000D01*
X96686296Y-134149504D01*
X96682696Y-134173773D01*
X96676735Y-134197571D01*
X96668470Y-134220671D01*
X96657980Y-134242849D01*
X96645367Y-134263893D01*
X96630753Y-134283598D01*
X96614277Y-134301777D01*
X96596098Y-134318253D01*
X96576393Y-134332867D01*
X96555349Y-134345480D01*
X96533171Y-134355970D01*
X96510071Y-134364235D01*
X96486273Y-134370196D01*
X96462004Y-134373796D01*
X96437500Y-134375000D01*
X95512500Y-134375000D01*
X95487996Y-134373796D01*
X95463727Y-134370196D01*
X95439929Y-134364235D01*
X95416829Y-134355970D01*
X95394651Y-134345480D01*
X95373607Y-134332867D01*
X95353902Y-134318253D01*
X95335723Y-134301777D01*
X95319247Y-134283598D01*
X95304633Y-134263893D01*
X95292020Y-134242849D01*
X95281530Y-134220671D01*
X95273265Y-134197571D01*
X95267304Y-134173773D01*
X95263704Y-134149504D01*
X95262500Y-134125000D01*
X95262500Y-132875000D01*
X95263704Y-132850496D01*
X95267304Y-132826227D01*
X95273265Y-132802429D01*
X95281530Y-132779329D01*
X95292020Y-132757151D01*
X95304633Y-132736107D01*
X95319247Y-132716402D01*
X95335723Y-132698223D01*
X95353902Y-132681747D01*
X95373607Y-132667133D01*
X95394651Y-132654520D01*
X95416829Y-132644030D01*
X95439929Y-132635765D01*
X95463727Y-132629804D01*
X95487996Y-132626204D01*
X95512500Y-132625000D01*
X96437500Y-132625000D01*
X96462004Y-132626204D01*
X96462004Y-132626204D01*
G37*
D12*
X95975000Y-133500000D03*
D10*
G36*
X93487004Y-132626204D02*
G01*
X93511273Y-132629804D01*
X93535071Y-132635765D01*
X93558171Y-132644030D01*
X93580349Y-132654520D01*
X93601393Y-132667133D01*
X93621098Y-132681747D01*
X93639277Y-132698223D01*
X93655753Y-132716402D01*
X93670367Y-132736107D01*
X93682980Y-132757151D01*
X93693470Y-132779329D01*
X93701735Y-132802429D01*
X93707696Y-132826227D01*
X93711296Y-132850496D01*
X93712500Y-132875000D01*
X93712500Y-134125000D01*
X93711296Y-134149504D01*
X93707696Y-134173773D01*
X93701735Y-134197571D01*
X93693470Y-134220671D01*
X93682980Y-134242849D01*
X93670367Y-134263893D01*
X93655753Y-134283598D01*
X93639277Y-134301777D01*
X93621098Y-134318253D01*
X93601393Y-134332867D01*
X93580349Y-134345480D01*
X93558171Y-134355970D01*
X93535071Y-134364235D01*
X93511273Y-134370196D01*
X93487004Y-134373796D01*
X93462500Y-134375000D01*
X92537500Y-134375000D01*
X92512996Y-134373796D01*
X92488727Y-134370196D01*
X92464929Y-134364235D01*
X92441829Y-134355970D01*
X92419651Y-134345480D01*
X92398607Y-134332867D01*
X92378902Y-134318253D01*
X92360723Y-134301777D01*
X92344247Y-134283598D01*
X92329633Y-134263893D01*
X92317020Y-134242849D01*
X92306530Y-134220671D01*
X92298265Y-134197571D01*
X92292304Y-134173773D01*
X92288704Y-134149504D01*
X92287500Y-134125000D01*
X92287500Y-132875000D01*
X92288704Y-132850496D01*
X92292304Y-132826227D01*
X92298265Y-132802429D01*
X92306530Y-132779329D01*
X92317020Y-132757151D01*
X92329633Y-132736107D01*
X92344247Y-132716402D01*
X92360723Y-132698223D01*
X92378902Y-132681747D01*
X92398607Y-132667133D01*
X92419651Y-132654520D01*
X92441829Y-132644030D01*
X92464929Y-132635765D01*
X92488727Y-132629804D01*
X92512996Y-132626204D01*
X92537500Y-132625000D01*
X93462500Y-132625000D01*
X93487004Y-132626204D01*
X93487004Y-132626204D01*
G37*
D12*
X93000000Y-133500000D03*
D10*
G36*
X96487004Y-128626204D02*
G01*
X96511273Y-128629804D01*
X96535071Y-128635765D01*
X96558171Y-128644030D01*
X96580349Y-128654520D01*
X96601393Y-128667133D01*
X96621098Y-128681747D01*
X96639277Y-128698223D01*
X96655753Y-128716402D01*
X96670367Y-128736107D01*
X96682980Y-128757151D01*
X96693470Y-128779329D01*
X96701735Y-128802429D01*
X96707696Y-128826227D01*
X96711296Y-128850496D01*
X96712500Y-128875000D01*
X96712500Y-130125000D01*
X96711296Y-130149504D01*
X96707696Y-130173773D01*
X96701735Y-130197571D01*
X96693470Y-130220671D01*
X96682980Y-130242849D01*
X96670367Y-130263893D01*
X96655753Y-130283598D01*
X96639277Y-130301777D01*
X96621098Y-130318253D01*
X96601393Y-130332867D01*
X96580349Y-130345480D01*
X96558171Y-130355970D01*
X96535071Y-130364235D01*
X96511273Y-130370196D01*
X96487004Y-130373796D01*
X96462500Y-130375000D01*
X95537500Y-130375000D01*
X95512996Y-130373796D01*
X95488727Y-130370196D01*
X95464929Y-130364235D01*
X95441829Y-130355970D01*
X95419651Y-130345480D01*
X95398607Y-130332867D01*
X95378902Y-130318253D01*
X95360723Y-130301777D01*
X95344247Y-130283598D01*
X95329633Y-130263893D01*
X95317020Y-130242849D01*
X95306530Y-130220671D01*
X95298265Y-130197571D01*
X95292304Y-130173773D01*
X95288704Y-130149504D01*
X95287500Y-130125000D01*
X95287500Y-128875000D01*
X95288704Y-128850496D01*
X95292304Y-128826227D01*
X95298265Y-128802429D01*
X95306530Y-128779329D01*
X95317020Y-128757151D01*
X95329633Y-128736107D01*
X95344247Y-128716402D01*
X95360723Y-128698223D01*
X95378902Y-128681747D01*
X95398607Y-128667133D01*
X95419651Y-128654520D01*
X95441829Y-128644030D01*
X95464929Y-128635765D01*
X95488727Y-128629804D01*
X95512996Y-128626204D01*
X95537500Y-128625000D01*
X96462500Y-128625000D01*
X96487004Y-128626204D01*
X96487004Y-128626204D01*
G37*
D12*
X96000000Y-129500000D03*
D10*
G36*
X93512004Y-128626204D02*
G01*
X93536273Y-128629804D01*
X93560071Y-128635765D01*
X93583171Y-128644030D01*
X93605349Y-128654520D01*
X93626393Y-128667133D01*
X93646098Y-128681747D01*
X93664277Y-128698223D01*
X93680753Y-128716402D01*
X93695367Y-128736107D01*
X93707980Y-128757151D01*
X93718470Y-128779329D01*
X93726735Y-128802429D01*
X93732696Y-128826227D01*
X93736296Y-128850496D01*
X93737500Y-128875000D01*
X93737500Y-130125000D01*
X93736296Y-130149504D01*
X93732696Y-130173773D01*
X93726735Y-130197571D01*
X93718470Y-130220671D01*
X93707980Y-130242849D01*
X93695367Y-130263893D01*
X93680753Y-130283598D01*
X93664277Y-130301777D01*
X93646098Y-130318253D01*
X93626393Y-130332867D01*
X93605349Y-130345480D01*
X93583171Y-130355970D01*
X93560071Y-130364235D01*
X93536273Y-130370196D01*
X93512004Y-130373796D01*
X93487500Y-130375000D01*
X92562500Y-130375000D01*
X92537996Y-130373796D01*
X92513727Y-130370196D01*
X92489929Y-130364235D01*
X92466829Y-130355970D01*
X92444651Y-130345480D01*
X92423607Y-130332867D01*
X92403902Y-130318253D01*
X92385723Y-130301777D01*
X92369247Y-130283598D01*
X92354633Y-130263893D01*
X92342020Y-130242849D01*
X92331530Y-130220671D01*
X92323265Y-130197571D01*
X92317304Y-130173773D01*
X92313704Y-130149504D01*
X92312500Y-130125000D01*
X92312500Y-128875000D01*
X92313704Y-128850496D01*
X92317304Y-128826227D01*
X92323265Y-128802429D01*
X92331530Y-128779329D01*
X92342020Y-128757151D01*
X92354633Y-128736107D01*
X92369247Y-128716402D01*
X92385723Y-128698223D01*
X92403902Y-128681747D01*
X92423607Y-128667133D01*
X92444651Y-128654520D01*
X92466829Y-128644030D01*
X92489929Y-128635765D01*
X92513727Y-128629804D01*
X92537996Y-128626204D01*
X92562500Y-128625000D01*
X93487500Y-128625000D01*
X93512004Y-128626204D01*
X93512004Y-128626204D01*
G37*
D12*
X93025000Y-129500000D03*
D10*
G36*
X85462004Y-132626204D02*
G01*
X85486273Y-132629804D01*
X85510071Y-132635765D01*
X85533171Y-132644030D01*
X85555349Y-132654520D01*
X85576393Y-132667133D01*
X85596098Y-132681747D01*
X85614277Y-132698223D01*
X85630753Y-132716402D01*
X85645367Y-132736107D01*
X85657980Y-132757151D01*
X85668470Y-132779329D01*
X85676735Y-132802429D01*
X85682696Y-132826227D01*
X85686296Y-132850496D01*
X85687500Y-132875000D01*
X85687500Y-134125000D01*
X85686296Y-134149504D01*
X85682696Y-134173773D01*
X85676735Y-134197571D01*
X85668470Y-134220671D01*
X85657980Y-134242849D01*
X85645367Y-134263893D01*
X85630753Y-134283598D01*
X85614277Y-134301777D01*
X85596098Y-134318253D01*
X85576393Y-134332867D01*
X85555349Y-134345480D01*
X85533171Y-134355970D01*
X85510071Y-134364235D01*
X85486273Y-134370196D01*
X85462004Y-134373796D01*
X85437500Y-134375000D01*
X84512500Y-134375000D01*
X84487996Y-134373796D01*
X84463727Y-134370196D01*
X84439929Y-134364235D01*
X84416829Y-134355970D01*
X84394651Y-134345480D01*
X84373607Y-134332867D01*
X84353902Y-134318253D01*
X84335723Y-134301777D01*
X84319247Y-134283598D01*
X84304633Y-134263893D01*
X84292020Y-134242849D01*
X84281530Y-134220671D01*
X84273265Y-134197571D01*
X84267304Y-134173773D01*
X84263704Y-134149504D01*
X84262500Y-134125000D01*
X84262500Y-132875000D01*
X84263704Y-132850496D01*
X84267304Y-132826227D01*
X84273265Y-132802429D01*
X84281530Y-132779329D01*
X84292020Y-132757151D01*
X84304633Y-132736107D01*
X84319247Y-132716402D01*
X84335723Y-132698223D01*
X84353902Y-132681747D01*
X84373607Y-132667133D01*
X84394651Y-132654520D01*
X84416829Y-132644030D01*
X84439929Y-132635765D01*
X84463727Y-132629804D01*
X84487996Y-132626204D01*
X84512500Y-132625000D01*
X85437500Y-132625000D01*
X85462004Y-132626204D01*
X85462004Y-132626204D01*
G37*
D12*
X84975000Y-133500000D03*
D10*
G36*
X82487004Y-132626204D02*
G01*
X82511273Y-132629804D01*
X82535071Y-132635765D01*
X82558171Y-132644030D01*
X82580349Y-132654520D01*
X82601393Y-132667133D01*
X82621098Y-132681747D01*
X82639277Y-132698223D01*
X82655753Y-132716402D01*
X82670367Y-132736107D01*
X82682980Y-132757151D01*
X82693470Y-132779329D01*
X82701735Y-132802429D01*
X82707696Y-132826227D01*
X82711296Y-132850496D01*
X82712500Y-132875000D01*
X82712500Y-134125000D01*
X82711296Y-134149504D01*
X82707696Y-134173773D01*
X82701735Y-134197571D01*
X82693470Y-134220671D01*
X82682980Y-134242849D01*
X82670367Y-134263893D01*
X82655753Y-134283598D01*
X82639277Y-134301777D01*
X82621098Y-134318253D01*
X82601393Y-134332867D01*
X82580349Y-134345480D01*
X82558171Y-134355970D01*
X82535071Y-134364235D01*
X82511273Y-134370196D01*
X82487004Y-134373796D01*
X82462500Y-134375000D01*
X81537500Y-134375000D01*
X81512996Y-134373796D01*
X81488727Y-134370196D01*
X81464929Y-134364235D01*
X81441829Y-134355970D01*
X81419651Y-134345480D01*
X81398607Y-134332867D01*
X81378902Y-134318253D01*
X81360723Y-134301777D01*
X81344247Y-134283598D01*
X81329633Y-134263893D01*
X81317020Y-134242849D01*
X81306530Y-134220671D01*
X81298265Y-134197571D01*
X81292304Y-134173773D01*
X81288704Y-134149504D01*
X81287500Y-134125000D01*
X81287500Y-132875000D01*
X81288704Y-132850496D01*
X81292304Y-132826227D01*
X81298265Y-132802429D01*
X81306530Y-132779329D01*
X81317020Y-132757151D01*
X81329633Y-132736107D01*
X81344247Y-132716402D01*
X81360723Y-132698223D01*
X81378902Y-132681747D01*
X81398607Y-132667133D01*
X81419651Y-132654520D01*
X81441829Y-132644030D01*
X81464929Y-132635765D01*
X81488727Y-132629804D01*
X81512996Y-132626204D01*
X81537500Y-132625000D01*
X82462500Y-132625000D01*
X82487004Y-132626204D01*
X82487004Y-132626204D01*
G37*
D12*
X82000000Y-133500000D03*
D10*
G36*
X85487004Y-128626204D02*
G01*
X85511273Y-128629804D01*
X85535071Y-128635765D01*
X85558171Y-128644030D01*
X85580349Y-128654520D01*
X85601393Y-128667133D01*
X85621098Y-128681747D01*
X85639277Y-128698223D01*
X85655753Y-128716402D01*
X85670367Y-128736107D01*
X85682980Y-128757151D01*
X85693470Y-128779329D01*
X85701735Y-128802429D01*
X85707696Y-128826227D01*
X85711296Y-128850496D01*
X85712500Y-128875000D01*
X85712500Y-130125000D01*
X85711296Y-130149504D01*
X85707696Y-130173773D01*
X85701735Y-130197571D01*
X85693470Y-130220671D01*
X85682980Y-130242849D01*
X85670367Y-130263893D01*
X85655753Y-130283598D01*
X85639277Y-130301777D01*
X85621098Y-130318253D01*
X85601393Y-130332867D01*
X85580349Y-130345480D01*
X85558171Y-130355970D01*
X85535071Y-130364235D01*
X85511273Y-130370196D01*
X85487004Y-130373796D01*
X85462500Y-130375000D01*
X84537500Y-130375000D01*
X84512996Y-130373796D01*
X84488727Y-130370196D01*
X84464929Y-130364235D01*
X84441829Y-130355970D01*
X84419651Y-130345480D01*
X84398607Y-130332867D01*
X84378902Y-130318253D01*
X84360723Y-130301777D01*
X84344247Y-130283598D01*
X84329633Y-130263893D01*
X84317020Y-130242849D01*
X84306530Y-130220671D01*
X84298265Y-130197571D01*
X84292304Y-130173773D01*
X84288704Y-130149504D01*
X84287500Y-130125000D01*
X84287500Y-128875000D01*
X84288704Y-128850496D01*
X84292304Y-128826227D01*
X84298265Y-128802429D01*
X84306530Y-128779329D01*
X84317020Y-128757151D01*
X84329633Y-128736107D01*
X84344247Y-128716402D01*
X84360723Y-128698223D01*
X84378902Y-128681747D01*
X84398607Y-128667133D01*
X84419651Y-128654520D01*
X84441829Y-128644030D01*
X84464929Y-128635765D01*
X84488727Y-128629804D01*
X84512996Y-128626204D01*
X84537500Y-128625000D01*
X85462500Y-128625000D01*
X85487004Y-128626204D01*
X85487004Y-128626204D01*
G37*
D12*
X85000000Y-129500000D03*
D10*
G36*
X82512004Y-128626204D02*
G01*
X82536273Y-128629804D01*
X82560071Y-128635765D01*
X82583171Y-128644030D01*
X82605349Y-128654520D01*
X82626393Y-128667133D01*
X82646098Y-128681747D01*
X82664277Y-128698223D01*
X82680753Y-128716402D01*
X82695367Y-128736107D01*
X82707980Y-128757151D01*
X82718470Y-128779329D01*
X82726735Y-128802429D01*
X82732696Y-128826227D01*
X82736296Y-128850496D01*
X82737500Y-128875000D01*
X82737500Y-130125000D01*
X82736296Y-130149504D01*
X82732696Y-130173773D01*
X82726735Y-130197571D01*
X82718470Y-130220671D01*
X82707980Y-130242849D01*
X82695367Y-130263893D01*
X82680753Y-130283598D01*
X82664277Y-130301777D01*
X82646098Y-130318253D01*
X82626393Y-130332867D01*
X82605349Y-130345480D01*
X82583171Y-130355970D01*
X82560071Y-130364235D01*
X82536273Y-130370196D01*
X82512004Y-130373796D01*
X82487500Y-130375000D01*
X81562500Y-130375000D01*
X81537996Y-130373796D01*
X81513727Y-130370196D01*
X81489929Y-130364235D01*
X81466829Y-130355970D01*
X81444651Y-130345480D01*
X81423607Y-130332867D01*
X81403902Y-130318253D01*
X81385723Y-130301777D01*
X81369247Y-130283598D01*
X81354633Y-130263893D01*
X81342020Y-130242849D01*
X81331530Y-130220671D01*
X81323265Y-130197571D01*
X81317304Y-130173773D01*
X81313704Y-130149504D01*
X81312500Y-130125000D01*
X81312500Y-128875000D01*
X81313704Y-128850496D01*
X81317304Y-128826227D01*
X81323265Y-128802429D01*
X81331530Y-128779329D01*
X81342020Y-128757151D01*
X81354633Y-128736107D01*
X81369247Y-128716402D01*
X81385723Y-128698223D01*
X81403902Y-128681747D01*
X81423607Y-128667133D01*
X81444651Y-128654520D01*
X81466829Y-128644030D01*
X81489929Y-128635765D01*
X81513727Y-128629804D01*
X81537996Y-128626204D01*
X81562500Y-128625000D01*
X82487500Y-128625000D01*
X82512004Y-128626204D01*
X82512004Y-128626204D01*
G37*
D12*
X82025000Y-129500000D03*
D10*
G36*
X74474504Y-128626204D02*
G01*
X74498773Y-128629804D01*
X74522571Y-128635765D01*
X74545671Y-128644030D01*
X74567849Y-128654520D01*
X74588893Y-128667133D01*
X74608598Y-128681747D01*
X74626777Y-128698223D01*
X74643253Y-128716402D01*
X74657867Y-128736107D01*
X74670480Y-128757151D01*
X74680970Y-128779329D01*
X74689235Y-128802429D01*
X74695196Y-128826227D01*
X74698796Y-128850496D01*
X74700000Y-128875000D01*
X74700000Y-130125000D01*
X74698796Y-130149504D01*
X74695196Y-130173773D01*
X74689235Y-130197571D01*
X74680970Y-130220671D01*
X74670480Y-130242849D01*
X74657867Y-130263893D01*
X74643253Y-130283598D01*
X74626777Y-130301777D01*
X74608598Y-130318253D01*
X74588893Y-130332867D01*
X74567849Y-130345480D01*
X74545671Y-130355970D01*
X74522571Y-130364235D01*
X74498773Y-130370196D01*
X74474504Y-130373796D01*
X74450000Y-130375000D01*
X73525000Y-130375000D01*
X73500496Y-130373796D01*
X73476227Y-130370196D01*
X73452429Y-130364235D01*
X73429329Y-130355970D01*
X73407151Y-130345480D01*
X73386107Y-130332867D01*
X73366402Y-130318253D01*
X73348223Y-130301777D01*
X73331747Y-130283598D01*
X73317133Y-130263893D01*
X73304520Y-130242849D01*
X73294030Y-130220671D01*
X73285765Y-130197571D01*
X73279804Y-130173773D01*
X73276204Y-130149504D01*
X73275000Y-130125000D01*
X73275000Y-128875000D01*
X73276204Y-128850496D01*
X73279804Y-128826227D01*
X73285765Y-128802429D01*
X73294030Y-128779329D01*
X73304520Y-128757151D01*
X73317133Y-128736107D01*
X73331747Y-128716402D01*
X73348223Y-128698223D01*
X73366402Y-128681747D01*
X73386107Y-128667133D01*
X73407151Y-128654520D01*
X73429329Y-128644030D01*
X73452429Y-128635765D01*
X73476227Y-128629804D01*
X73500496Y-128626204D01*
X73525000Y-128625000D01*
X74450000Y-128625000D01*
X74474504Y-128626204D01*
X74474504Y-128626204D01*
G37*
D12*
X73987500Y-129500000D03*
D10*
G36*
X71499504Y-128626204D02*
G01*
X71523773Y-128629804D01*
X71547571Y-128635765D01*
X71570671Y-128644030D01*
X71592849Y-128654520D01*
X71613893Y-128667133D01*
X71633598Y-128681747D01*
X71651777Y-128698223D01*
X71668253Y-128716402D01*
X71682867Y-128736107D01*
X71695480Y-128757151D01*
X71705970Y-128779329D01*
X71714235Y-128802429D01*
X71720196Y-128826227D01*
X71723796Y-128850496D01*
X71725000Y-128875000D01*
X71725000Y-130125000D01*
X71723796Y-130149504D01*
X71720196Y-130173773D01*
X71714235Y-130197571D01*
X71705970Y-130220671D01*
X71695480Y-130242849D01*
X71682867Y-130263893D01*
X71668253Y-130283598D01*
X71651777Y-130301777D01*
X71633598Y-130318253D01*
X71613893Y-130332867D01*
X71592849Y-130345480D01*
X71570671Y-130355970D01*
X71547571Y-130364235D01*
X71523773Y-130370196D01*
X71499504Y-130373796D01*
X71475000Y-130375000D01*
X70550000Y-130375000D01*
X70525496Y-130373796D01*
X70501227Y-130370196D01*
X70477429Y-130364235D01*
X70454329Y-130355970D01*
X70432151Y-130345480D01*
X70411107Y-130332867D01*
X70391402Y-130318253D01*
X70373223Y-130301777D01*
X70356747Y-130283598D01*
X70342133Y-130263893D01*
X70329520Y-130242849D01*
X70319030Y-130220671D01*
X70310765Y-130197571D01*
X70304804Y-130173773D01*
X70301204Y-130149504D01*
X70300000Y-130125000D01*
X70300000Y-128875000D01*
X70301204Y-128850496D01*
X70304804Y-128826227D01*
X70310765Y-128802429D01*
X70319030Y-128779329D01*
X70329520Y-128757151D01*
X70342133Y-128736107D01*
X70356747Y-128716402D01*
X70373223Y-128698223D01*
X70391402Y-128681747D01*
X70411107Y-128667133D01*
X70432151Y-128654520D01*
X70454329Y-128644030D01*
X70477429Y-128635765D01*
X70501227Y-128629804D01*
X70525496Y-128626204D01*
X70550000Y-128625000D01*
X71475000Y-128625000D01*
X71499504Y-128626204D01*
X71499504Y-128626204D01*
G37*
D12*
X71012500Y-129500000D03*
D10*
G36*
X74462004Y-132626204D02*
G01*
X74486273Y-132629804D01*
X74510071Y-132635765D01*
X74533171Y-132644030D01*
X74555349Y-132654520D01*
X74576393Y-132667133D01*
X74596098Y-132681747D01*
X74614277Y-132698223D01*
X74630753Y-132716402D01*
X74645367Y-132736107D01*
X74657980Y-132757151D01*
X74668470Y-132779329D01*
X74676735Y-132802429D01*
X74682696Y-132826227D01*
X74686296Y-132850496D01*
X74687500Y-132875000D01*
X74687500Y-134125000D01*
X74686296Y-134149504D01*
X74682696Y-134173773D01*
X74676735Y-134197571D01*
X74668470Y-134220671D01*
X74657980Y-134242849D01*
X74645367Y-134263893D01*
X74630753Y-134283598D01*
X74614277Y-134301777D01*
X74596098Y-134318253D01*
X74576393Y-134332867D01*
X74555349Y-134345480D01*
X74533171Y-134355970D01*
X74510071Y-134364235D01*
X74486273Y-134370196D01*
X74462004Y-134373796D01*
X74437500Y-134375000D01*
X73512500Y-134375000D01*
X73487996Y-134373796D01*
X73463727Y-134370196D01*
X73439929Y-134364235D01*
X73416829Y-134355970D01*
X73394651Y-134345480D01*
X73373607Y-134332867D01*
X73353902Y-134318253D01*
X73335723Y-134301777D01*
X73319247Y-134283598D01*
X73304633Y-134263893D01*
X73292020Y-134242849D01*
X73281530Y-134220671D01*
X73273265Y-134197571D01*
X73267304Y-134173773D01*
X73263704Y-134149504D01*
X73262500Y-134125000D01*
X73262500Y-132875000D01*
X73263704Y-132850496D01*
X73267304Y-132826227D01*
X73273265Y-132802429D01*
X73281530Y-132779329D01*
X73292020Y-132757151D01*
X73304633Y-132736107D01*
X73319247Y-132716402D01*
X73335723Y-132698223D01*
X73353902Y-132681747D01*
X73373607Y-132667133D01*
X73394651Y-132654520D01*
X73416829Y-132644030D01*
X73439929Y-132635765D01*
X73463727Y-132629804D01*
X73487996Y-132626204D01*
X73512500Y-132625000D01*
X74437500Y-132625000D01*
X74462004Y-132626204D01*
X74462004Y-132626204D01*
G37*
D12*
X73975000Y-133500000D03*
D10*
G36*
X71487004Y-132626204D02*
G01*
X71511273Y-132629804D01*
X71535071Y-132635765D01*
X71558171Y-132644030D01*
X71580349Y-132654520D01*
X71601393Y-132667133D01*
X71621098Y-132681747D01*
X71639277Y-132698223D01*
X71655753Y-132716402D01*
X71670367Y-132736107D01*
X71682980Y-132757151D01*
X71693470Y-132779329D01*
X71701735Y-132802429D01*
X71707696Y-132826227D01*
X71711296Y-132850496D01*
X71712500Y-132875000D01*
X71712500Y-134125000D01*
X71711296Y-134149504D01*
X71707696Y-134173773D01*
X71701735Y-134197571D01*
X71693470Y-134220671D01*
X71682980Y-134242849D01*
X71670367Y-134263893D01*
X71655753Y-134283598D01*
X71639277Y-134301777D01*
X71621098Y-134318253D01*
X71601393Y-134332867D01*
X71580349Y-134345480D01*
X71558171Y-134355970D01*
X71535071Y-134364235D01*
X71511273Y-134370196D01*
X71487004Y-134373796D01*
X71462500Y-134375000D01*
X70537500Y-134375000D01*
X70512996Y-134373796D01*
X70488727Y-134370196D01*
X70464929Y-134364235D01*
X70441829Y-134355970D01*
X70419651Y-134345480D01*
X70398607Y-134332867D01*
X70378902Y-134318253D01*
X70360723Y-134301777D01*
X70344247Y-134283598D01*
X70329633Y-134263893D01*
X70317020Y-134242849D01*
X70306530Y-134220671D01*
X70298265Y-134197571D01*
X70292304Y-134173773D01*
X70288704Y-134149504D01*
X70287500Y-134125000D01*
X70287500Y-132875000D01*
X70288704Y-132850496D01*
X70292304Y-132826227D01*
X70298265Y-132802429D01*
X70306530Y-132779329D01*
X70317020Y-132757151D01*
X70329633Y-132736107D01*
X70344247Y-132716402D01*
X70360723Y-132698223D01*
X70378902Y-132681747D01*
X70398607Y-132667133D01*
X70419651Y-132654520D01*
X70441829Y-132644030D01*
X70464929Y-132635765D01*
X70488727Y-132629804D01*
X70512996Y-132626204D01*
X70537500Y-132625000D01*
X71462500Y-132625000D01*
X71487004Y-132626204D01*
X71487004Y-132626204D01*
G37*
D12*
X71000000Y-133500000D03*
D10*
G36*
X63474504Y-128626204D02*
G01*
X63498773Y-128629804D01*
X63522571Y-128635765D01*
X63545671Y-128644030D01*
X63567849Y-128654520D01*
X63588893Y-128667133D01*
X63608598Y-128681747D01*
X63626777Y-128698223D01*
X63643253Y-128716402D01*
X63657867Y-128736107D01*
X63670480Y-128757151D01*
X63680970Y-128779329D01*
X63689235Y-128802429D01*
X63695196Y-128826227D01*
X63698796Y-128850496D01*
X63700000Y-128875000D01*
X63700000Y-130125000D01*
X63698796Y-130149504D01*
X63695196Y-130173773D01*
X63689235Y-130197571D01*
X63680970Y-130220671D01*
X63670480Y-130242849D01*
X63657867Y-130263893D01*
X63643253Y-130283598D01*
X63626777Y-130301777D01*
X63608598Y-130318253D01*
X63588893Y-130332867D01*
X63567849Y-130345480D01*
X63545671Y-130355970D01*
X63522571Y-130364235D01*
X63498773Y-130370196D01*
X63474504Y-130373796D01*
X63450000Y-130375000D01*
X62525000Y-130375000D01*
X62500496Y-130373796D01*
X62476227Y-130370196D01*
X62452429Y-130364235D01*
X62429329Y-130355970D01*
X62407151Y-130345480D01*
X62386107Y-130332867D01*
X62366402Y-130318253D01*
X62348223Y-130301777D01*
X62331747Y-130283598D01*
X62317133Y-130263893D01*
X62304520Y-130242849D01*
X62294030Y-130220671D01*
X62285765Y-130197571D01*
X62279804Y-130173773D01*
X62276204Y-130149504D01*
X62275000Y-130125000D01*
X62275000Y-128875000D01*
X62276204Y-128850496D01*
X62279804Y-128826227D01*
X62285765Y-128802429D01*
X62294030Y-128779329D01*
X62304520Y-128757151D01*
X62317133Y-128736107D01*
X62331747Y-128716402D01*
X62348223Y-128698223D01*
X62366402Y-128681747D01*
X62386107Y-128667133D01*
X62407151Y-128654520D01*
X62429329Y-128644030D01*
X62452429Y-128635765D01*
X62476227Y-128629804D01*
X62500496Y-128626204D01*
X62525000Y-128625000D01*
X63450000Y-128625000D01*
X63474504Y-128626204D01*
X63474504Y-128626204D01*
G37*
D12*
X62987500Y-129500000D03*
D10*
G36*
X60499504Y-128626204D02*
G01*
X60523773Y-128629804D01*
X60547571Y-128635765D01*
X60570671Y-128644030D01*
X60592849Y-128654520D01*
X60613893Y-128667133D01*
X60633598Y-128681747D01*
X60651777Y-128698223D01*
X60668253Y-128716402D01*
X60682867Y-128736107D01*
X60695480Y-128757151D01*
X60705970Y-128779329D01*
X60714235Y-128802429D01*
X60720196Y-128826227D01*
X60723796Y-128850496D01*
X60725000Y-128875000D01*
X60725000Y-130125000D01*
X60723796Y-130149504D01*
X60720196Y-130173773D01*
X60714235Y-130197571D01*
X60705970Y-130220671D01*
X60695480Y-130242849D01*
X60682867Y-130263893D01*
X60668253Y-130283598D01*
X60651777Y-130301777D01*
X60633598Y-130318253D01*
X60613893Y-130332867D01*
X60592849Y-130345480D01*
X60570671Y-130355970D01*
X60547571Y-130364235D01*
X60523773Y-130370196D01*
X60499504Y-130373796D01*
X60475000Y-130375000D01*
X59550000Y-130375000D01*
X59525496Y-130373796D01*
X59501227Y-130370196D01*
X59477429Y-130364235D01*
X59454329Y-130355970D01*
X59432151Y-130345480D01*
X59411107Y-130332867D01*
X59391402Y-130318253D01*
X59373223Y-130301777D01*
X59356747Y-130283598D01*
X59342133Y-130263893D01*
X59329520Y-130242849D01*
X59319030Y-130220671D01*
X59310765Y-130197571D01*
X59304804Y-130173773D01*
X59301204Y-130149504D01*
X59300000Y-130125000D01*
X59300000Y-128875000D01*
X59301204Y-128850496D01*
X59304804Y-128826227D01*
X59310765Y-128802429D01*
X59319030Y-128779329D01*
X59329520Y-128757151D01*
X59342133Y-128736107D01*
X59356747Y-128716402D01*
X59373223Y-128698223D01*
X59391402Y-128681747D01*
X59411107Y-128667133D01*
X59432151Y-128654520D01*
X59454329Y-128644030D01*
X59477429Y-128635765D01*
X59501227Y-128629804D01*
X59525496Y-128626204D01*
X59550000Y-128625000D01*
X60475000Y-128625000D01*
X60499504Y-128626204D01*
X60499504Y-128626204D01*
G37*
D12*
X60012500Y-129500000D03*
D10*
G36*
X63462004Y-132626204D02*
G01*
X63486273Y-132629804D01*
X63510071Y-132635765D01*
X63533171Y-132644030D01*
X63555349Y-132654520D01*
X63576393Y-132667133D01*
X63596098Y-132681747D01*
X63614277Y-132698223D01*
X63630753Y-132716402D01*
X63645367Y-132736107D01*
X63657980Y-132757151D01*
X63668470Y-132779329D01*
X63676735Y-132802429D01*
X63682696Y-132826227D01*
X63686296Y-132850496D01*
X63687500Y-132875000D01*
X63687500Y-134125000D01*
X63686296Y-134149504D01*
X63682696Y-134173773D01*
X63676735Y-134197571D01*
X63668470Y-134220671D01*
X63657980Y-134242849D01*
X63645367Y-134263893D01*
X63630753Y-134283598D01*
X63614277Y-134301777D01*
X63596098Y-134318253D01*
X63576393Y-134332867D01*
X63555349Y-134345480D01*
X63533171Y-134355970D01*
X63510071Y-134364235D01*
X63486273Y-134370196D01*
X63462004Y-134373796D01*
X63437500Y-134375000D01*
X62512500Y-134375000D01*
X62487996Y-134373796D01*
X62463727Y-134370196D01*
X62439929Y-134364235D01*
X62416829Y-134355970D01*
X62394651Y-134345480D01*
X62373607Y-134332867D01*
X62353902Y-134318253D01*
X62335723Y-134301777D01*
X62319247Y-134283598D01*
X62304633Y-134263893D01*
X62292020Y-134242849D01*
X62281530Y-134220671D01*
X62273265Y-134197571D01*
X62267304Y-134173773D01*
X62263704Y-134149504D01*
X62262500Y-134125000D01*
X62262500Y-132875000D01*
X62263704Y-132850496D01*
X62267304Y-132826227D01*
X62273265Y-132802429D01*
X62281530Y-132779329D01*
X62292020Y-132757151D01*
X62304633Y-132736107D01*
X62319247Y-132716402D01*
X62335723Y-132698223D01*
X62353902Y-132681747D01*
X62373607Y-132667133D01*
X62394651Y-132654520D01*
X62416829Y-132644030D01*
X62439929Y-132635765D01*
X62463727Y-132629804D01*
X62487996Y-132626204D01*
X62512500Y-132625000D01*
X63437500Y-132625000D01*
X63462004Y-132626204D01*
X63462004Y-132626204D01*
G37*
D12*
X62975000Y-133500000D03*
D10*
G36*
X60487004Y-132626204D02*
G01*
X60511273Y-132629804D01*
X60535071Y-132635765D01*
X60558171Y-132644030D01*
X60580349Y-132654520D01*
X60601393Y-132667133D01*
X60621098Y-132681747D01*
X60639277Y-132698223D01*
X60655753Y-132716402D01*
X60670367Y-132736107D01*
X60682980Y-132757151D01*
X60693470Y-132779329D01*
X60701735Y-132802429D01*
X60707696Y-132826227D01*
X60711296Y-132850496D01*
X60712500Y-132875000D01*
X60712500Y-134125000D01*
X60711296Y-134149504D01*
X60707696Y-134173773D01*
X60701735Y-134197571D01*
X60693470Y-134220671D01*
X60682980Y-134242849D01*
X60670367Y-134263893D01*
X60655753Y-134283598D01*
X60639277Y-134301777D01*
X60621098Y-134318253D01*
X60601393Y-134332867D01*
X60580349Y-134345480D01*
X60558171Y-134355970D01*
X60535071Y-134364235D01*
X60511273Y-134370196D01*
X60487004Y-134373796D01*
X60462500Y-134375000D01*
X59537500Y-134375000D01*
X59512996Y-134373796D01*
X59488727Y-134370196D01*
X59464929Y-134364235D01*
X59441829Y-134355970D01*
X59419651Y-134345480D01*
X59398607Y-134332867D01*
X59378902Y-134318253D01*
X59360723Y-134301777D01*
X59344247Y-134283598D01*
X59329633Y-134263893D01*
X59317020Y-134242849D01*
X59306530Y-134220671D01*
X59298265Y-134197571D01*
X59292304Y-134173773D01*
X59288704Y-134149504D01*
X59287500Y-134125000D01*
X59287500Y-132875000D01*
X59288704Y-132850496D01*
X59292304Y-132826227D01*
X59298265Y-132802429D01*
X59306530Y-132779329D01*
X59317020Y-132757151D01*
X59329633Y-132736107D01*
X59344247Y-132716402D01*
X59360723Y-132698223D01*
X59378902Y-132681747D01*
X59398607Y-132667133D01*
X59419651Y-132654520D01*
X59441829Y-132644030D01*
X59464929Y-132635765D01*
X59488727Y-132629804D01*
X59512996Y-132626204D01*
X59537500Y-132625000D01*
X60462500Y-132625000D01*
X60487004Y-132626204D01*
X60487004Y-132626204D01*
G37*
D12*
X60000000Y-133500000D03*
D10*
G36*
X52462004Y-128626204D02*
G01*
X52486273Y-128629804D01*
X52510071Y-128635765D01*
X52533171Y-128644030D01*
X52555349Y-128654520D01*
X52576393Y-128667133D01*
X52596098Y-128681747D01*
X52614277Y-128698223D01*
X52630753Y-128716402D01*
X52645367Y-128736107D01*
X52657980Y-128757151D01*
X52668470Y-128779329D01*
X52676735Y-128802429D01*
X52682696Y-128826227D01*
X52686296Y-128850496D01*
X52687500Y-128875000D01*
X52687500Y-130125000D01*
X52686296Y-130149504D01*
X52682696Y-130173773D01*
X52676735Y-130197571D01*
X52668470Y-130220671D01*
X52657980Y-130242849D01*
X52645367Y-130263893D01*
X52630753Y-130283598D01*
X52614277Y-130301777D01*
X52596098Y-130318253D01*
X52576393Y-130332867D01*
X52555349Y-130345480D01*
X52533171Y-130355970D01*
X52510071Y-130364235D01*
X52486273Y-130370196D01*
X52462004Y-130373796D01*
X52437500Y-130375000D01*
X51512500Y-130375000D01*
X51487996Y-130373796D01*
X51463727Y-130370196D01*
X51439929Y-130364235D01*
X51416829Y-130355970D01*
X51394651Y-130345480D01*
X51373607Y-130332867D01*
X51353902Y-130318253D01*
X51335723Y-130301777D01*
X51319247Y-130283598D01*
X51304633Y-130263893D01*
X51292020Y-130242849D01*
X51281530Y-130220671D01*
X51273265Y-130197571D01*
X51267304Y-130173773D01*
X51263704Y-130149504D01*
X51262500Y-130125000D01*
X51262500Y-128875000D01*
X51263704Y-128850496D01*
X51267304Y-128826227D01*
X51273265Y-128802429D01*
X51281530Y-128779329D01*
X51292020Y-128757151D01*
X51304633Y-128736107D01*
X51319247Y-128716402D01*
X51335723Y-128698223D01*
X51353902Y-128681747D01*
X51373607Y-128667133D01*
X51394651Y-128654520D01*
X51416829Y-128644030D01*
X51439929Y-128635765D01*
X51463727Y-128629804D01*
X51487996Y-128626204D01*
X51512500Y-128625000D01*
X52437500Y-128625000D01*
X52462004Y-128626204D01*
X52462004Y-128626204D01*
G37*
D12*
X51975000Y-129500000D03*
D10*
G36*
X49487004Y-128626204D02*
G01*
X49511273Y-128629804D01*
X49535071Y-128635765D01*
X49558171Y-128644030D01*
X49580349Y-128654520D01*
X49601393Y-128667133D01*
X49621098Y-128681747D01*
X49639277Y-128698223D01*
X49655753Y-128716402D01*
X49670367Y-128736107D01*
X49682980Y-128757151D01*
X49693470Y-128779329D01*
X49701735Y-128802429D01*
X49707696Y-128826227D01*
X49711296Y-128850496D01*
X49712500Y-128875000D01*
X49712500Y-130125000D01*
X49711296Y-130149504D01*
X49707696Y-130173773D01*
X49701735Y-130197571D01*
X49693470Y-130220671D01*
X49682980Y-130242849D01*
X49670367Y-130263893D01*
X49655753Y-130283598D01*
X49639277Y-130301777D01*
X49621098Y-130318253D01*
X49601393Y-130332867D01*
X49580349Y-130345480D01*
X49558171Y-130355970D01*
X49535071Y-130364235D01*
X49511273Y-130370196D01*
X49487004Y-130373796D01*
X49462500Y-130375000D01*
X48537500Y-130375000D01*
X48512996Y-130373796D01*
X48488727Y-130370196D01*
X48464929Y-130364235D01*
X48441829Y-130355970D01*
X48419651Y-130345480D01*
X48398607Y-130332867D01*
X48378902Y-130318253D01*
X48360723Y-130301777D01*
X48344247Y-130283598D01*
X48329633Y-130263893D01*
X48317020Y-130242849D01*
X48306530Y-130220671D01*
X48298265Y-130197571D01*
X48292304Y-130173773D01*
X48288704Y-130149504D01*
X48287500Y-130125000D01*
X48287500Y-128875000D01*
X48288704Y-128850496D01*
X48292304Y-128826227D01*
X48298265Y-128802429D01*
X48306530Y-128779329D01*
X48317020Y-128757151D01*
X48329633Y-128736107D01*
X48344247Y-128716402D01*
X48360723Y-128698223D01*
X48378902Y-128681747D01*
X48398607Y-128667133D01*
X48419651Y-128654520D01*
X48441829Y-128644030D01*
X48464929Y-128635765D01*
X48488727Y-128629804D01*
X48512996Y-128626204D01*
X48537500Y-128625000D01*
X49462500Y-128625000D01*
X49487004Y-128626204D01*
X49487004Y-128626204D01*
G37*
D12*
X49000000Y-129500000D03*
D10*
G36*
X52462004Y-132626204D02*
G01*
X52486273Y-132629804D01*
X52510071Y-132635765D01*
X52533171Y-132644030D01*
X52555349Y-132654520D01*
X52576393Y-132667133D01*
X52596098Y-132681747D01*
X52614277Y-132698223D01*
X52630753Y-132716402D01*
X52645367Y-132736107D01*
X52657980Y-132757151D01*
X52668470Y-132779329D01*
X52676735Y-132802429D01*
X52682696Y-132826227D01*
X52686296Y-132850496D01*
X52687500Y-132875000D01*
X52687500Y-134125000D01*
X52686296Y-134149504D01*
X52682696Y-134173773D01*
X52676735Y-134197571D01*
X52668470Y-134220671D01*
X52657980Y-134242849D01*
X52645367Y-134263893D01*
X52630753Y-134283598D01*
X52614277Y-134301777D01*
X52596098Y-134318253D01*
X52576393Y-134332867D01*
X52555349Y-134345480D01*
X52533171Y-134355970D01*
X52510071Y-134364235D01*
X52486273Y-134370196D01*
X52462004Y-134373796D01*
X52437500Y-134375000D01*
X51512500Y-134375000D01*
X51487996Y-134373796D01*
X51463727Y-134370196D01*
X51439929Y-134364235D01*
X51416829Y-134355970D01*
X51394651Y-134345480D01*
X51373607Y-134332867D01*
X51353902Y-134318253D01*
X51335723Y-134301777D01*
X51319247Y-134283598D01*
X51304633Y-134263893D01*
X51292020Y-134242849D01*
X51281530Y-134220671D01*
X51273265Y-134197571D01*
X51267304Y-134173773D01*
X51263704Y-134149504D01*
X51262500Y-134125000D01*
X51262500Y-132875000D01*
X51263704Y-132850496D01*
X51267304Y-132826227D01*
X51273265Y-132802429D01*
X51281530Y-132779329D01*
X51292020Y-132757151D01*
X51304633Y-132736107D01*
X51319247Y-132716402D01*
X51335723Y-132698223D01*
X51353902Y-132681747D01*
X51373607Y-132667133D01*
X51394651Y-132654520D01*
X51416829Y-132644030D01*
X51439929Y-132635765D01*
X51463727Y-132629804D01*
X51487996Y-132626204D01*
X51512500Y-132625000D01*
X52437500Y-132625000D01*
X52462004Y-132626204D01*
X52462004Y-132626204D01*
G37*
D12*
X51975000Y-133500000D03*
D10*
G36*
X49487004Y-132626204D02*
G01*
X49511273Y-132629804D01*
X49535071Y-132635765D01*
X49558171Y-132644030D01*
X49580349Y-132654520D01*
X49601393Y-132667133D01*
X49621098Y-132681747D01*
X49639277Y-132698223D01*
X49655753Y-132716402D01*
X49670367Y-132736107D01*
X49682980Y-132757151D01*
X49693470Y-132779329D01*
X49701735Y-132802429D01*
X49707696Y-132826227D01*
X49711296Y-132850496D01*
X49712500Y-132875000D01*
X49712500Y-134125000D01*
X49711296Y-134149504D01*
X49707696Y-134173773D01*
X49701735Y-134197571D01*
X49693470Y-134220671D01*
X49682980Y-134242849D01*
X49670367Y-134263893D01*
X49655753Y-134283598D01*
X49639277Y-134301777D01*
X49621098Y-134318253D01*
X49601393Y-134332867D01*
X49580349Y-134345480D01*
X49558171Y-134355970D01*
X49535071Y-134364235D01*
X49511273Y-134370196D01*
X49487004Y-134373796D01*
X49462500Y-134375000D01*
X48537500Y-134375000D01*
X48512996Y-134373796D01*
X48488727Y-134370196D01*
X48464929Y-134364235D01*
X48441829Y-134355970D01*
X48419651Y-134345480D01*
X48398607Y-134332867D01*
X48378902Y-134318253D01*
X48360723Y-134301777D01*
X48344247Y-134283598D01*
X48329633Y-134263893D01*
X48317020Y-134242849D01*
X48306530Y-134220671D01*
X48298265Y-134197571D01*
X48292304Y-134173773D01*
X48288704Y-134149504D01*
X48287500Y-134125000D01*
X48287500Y-132875000D01*
X48288704Y-132850496D01*
X48292304Y-132826227D01*
X48298265Y-132802429D01*
X48306530Y-132779329D01*
X48317020Y-132757151D01*
X48329633Y-132736107D01*
X48344247Y-132716402D01*
X48360723Y-132698223D01*
X48378902Y-132681747D01*
X48398607Y-132667133D01*
X48419651Y-132654520D01*
X48441829Y-132644030D01*
X48464929Y-132635765D01*
X48488727Y-132629804D01*
X48512996Y-132626204D01*
X48537500Y-132625000D01*
X49462500Y-132625000D01*
X49487004Y-132626204D01*
X49487004Y-132626204D01*
G37*
D12*
X49000000Y-133500000D03*
D10*
G36*
X41474504Y-128626204D02*
G01*
X41498773Y-128629804D01*
X41522571Y-128635765D01*
X41545671Y-128644030D01*
X41567849Y-128654520D01*
X41588893Y-128667133D01*
X41608598Y-128681747D01*
X41626777Y-128698223D01*
X41643253Y-128716402D01*
X41657867Y-128736107D01*
X41670480Y-128757151D01*
X41680970Y-128779329D01*
X41689235Y-128802429D01*
X41695196Y-128826227D01*
X41698796Y-128850496D01*
X41700000Y-128875000D01*
X41700000Y-130125000D01*
X41698796Y-130149504D01*
X41695196Y-130173773D01*
X41689235Y-130197571D01*
X41680970Y-130220671D01*
X41670480Y-130242849D01*
X41657867Y-130263893D01*
X41643253Y-130283598D01*
X41626777Y-130301777D01*
X41608598Y-130318253D01*
X41588893Y-130332867D01*
X41567849Y-130345480D01*
X41545671Y-130355970D01*
X41522571Y-130364235D01*
X41498773Y-130370196D01*
X41474504Y-130373796D01*
X41450000Y-130375000D01*
X40525000Y-130375000D01*
X40500496Y-130373796D01*
X40476227Y-130370196D01*
X40452429Y-130364235D01*
X40429329Y-130355970D01*
X40407151Y-130345480D01*
X40386107Y-130332867D01*
X40366402Y-130318253D01*
X40348223Y-130301777D01*
X40331747Y-130283598D01*
X40317133Y-130263893D01*
X40304520Y-130242849D01*
X40294030Y-130220671D01*
X40285765Y-130197571D01*
X40279804Y-130173773D01*
X40276204Y-130149504D01*
X40275000Y-130125000D01*
X40275000Y-128875000D01*
X40276204Y-128850496D01*
X40279804Y-128826227D01*
X40285765Y-128802429D01*
X40294030Y-128779329D01*
X40304520Y-128757151D01*
X40317133Y-128736107D01*
X40331747Y-128716402D01*
X40348223Y-128698223D01*
X40366402Y-128681747D01*
X40386107Y-128667133D01*
X40407151Y-128654520D01*
X40429329Y-128644030D01*
X40452429Y-128635765D01*
X40476227Y-128629804D01*
X40500496Y-128626204D01*
X40525000Y-128625000D01*
X41450000Y-128625000D01*
X41474504Y-128626204D01*
X41474504Y-128626204D01*
G37*
D12*
X40987500Y-129500000D03*
D10*
G36*
X38499504Y-128626204D02*
G01*
X38523773Y-128629804D01*
X38547571Y-128635765D01*
X38570671Y-128644030D01*
X38592849Y-128654520D01*
X38613893Y-128667133D01*
X38633598Y-128681747D01*
X38651777Y-128698223D01*
X38668253Y-128716402D01*
X38682867Y-128736107D01*
X38695480Y-128757151D01*
X38705970Y-128779329D01*
X38714235Y-128802429D01*
X38720196Y-128826227D01*
X38723796Y-128850496D01*
X38725000Y-128875000D01*
X38725000Y-130125000D01*
X38723796Y-130149504D01*
X38720196Y-130173773D01*
X38714235Y-130197571D01*
X38705970Y-130220671D01*
X38695480Y-130242849D01*
X38682867Y-130263893D01*
X38668253Y-130283598D01*
X38651777Y-130301777D01*
X38633598Y-130318253D01*
X38613893Y-130332867D01*
X38592849Y-130345480D01*
X38570671Y-130355970D01*
X38547571Y-130364235D01*
X38523773Y-130370196D01*
X38499504Y-130373796D01*
X38475000Y-130375000D01*
X37550000Y-130375000D01*
X37525496Y-130373796D01*
X37501227Y-130370196D01*
X37477429Y-130364235D01*
X37454329Y-130355970D01*
X37432151Y-130345480D01*
X37411107Y-130332867D01*
X37391402Y-130318253D01*
X37373223Y-130301777D01*
X37356747Y-130283598D01*
X37342133Y-130263893D01*
X37329520Y-130242849D01*
X37319030Y-130220671D01*
X37310765Y-130197571D01*
X37304804Y-130173773D01*
X37301204Y-130149504D01*
X37300000Y-130125000D01*
X37300000Y-128875000D01*
X37301204Y-128850496D01*
X37304804Y-128826227D01*
X37310765Y-128802429D01*
X37319030Y-128779329D01*
X37329520Y-128757151D01*
X37342133Y-128736107D01*
X37356747Y-128716402D01*
X37373223Y-128698223D01*
X37391402Y-128681747D01*
X37411107Y-128667133D01*
X37432151Y-128654520D01*
X37454329Y-128644030D01*
X37477429Y-128635765D01*
X37501227Y-128629804D01*
X37525496Y-128626204D01*
X37550000Y-128625000D01*
X38475000Y-128625000D01*
X38499504Y-128626204D01*
X38499504Y-128626204D01*
G37*
D12*
X38012500Y-129500000D03*
D10*
G36*
X41474504Y-132626204D02*
G01*
X41498773Y-132629804D01*
X41522571Y-132635765D01*
X41545671Y-132644030D01*
X41567849Y-132654520D01*
X41588893Y-132667133D01*
X41608598Y-132681747D01*
X41626777Y-132698223D01*
X41643253Y-132716402D01*
X41657867Y-132736107D01*
X41670480Y-132757151D01*
X41680970Y-132779329D01*
X41689235Y-132802429D01*
X41695196Y-132826227D01*
X41698796Y-132850496D01*
X41700000Y-132875000D01*
X41700000Y-134125000D01*
X41698796Y-134149504D01*
X41695196Y-134173773D01*
X41689235Y-134197571D01*
X41680970Y-134220671D01*
X41670480Y-134242849D01*
X41657867Y-134263893D01*
X41643253Y-134283598D01*
X41626777Y-134301777D01*
X41608598Y-134318253D01*
X41588893Y-134332867D01*
X41567849Y-134345480D01*
X41545671Y-134355970D01*
X41522571Y-134364235D01*
X41498773Y-134370196D01*
X41474504Y-134373796D01*
X41450000Y-134375000D01*
X40525000Y-134375000D01*
X40500496Y-134373796D01*
X40476227Y-134370196D01*
X40452429Y-134364235D01*
X40429329Y-134355970D01*
X40407151Y-134345480D01*
X40386107Y-134332867D01*
X40366402Y-134318253D01*
X40348223Y-134301777D01*
X40331747Y-134283598D01*
X40317133Y-134263893D01*
X40304520Y-134242849D01*
X40294030Y-134220671D01*
X40285765Y-134197571D01*
X40279804Y-134173773D01*
X40276204Y-134149504D01*
X40275000Y-134125000D01*
X40275000Y-132875000D01*
X40276204Y-132850496D01*
X40279804Y-132826227D01*
X40285765Y-132802429D01*
X40294030Y-132779329D01*
X40304520Y-132757151D01*
X40317133Y-132736107D01*
X40331747Y-132716402D01*
X40348223Y-132698223D01*
X40366402Y-132681747D01*
X40386107Y-132667133D01*
X40407151Y-132654520D01*
X40429329Y-132644030D01*
X40452429Y-132635765D01*
X40476227Y-132629804D01*
X40500496Y-132626204D01*
X40525000Y-132625000D01*
X41450000Y-132625000D01*
X41474504Y-132626204D01*
X41474504Y-132626204D01*
G37*
D12*
X40987500Y-133500000D03*
D10*
G36*
X38499504Y-132626204D02*
G01*
X38523773Y-132629804D01*
X38547571Y-132635765D01*
X38570671Y-132644030D01*
X38592849Y-132654520D01*
X38613893Y-132667133D01*
X38633598Y-132681747D01*
X38651777Y-132698223D01*
X38668253Y-132716402D01*
X38682867Y-132736107D01*
X38695480Y-132757151D01*
X38705970Y-132779329D01*
X38714235Y-132802429D01*
X38720196Y-132826227D01*
X38723796Y-132850496D01*
X38725000Y-132875000D01*
X38725000Y-134125000D01*
X38723796Y-134149504D01*
X38720196Y-134173773D01*
X38714235Y-134197571D01*
X38705970Y-134220671D01*
X38695480Y-134242849D01*
X38682867Y-134263893D01*
X38668253Y-134283598D01*
X38651777Y-134301777D01*
X38633598Y-134318253D01*
X38613893Y-134332867D01*
X38592849Y-134345480D01*
X38570671Y-134355970D01*
X38547571Y-134364235D01*
X38523773Y-134370196D01*
X38499504Y-134373796D01*
X38475000Y-134375000D01*
X37550000Y-134375000D01*
X37525496Y-134373796D01*
X37501227Y-134370196D01*
X37477429Y-134364235D01*
X37454329Y-134355970D01*
X37432151Y-134345480D01*
X37411107Y-134332867D01*
X37391402Y-134318253D01*
X37373223Y-134301777D01*
X37356747Y-134283598D01*
X37342133Y-134263893D01*
X37329520Y-134242849D01*
X37319030Y-134220671D01*
X37310765Y-134197571D01*
X37304804Y-134173773D01*
X37301204Y-134149504D01*
X37300000Y-134125000D01*
X37300000Y-132875000D01*
X37301204Y-132850496D01*
X37304804Y-132826227D01*
X37310765Y-132802429D01*
X37319030Y-132779329D01*
X37329520Y-132757151D01*
X37342133Y-132736107D01*
X37356747Y-132716402D01*
X37373223Y-132698223D01*
X37391402Y-132681747D01*
X37411107Y-132667133D01*
X37432151Y-132654520D01*
X37454329Y-132644030D01*
X37477429Y-132635765D01*
X37501227Y-132629804D01*
X37525496Y-132626204D01*
X37550000Y-132625000D01*
X38475000Y-132625000D01*
X38499504Y-132626204D01*
X38499504Y-132626204D01*
G37*
D12*
X38012500Y-133500000D03*
D10*
G36*
X30462004Y-128638704D02*
G01*
X30486273Y-128642304D01*
X30510071Y-128648265D01*
X30533171Y-128656530D01*
X30555349Y-128667020D01*
X30576393Y-128679633D01*
X30596098Y-128694247D01*
X30614277Y-128710723D01*
X30630753Y-128728902D01*
X30645367Y-128748607D01*
X30657980Y-128769651D01*
X30668470Y-128791829D01*
X30676735Y-128814929D01*
X30682696Y-128838727D01*
X30686296Y-128862996D01*
X30687500Y-128887500D01*
X30687500Y-130137500D01*
X30686296Y-130162004D01*
X30682696Y-130186273D01*
X30676735Y-130210071D01*
X30668470Y-130233171D01*
X30657980Y-130255349D01*
X30645367Y-130276393D01*
X30630753Y-130296098D01*
X30614277Y-130314277D01*
X30596098Y-130330753D01*
X30576393Y-130345367D01*
X30555349Y-130357980D01*
X30533171Y-130368470D01*
X30510071Y-130376735D01*
X30486273Y-130382696D01*
X30462004Y-130386296D01*
X30437500Y-130387500D01*
X29512500Y-130387500D01*
X29487996Y-130386296D01*
X29463727Y-130382696D01*
X29439929Y-130376735D01*
X29416829Y-130368470D01*
X29394651Y-130357980D01*
X29373607Y-130345367D01*
X29353902Y-130330753D01*
X29335723Y-130314277D01*
X29319247Y-130296098D01*
X29304633Y-130276393D01*
X29292020Y-130255349D01*
X29281530Y-130233171D01*
X29273265Y-130210071D01*
X29267304Y-130186273D01*
X29263704Y-130162004D01*
X29262500Y-130137500D01*
X29262500Y-128887500D01*
X29263704Y-128862996D01*
X29267304Y-128838727D01*
X29273265Y-128814929D01*
X29281530Y-128791829D01*
X29292020Y-128769651D01*
X29304633Y-128748607D01*
X29319247Y-128728902D01*
X29335723Y-128710723D01*
X29353902Y-128694247D01*
X29373607Y-128679633D01*
X29394651Y-128667020D01*
X29416829Y-128656530D01*
X29439929Y-128648265D01*
X29463727Y-128642304D01*
X29487996Y-128638704D01*
X29512500Y-128637500D01*
X30437500Y-128637500D01*
X30462004Y-128638704D01*
X30462004Y-128638704D01*
G37*
D12*
X29975000Y-129512500D03*
D10*
G36*
X27487004Y-128638704D02*
G01*
X27511273Y-128642304D01*
X27535071Y-128648265D01*
X27558171Y-128656530D01*
X27580349Y-128667020D01*
X27601393Y-128679633D01*
X27621098Y-128694247D01*
X27639277Y-128710723D01*
X27655753Y-128728902D01*
X27670367Y-128748607D01*
X27682980Y-128769651D01*
X27693470Y-128791829D01*
X27701735Y-128814929D01*
X27707696Y-128838727D01*
X27711296Y-128862996D01*
X27712500Y-128887500D01*
X27712500Y-130137500D01*
X27711296Y-130162004D01*
X27707696Y-130186273D01*
X27701735Y-130210071D01*
X27693470Y-130233171D01*
X27682980Y-130255349D01*
X27670367Y-130276393D01*
X27655753Y-130296098D01*
X27639277Y-130314277D01*
X27621098Y-130330753D01*
X27601393Y-130345367D01*
X27580349Y-130357980D01*
X27558171Y-130368470D01*
X27535071Y-130376735D01*
X27511273Y-130382696D01*
X27487004Y-130386296D01*
X27462500Y-130387500D01*
X26537500Y-130387500D01*
X26512996Y-130386296D01*
X26488727Y-130382696D01*
X26464929Y-130376735D01*
X26441829Y-130368470D01*
X26419651Y-130357980D01*
X26398607Y-130345367D01*
X26378902Y-130330753D01*
X26360723Y-130314277D01*
X26344247Y-130296098D01*
X26329633Y-130276393D01*
X26317020Y-130255349D01*
X26306530Y-130233171D01*
X26298265Y-130210071D01*
X26292304Y-130186273D01*
X26288704Y-130162004D01*
X26287500Y-130137500D01*
X26287500Y-128887500D01*
X26288704Y-128862996D01*
X26292304Y-128838727D01*
X26298265Y-128814929D01*
X26306530Y-128791829D01*
X26317020Y-128769651D01*
X26329633Y-128748607D01*
X26344247Y-128728902D01*
X26360723Y-128710723D01*
X26378902Y-128694247D01*
X26398607Y-128679633D01*
X26419651Y-128667020D01*
X26441829Y-128656530D01*
X26464929Y-128648265D01*
X26488727Y-128642304D01*
X26512996Y-128638704D01*
X26537500Y-128637500D01*
X27462500Y-128637500D01*
X27487004Y-128638704D01*
X27487004Y-128638704D01*
G37*
D12*
X27000000Y-129512500D03*
D10*
G36*
X30474504Y-132626204D02*
G01*
X30498773Y-132629804D01*
X30522571Y-132635765D01*
X30545671Y-132644030D01*
X30567849Y-132654520D01*
X30588893Y-132667133D01*
X30608598Y-132681747D01*
X30626777Y-132698223D01*
X30643253Y-132716402D01*
X30657867Y-132736107D01*
X30670480Y-132757151D01*
X30680970Y-132779329D01*
X30689235Y-132802429D01*
X30695196Y-132826227D01*
X30698796Y-132850496D01*
X30700000Y-132875000D01*
X30700000Y-134125000D01*
X30698796Y-134149504D01*
X30695196Y-134173773D01*
X30689235Y-134197571D01*
X30680970Y-134220671D01*
X30670480Y-134242849D01*
X30657867Y-134263893D01*
X30643253Y-134283598D01*
X30626777Y-134301777D01*
X30608598Y-134318253D01*
X30588893Y-134332867D01*
X30567849Y-134345480D01*
X30545671Y-134355970D01*
X30522571Y-134364235D01*
X30498773Y-134370196D01*
X30474504Y-134373796D01*
X30450000Y-134375000D01*
X29525000Y-134375000D01*
X29500496Y-134373796D01*
X29476227Y-134370196D01*
X29452429Y-134364235D01*
X29429329Y-134355970D01*
X29407151Y-134345480D01*
X29386107Y-134332867D01*
X29366402Y-134318253D01*
X29348223Y-134301777D01*
X29331747Y-134283598D01*
X29317133Y-134263893D01*
X29304520Y-134242849D01*
X29294030Y-134220671D01*
X29285765Y-134197571D01*
X29279804Y-134173773D01*
X29276204Y-134149504D01*
X29275000Y-134125000D01*
X29275000Y-132875000D01*
X29276204Y-132850496D01*
X29279804Y-132826227D01*
X29285765Y-132802429D01*
X29294030Y-132779329D01*
X29304520Y-132757151D01*
X29317133Y-132736107D01*
X29331747Y-132716402D01*
X29348223Y-132698223D01*
X29366402Y-132681747D01*
X29386107Y-132667133D01*
X29407151Y-132654520D01*
X29429329Y-132644030D01*
X29452429Y-132635765D01*
X29476227Y-132629804D01*
X29500496Y-132626204D01*
X29525000Y-132625000D01*
X30450000Y-132625000D01*
X30474504Y-132626204D01*
X30474504Y-132626204D01*
G37*
D12*
X29987500Y-133500000D03*
D10*
G36*
X27499504Y-132626204D02*
G01*
X27523773Y-132629804D01*
X27547571Y-132635765D01*
X27570671Y-132644030D01*
X27592849Y-132654520D01*
X27613893Y-132667133D01*
X27633598Y-132681747D01*
X27651777Y-132698223D01*
X27668253Y-132716402D01*
X27682867Y-132736107D01*
X27695480Y-132757151D01*
X27705970Y-132779329D01*
X27714235Y-132802429D01*
X27720196Y-132826227D01*
X27723796Y-132850496D01*
X27725000Y-132875000D01*
X27725000Y-134125000D01*
X27723796Y-134149504D01*
X27720196Y-134173773D01*
X27714235Y-134197571D01*
X27705970Y-134220671D01*
X27695480Y-134242849D01*
X27682867Y-134263893D01*
X27668253Y-134283598D01*
X27651777Y-134301777D01*
X27633598Y-134318253D01*
X27613893Y-134332867D01*
X27592849Y-134345480D01*
X27570671Y-134355970D01*
X27547571Y-134364235D01*
X27523773Y-134370196D01*
X27499504Y-134373796D01*
X27475000Y-134375000D01*
X26550000Y-134375000D01*
X26525496Y-134373796D01*
X26501227Y-134370196D01*
X26477429Y-134364235D01*
X26454329Y-134355970D01*
X26432151Y-134345480D01*
X26411107Y-134332867D01*
X26391402Y-134318253D01*
X26373223Y-134301777D01*
X26356747Y-134283598D01*
X26342133Y-134263893D01*
X26329520Y-134242849D01*
X26319030Y-134220671D01*
X26310765Y-134197571D01*
X26304804Y-134173773D01*
X26301204Y-134149504D01*
X26300000Y-134125000D01*
X26300000Y-132875000D01*
X26301204Y-132850496D01*
X26304804Y-132826227D01*
X26310765Y-132802429D01*
X26319030Y-132779329D01*
X26329520Y-132757151D01*
X26342133Y-132736107D01*
X26356747Y-132716402D01*
X26373223Y-132698223D01*
X26391402Y-132681747D01*
X26411107Y-132667133D01*
X26432151Y-132654520D01*
X26454329Y-132644030D01*
X26477429Y-132635765D01*
X26501227Y-132629804D01*
X26525496Y-132626204D01*
X26550000Y-132625000D01*
X27475000Y-132625000D01*
X27499504Y-132626204D01*
X27499504Y-132626204D01*
G37*
D12*
X27012500Y-133500000D03*
M02*
