M48
; DRILL file {KiCad (5.1.4)-1} date 16/03/2020 2:33:01 AM
; FORMAT={-:-/ absolute / inch / decimal}
; #@! TF.CreationDate,2020-03-16T02:33:01+08:00
; #@! TF.GenerationSoftware,Kicad,Pcbnew,(5.1.4)-1
; #@! TF.FileFunction,Plated,1,2,PTH
FMAT,2
INCH
T1C0.0400
T2C0.0472
T3C0.0551
T4C0.0591
%
G90
G05
T1
X3.4646Y-1.7898
X3.4646Y-1.8898
X3.5646Y-1.7898
X3.5646Y-1.8898
X3.6646Y-1.7898
X3.6646Y-1.8898
X3.7646Y-1.7898
X3.7646Y-1.8898
X3.8646Y-1.7898
X3.8646Y-1.8898
X3.9646Y-1.7898
X3.9646Y-1.8898
X4.0646Y-1.7898
X4.0646Y-1.8898
X4.1646Y-1.7898
X4.1646Y-1.8898
X4.2646Y-1.7898
X4.2646Y-1.8898
X4.3646Y-1.7898
X4.3646Y-1.8898
T2
X3.2496Y-5.4878
X3.3996Y-5.4878
X3.5496Y-5.4878
X3.6996Y-5.4878
X3.8496Y-5.4878
X3.9996Y-5.4878
X4.1496Y-5.4878
X4.2996Y-5.4878
X4.4496Y-5.4878
X3.622Y-2.8346
X3.772Y-2.8346
X3.922Y-2.8346
X4.072Y-2.8346
X4.222Y-2.8346
X4.372Y-2.8346
X4.522Y-2.8346
X4.672Y-2.8346
X4.822Y-2.8346
X3.622Y-3.3071
X3.772Y-3.3071
X3.922Y-3.3071
X4.072Y-3.3071
X4.222Y-3.3071
X4.372Y-3.3071
X4.522Y-3.3071
X4.672Y-3.3071
X4.822Y-3.3071
X3.622Y-2.3228
X3.772Y-2.3228
X3.922Y-2.3228
X4.072Y-2.3228
X4.222Y-2.3228
X4.372Y-2.3228
X4.522Y-2.3228
X4.672Y-2.3228
X4.822Y-2.3228
T3
X1.378Y-1.8898
X1.578Y-1.8898
X1.778Y-1.8898
X1.978Y-1.8898
X2.178Y-1.8898
X2.378Y-1.8898
X2.578Y-1.8898
X2.778Y-1.8898
X2.978Y-1.8898
X1.3701Y-5.3976
X1.5701Y-5.3976
X1.7701Y-5.3976
X1.9701Y-5.3976
X2.1701Y-5.3976
X2.3701Y-5.3976
X2.5701Y-5.3976
X2.7701Y-5.3976
X2.9701Y-5.3976
X1.378Y-2.5984
X1.578Y-2.5984
X1.778Y-2.5984
X1.978Y-2.5984
X2.178Y-2.5984
X2.378Y-2.5984
X2.578Y-2.5984
X2.778Y-2.5984
X2.978Y-2.5984
X1.378Y-3.2677
X1.578Y-3.2677
X1.778Y-3.2677
X1.978Y-3.2677
X2.178Y-3.2677
X2.378Y-3.2677
X2.578Y-3.2677
X2.778Y-3.2677
X2.978Y-3.2677
T4
X1.5551Y-3.8976
X1.5551Y-4.7874
X2.4213Y-3.8976
X2.4213Y-4.7874
X3.2874Y-3.8976
X3.2874Y-4.7874
X3.7205Y-3.8976
X3.7205Y-4.7874
X4.5866Y-3.8976
X4.5866Y-4.7874
X2.8543Y-3.8976
X2.8543Y-4.7874
X1.9882Y-3.8976
X1.9882Y-4.7874
X4.1535Y-3.8976
X4.1535Y-4.7874
X1.122Y-3.8976
X1.122Y-4.7874
T0
M30
