%TF.GenerationSoftware,KiCad,Pcbnew,(5.1.4)-1*%
%TF.CreationDate,2020-03-16T02:32:59+08:00*%
%TF.ProjectId,9p-parallel-fused,39702d70-6172-4616-9c6c-656c2d667573,rev?*%
%TF.SameCoordinates,Original*%
%TF.FileFunction,Soldermask,Top*%
%TF.FilePolarity,Negative*%
%FSLAX46Y46*%
G04 Gerber Fmt 4.6, Leading zero omitted, Abs format (unit mm)*
G04 Created by KiCad (PCBNEW (5.1.4)-1) date 2020-03-16 02:32:59*
%MOMM*%
%LPD*%
G04 APERTURE LIST*
%ADD10R,1.500000X1.000000*%
%ADD11O,1.800000X3.600000*%
%ADD12C,0.100000*%
%ADD13C,1.800000*%
%ADD14O,1.727200X1.727200*%
%ADD15R,1.727200X1.727200*%
%ADD16C,4.300000*%
%ADD17C,3.000000*%
G04 APERTURE END LIST*
D10*
%TO.C,JP9*%
X116500000Y-105850000D03*
X116500000Y-107150000D03*
%TD*%
%TO.C,JP8*%
X105500000Y-105850000D03*
X105500000Y-107150000D03*
%TD*%
%TO.C,JP7*%
X94500000Y-105850000D03*
X94500000Y-107150000D03*
%TD*%
%TO.C,JP6*%
X83500000Y-105850000D03*
X83500000Y-107150000D03*
%TD*%
%TO.C,JP5*%
X72500000Y-105850000D03*
X72500000Y-107150000D03*
%TD*%
%TO.C,JP4*%
X61500000Y-105850000D03*
X61500000Y-107150000D03*
%TD*%
%TO.C,JP3*%
X50500000Y-105850000D03*
X50500000Y-107150000D03*
%TD*%
%TO.C,JP2*%
X39500000Y-105850000D03*
X39500000Y-107150000D03*
%TD*%
%TO.C,JP1*%
X28500000Y-105850000D03*
X28500000Y-107150000D03*
%TD*%
D11*
%TO.C,J5*%
X75640000Y-66000000D03*
X70560000Y-66000000D03*
X65480000Y-66000000D03*
X60400000Y-66000000D03*
X55320000Y-66000000D03*
X50240000Y-66000000D03*
X45160000Y-66000000D03*
X40080000Y-66000000D03*
D12*
G36*
X35674324Y-64201205D02*
G01*
X35698612Y-64204808D01*
X35722429Y-64210774D01*
X35745547Y-64219045D01*
X35767743Y-64229543D01*
X35788804Y-64242166D01*
X35808525Y-64256793D01*
X35826718Y-64273282D01*
X35843207Y-64291475D01*
X35857834Y-64311196D01*
X35870457Y-64332257D01*
X35880955Y-64354453D01*
X35889226Y-64377571D01*
X35895192Y-64401388D01*
X35898795Y-64425676D01*
X35900000Y-64450200D01*
X35900000Y-67549800D01*
X35898795Y-67574324D01*
X35895192Y-67598612D01*
X35889226Y-67622429D01*
X35880955Y-67645547D01*
X35870457Y-67667743D01*
X35857834Y-67688804D01*
X35843207Y-67708525D01*
X35826718Y-67726718D01*
X35808525Y-67743207D01*
X35788804Y-67757834D01*
X35767743Y-67770457D01*
X35745547Y-67780955D01*
X35722429Y-67789226D01*
X35698612Y-67795192D01*
X35674324Y-67798795D01*
X35649800Y-67800000D01*
X34350200Y-67800000D01*
X34325676Y-67798795D01*
X34301388Y-67795192D01*
X34277571Y-67789226D01*
X34254453Y-67780955D01*
X34232257Y-67770457D01*
X34211196Y-67757834D01*
X34191475Y-67743207D01*
X34173282Y-67726718D01*
X34156793Y-67708525D01*
X34142166Y-67688804D01*
X34129543Y-67667743D01*
X34119045Y-67645547D01*
X34110774Y-67622429D01*
X34104808Y-67598612D01*
X34101205Y-67574324D01*
X34100000Y-67549800D01*
X34100000Y-64450200D01*
X34101205Y-64425676D01*
X34104808Y-64401388D01*
X34110774Y-64377571D01*
X34119045Y-64354453D01*
X34129543Y-64332257D01*
X34142166Y-64311196D01*
X34156793Y-64291475D01*
X34173282Y-64273282D01*
X34191475Y-64256793D01*
X34211196Y-64242166D01*
X34232257Y-64229543D01*
X34254453Y-64219045D01*
X34277571Y-64210774D01*
X34301388Y-64204808D01*
X34325676Y-64201205D01*
X34350200Y-64200000D01*
X35649800Y-64200000D01*
X35674324Y-64201205D01*
X35674324Y-64201205D01*
G37*
D13*
X35000000Y-66000000D03*
%TD*%
D11*
%TO.C,J4*%
X75640000Y-83000000D03*
X70560000Y-83000000D03*
X65480000Y-83000000D03*
X60400000Y-83000000D03*
X55320000Y-83000000D03*
X50240000Y-83000000D03*
X45160000Y-83000000D03*
X40080000Y-83000000D03*
D12*
G36*
X35674324Y-81201205D02*
G01*
X35698612Y-81204808D01*
X35722429Y-81210774D01*
X35745547Y-81219045D01*
X35767743Y-81229543D01*
X35788804Y-81242166D01*
X35808525Y-81256793D01*
X35826718Y-81273282D01*
X35843207Y-81291475D01*
X35857834Y-81311196D01*
X35870457Y-81332257D01*
X35880955Y-81354453D01*
X35889226Y-81377571D01*
X35895192Y-81401388D01*
X35898795Y-81425676D01*
X35900000Y-81450200D01*
X35900000Y-84549800D01*
X35898795Y-84574324D01*
X35895192Y-84598612D01*
X35889226Y-84622429D01*
X35880955Y-84645547D01*
X35870457Y-84667743D01*
X35857834Y-84688804D01*
X35843207Y-84708525D01*
X35826718Y-84726718D01*
X35808525Y-84743207D01*
X35788804Y-84757834D01*
X35767743Y-84770457D01*
X35745547Y-84780955D01*
X35722429Y-84789226D01*
X35698612Y-84795192D01*
X35674324Y-84798795D01*
X35649800Y-84800000D01*
X34350200Y-84800000D01*
X34325676Y-84798795D01*
X34301388Y-84795192D01*
X34277571Y-84789226D01*
X34254453Y-84780955D01*
X34232257Y-84770457D01*
X34211196Y-84757834D01*
X34191475Y-84743207D01*
X34173282Y-84726718D01*
X34156793Y-84708525D01*
X34142166Y-84688804D01*
X34129543Y-84667743D01*
X34119045Y-84645547D01*
X34110774Y-84622429D01*
X34104808Y-84598612D01*
X34101205Y-84574324D01*
X34100000Y-84549800D01*
X34100000Y-81450200D01*
X34101205Y-81425676D01*
X34104808Y-81401388D01*
X34110774Y-81377571D01*
X34119045Y-81354453D01*
X34129543Y-81332257D01*
X34142166Y-81311196D01*
X34156793Y-81291475D01*
X34173282Y-81273282D01*
X34191475Y-81256793D01*
X34211196Y-81242166D01*
X34232257Y-81229543D01*
X34254453Y-81219045D01*
X34277571Y-81210774D01*
X34301388Y-81204808D01*
X34325676Y-81201205D01*
X34350200Y-81200000D01*
X35649800Y-81200000D01*
X35674324Y-81201205D01*
X35674324Y-81201205D01*
G37*
D13*
X35000000Y-83000000D03*
%TD*%
D11*
%TO.C,J3*%
X75640000Y-48000000D03*
X70560000Y-48000000D03*
X65480000Y-48000000D03*
X60400000Y-48000000D03*
X55320000Y-48000000D03*
X50240000Y-48000000D03*
X45160000Y-48000000D03*
X40080000Y-48000000D03*
D12*
G36*
X35674324Y-46201205D02*
G01*
X35698612Y-46204808D01*
X35722429Y-46210774D01*
X35745547Y-46219045D01*
X35767743Y-46229543D01*
X35788804Y-46242166D01*
X35808525Y-46256793D01*
X35826718Y-46273282D01*
X35843207Y-46291475D01*
X35857834Y-46311196D01*
X35870457Y-46332257D01*
X35880955Y-46354453D01*
X35889226Y-46377571D01*
X35895192Y-46401388D01*
X35898795Y-46425676D01*
X35900000Y-46450200D01*
X35900000Y-49549800D01*
X35898795Y-49574324D01*
X35895192Y-49598612D01*
X35889226Y-49622429D01*
X35880955Y-49645547D01*
X35870457Y-49667743D01*
X35857834Y-49688804D01*
X35843207Y-49708525D01*
X35826718Y-49726718D01*
X35808525Y-49743207D01*
X35788804Y-49757834D01*
X35767743Y-49770457D01*
X35745547Y-49780955D01*
X35722429Y-49789226D01*
X35698612Y-49795192D01*
X35674324Y-49798795D01*
X35649800Y-49800000D01*
X34350200Y-49800000D01*
X34325676Y-49798795D01*
X34301388Y-49795192D01*
X34277571Y-49789226D01*
X34254453Y-49780955D01*
X34232257Y-49770457D01*
X34211196Y-49757834D01*
X34191475Y-49743207D01*
X34173282Y-49726718D01*
X34156793Y-49708525D01*
X34142166Y-49688804D01*
X34129543Y-49667743D01*
X34119045Y-49645547D01*
X34110774Y-49622429D01*
X34104808Y-49598612D01*
X34101205Y-49574324D01*
X34100000Y-49549800D01*
X34100000Y-46450200D01*
X34101205Y-46425676D01*
X34104808Y-46401388D01*
X34110774Y-46377571D01*
X34119045Y-46354453D01*
X34129543Y-46332257D01*
X34142166Y-46311196D01*
X34156793Y-46291475D01*
X34173282Y-46273282D01*
X34191475Y-46256793D01*
X34211196Y-46242166D01*
X34232257Y-46229543D01*
X34254453Y-46219045D01*
X34277571Y-46210774D01*
X34301388Y-46204808D01*
X34325676Y-46201205D01*
X34350200Y-46200000D01*
X35649800Y-46200000D01*
X35674324Y-46201205D01*
X35674324Y-46201205D01*
G37*
D13*
X35000000Y-48000000D03*
%TD*%
D11*
%TO.C,J1*%
X75440000Y-137100000D03*
X70360000Y-137100000D03*
X65280000Y-137100000D03*
X60200000Y-137100000D03*
X55120000Y-137100000D03*
X50040000Y-137100000D03*
X44960000Y-137100000D03*
X39880000Y-137100000D03*
D12*
G36*
X35474324Y-135301205D02*
G01*
X35498612Y-135304808D01*
X35522429Y-135310774D01*
X35545547Y-135319045D01*
X35567743Y-135329543D01*
X35588804Y-135342166D01*
X35608525Y-135356793D01*
X35626718Y-135373282D01*
X35643207Y-135391475D01*
X35657834Y-135411196D01*
X35670457Y-135432257D01*
X35680955Y-135454453D01*
X35689226Y-135477571D01*
X35695192Y-135501388D01*
X35698795Y-135525676D01*
X35700000Y-135550200D01*
X35700000Y-138649800D01*
X35698795Y-138674324D01*
X35695192Y-138698612D01*
X35689226Y-138722429D01*
X35680955Y-138745547D01*
X35670457Y-138767743D01*
X35657834Y-138788804D01*
X35643207Y-138808525D01*
X35626718Y-138826718D01*
X35608525Y-138843207D01*
X35588804Y-138857834D01*
X35567743Y-138870457D01*
X35545547Y-138880955D01*
X35522429Y-138889226D01*
X35498612Y-138895192D01*
X35474324Y-138898795D01*
X35449800Y-138900000D01*
X34150200Y-138900000D01*
X34125676Y-138898795D01*
X34101388Y-138895192D01*
X34077571Y-138889226D01*
X34054453Y-138880955D01*
X34032257Y-138870457D01*
X34011196Y-138857834D01*
X33991475Y-138843207D01*
X33973282Y-138826718D01*
X33956793Y-138808525D01*
X33942166Y-138788804D01*
X33929543Y-138767743D01*
X33919045Y-138745547D01*
X33910774Y-138722429D01*
X33904808Y-138698612D01*
X33901205Y-138674324D01*
X33900000Y-138649800D01*
X33900000Y-135550200D01*
X33901205Y-135525676D01*
X33904808Y-135501388D01*
X33910774Y-135477571D01*
X33919045Y-135454453D01*
X33929543Y-135432257D01*
X33942166Y-135411196D01*
X33956793Y-135391475D01*
X33973282Y-135373282D01*
X33991475Y-135356793D01*
X34011196Y-135342166D01*
X34032257Y-135329543D01*
X34054453Y-135319045D01*
X34077571Y-135310774D01*
X34101388Y-135304808D01*
X34125676Y-135301205D01*
X34150200Y-135300000D01*
X35449800Y-135300000D01*
X35474324Y-135301205D01*
X35474324Y-135301205D01*
G37*
D13*
X34800000Y-137100000D03*
%TD*%
D11*
%TO.C,J2*%
X113020000Y-139390000D03*
X109210000Y-139390000D03*
X105400000Y-139390000D03*
X101590000Y-139390000D03*
X97780000Y-139390000D03*
X93970000Y-139390000D03*
X90160000Y-139390000D03*
X86350000Y-139390000D03*
D12*
G36*
X83214504Y-137591204D02*
G01*
X83238773Y-137594804D01*
X83262571Y-137600765D01*
X83285671Y-137609030D01*
X83307849Y-137619520D01*
X83328893Y-137632133D01*
X83348598Y-137646747D01*
X83366777Y-137663223D01*
X83383253Y-137681402D01*
X83397867Y-137701107D01*
X83410480Y-137722151D01*
X83420970Y-137744329D01*
X83429235Y-137767429D01*
X83435196Y-137791227D01*
X83438796Y-137815496D01*
X83440000Y-137840000D01*
X83440000Y-140940000D01*
X83438796Y-140964504D01*
X83435196Y-140988773D01*
X83429235Y-141012571D01*
X83420970Y-141035671D01*
X83410480Y-141057849D01*
X83397867Y-141078893D01*
X83383253Y-141098598D01*
X83366777Y-141116777D01*
X83348598Y-141133253D01*
X83328893Y-141147867D01*
X83307849Y-141160480D01*
X83285671Y-141170970D01*
X83262571Y-141179235D01*
X83238773Y-141185196D01*
X83214504Y-141188796D01*
X83190000Y-141190000D01*
X81890000Y-141190000D01*
X81865496Y-141188796D01*
X81841227Y-141185196D01*
X81817429Y-141179235D01*
X81794329Y-141170970D01*
X81772151Y-141160480D01*
X81751107Y-141147867D01*
X81731402Y-141133253D01*
X81713223Y-141116777D01*
X81696747Y-141098598D01*
X81682133Y-141078893D01*
X81669520Y-141057849D01*
X81659030Y-141035671D01*
X81650765Y-141012571D01*
X81644804Y-140988773D01*
X81641204Y-140964504D01*
X81640000Y-140940000D01*
X81640000Y-137840000D01*
X81641204Y-137815496D01*
X81644804Y-137791227D01*
X81650765Y-137767429D01*
X81659030Y-137744329D01*
X81669520Y-137722151D01*
X81682133Y-137701107D01*
X81696747Y-137681402D01*
X81713223Y-137663223D01*
X81731402Y-137646747D01*
X81751107Y-137632133D01*
X81772151Y-137619520D01*
X81794329Y-137609030D01*
X81817429Y-137600765D01*
X81841227Y-137594804D01*
X81865496Y-137591204D01*
X81890000Y-137590000D01*
X83190000Y-137590000D01*
X83214504Y-137591204D01*
X83214504Y-137591204D01*
G37*
D13*
X82540000Y-139390000D03*
%TD*%
D14*
%TO.C,J10*%
X110860000Y-45460000D03*
X110860000Y-48000000D03*
X108320000Y-45460000D03*
X108320000Y-48000000D03*
X105780000Y-45460000D03*
X105780000Y-48000000D03*
X103240000Y-45460000D03*
X103240000Y-48000000D03*
X100700000Y-45460000D03*
X100700000Y-48000000D03*
X98160000Y-45460000D03*
X98160000Y-48000000D03*
X95620000Y-45460000D03*
X95620000Y-48000000D03*
X93080000Y-45460000D03*
X93080000Y-48000000D03*
X90540000Y-45460000D03*
X90540000Y-48000000D03*
X88000000Y-45460000D03*
D15*
X88000000Y-48000000D03*
%TD*%
D11*
%TO.C,J9*%
X122480000Y-84000000D03*
X118670000Y-84000000D03*
X114860000Y-84000000D03*
X111050000Y-84000000D03*
X107240000Y-84000000D03*
X103430000Y-84000000D03*
X99620000Y-84000000D03*
X95810000Y-84000000D03*
D12*
G36*
X92674504Y-82201204D02*
G01*
X92698773Y-82204804D01*
X92722571Y-82210765D01*
X92745671Y-82219030D01*
X92767849Y-82229520D01*
X92788893Y-82242133D01*
X92808598Y-82256747D01*
X92826777Y-82273223D01*
X92843253Y-82291402D01*
X92857867Y-82311107D01*
X92870480Y-82332151D01*
X92880970Y-82354329D01*
X92889235Y-82377429D01*
X92895196Y-82401227D01*
X92898796Y-82425496D01*
X92900000Y-82450000D01*
X92900000Y-85550000D01*
X92898796Y-85574504D01*
X92895196Y-85598773D01*
X92889235Y-85622571D01*
X92880970Y-85645671D01*
X92870480Y-85667849D01*
X92857867Y-85688893D01*
X92843253Y-85708598D01*
X92826777Y-85726777D01*
X92808598Y-85743253D01*
X92788893Y-85757867D01*
X92767849Y-85770480D01*
X92745671Y-85780970D01*
X92722571Y-85789235D01*
X92698773Y-85795196D01*
X92674504Y-85798796D01*
X92650000Y-85800000D01*
X91350000Y-85800000D01*
X91325496Y-85798796D01*
X91301227Y-85795196D01*
X91277429Y-85789235D01*
X91254329Y-85780970D01*
X91232151Y-85770480D01*
X91211107Y-85757867D01*
X91191402Y-85743253D01*
X91173223Y-85726777D01*
X91156747Y-85708598D01*
X91142133Y-85688893D01*
X91129520Y-85667849D01*
X91119030Y-85645671D01*
X91110765Y-85622571D01*
X91104804Y-85598773D01*
X91101204Y-85574504D01*
X91100000Y-85550000D01*
X91100000Y-82450000D01*
X91101204Y-82425496D01*
X91104804Y-82401227D01*
X91110765Y-82377429D01*
X91119030Y-82354329D01*
X91129520Y-82332151D01*
X91142133Y-82311107D01*
X91156747Y-82291402D01*
X91173223Y-82273223D01*
X91191402Y-82256747D01*
X91211107Y-82242133D01*
X91232151Y-82229520D01*
X91254329Y-82219030D01*
X91277429Y-82210765D01*
X91301227Y-82204804D01*
X91325496Y-82201204D01*
X91350000Y-82200000D01*
X92650000Y-82200000D01*
X92674504Y-82201204D01*
X92674504Y-82201204D01*
G37*
D13*
X92000000Y-84000000D03*
%TD*%
D11*
%TO.C,J8*%
X122480000Y-72000000D03*
X118670000Y-72000000D03*
X114860000Y-72000000D03*
X111050000Y-72000000D03*
X107240000Y-72000000D03*
X103430000Y-72000000D03*
X99620000Y-72000000D03*
X95810000Y-72000000D03*
D12*
G36*
X92674504Y-70201204D02*
G01*
X92698773Y-70204804D01*
X92722571Y-70210765D01*
X92745671Y-70219030D01*
X92767849Y-70229520D01*
X92788893Y-70242133D01*
X92808598Y-70256747D01*
X92826777Y-70273223D01*
X92843253Y-70291402D01*
X92857867Y-70311107D01*
X92870480Y-70332151D01*
X92880970Y-70354329D01*
X92889235Y-70377429D01*
X92895196Y-70401227D01*
X92898796Y-70425496D01*
X92900000Y-70450000D01*
X92900000Y-73550000D01*
X92898796Y-73574504D01*
X92895196Y-73598773D01*
X92889235Y-73622571D01*
X92880970Y-73645671D01*
X92870480Y-73667849D01*
X92857867Y-73688893D01*
X92843253Y-73708598D01*
X92826777Y-73726777D01*
X92808598Y-73743253D01*
X92788893Y-73757867D01*
X92767849Y-73770480D01*
X92745671Y-73780970D01*
X92722571Y-73789235D01*
X92698773Y-73795196D01*
X92674504Y-73798796D01*
X92650000Y-73800000D01*
X91350000Y-73800000D01*
X91325496Y-73798796D01*
X91301227Y-73795196D01*
X91277429Y-73789235D01*
X91254329Y-73780970D01*
X91232151Y-73770480D01*
X91211107Y-73757867D01*
X91191402Y-73743253D01*
X91173223Y-73726777D01*
X91156747Y-73708598D01*
X91142133Y-73688893D01*
X91129520Y-73667849D01*
X91119030Y-73645671D01*
X91110765Y-73622571D01*
X91104804Y-73598773D01*
X91101204Y-73574504D01*
X91100000Y-73550000D01*
X91100000Y-70450000D01*
X91101204Y-70425496D01*
X91104804Y-70401227D01*
X91110765Y-70377429D01*
X91119030Y-70354329D01*
X91129520Y-70332151D01*
X91142133Y-70311107D01*
X91156747Y-70291402D01*
X91173223Y-70273223D01*
X91191402Y-70256747D01*
X91211107Y-70242133D01*
X91232151Y-70229520D01*
X91254329Y-70219030D01*
X91277429Y-70210765D01*
X91301227Y-70204804D01*
X91325496Y-70201204D01*
X91350000Y-70200000D01*
X92650000Y-70200000D01*
X92674504Y-70201204D01*
X92674504Y-70201204D01*
G37*
D13*
X92000000Y-72000000D03*
%TD*%
D11*
%TO.C,J6*%
X122480000Y-59000000D03*
X118670000Y-59000000D03*
X114860000Y-59000000D03*
X111050000Y-59000000D03*
X107240000Y-59000000D03*
X103430000Y-59000000D03*
X99620000Y-59000000D03*
X95810000Y-59000000D03*
D12*
G36*
X92674504Y-57201204D02*
G01*
X92698773Y-57204804D01*
X92722571Y-57210765D01*
X92745671Y-57219030D01*
X92767849Y-57229520D01*
X92788893Y-57242133D01*
X92808598Y-57256747D01*
X92826777Y-57273223D01*
X92843253Y-57291402D01*
X92857867Y-57311107D01*
X92870480Y-57332151D01*
X92880970Y-57354329D01*
X92889235Y-57377429D01*
X92895196Y-57401227D01*
X92898796Y-57425496D01*
X92900000Y-57450000D01*
X92900000Y-60550000D01*
X92898796Y-60574504D01*
X92895196Y-60598773D01*
X92889235Y-60622571D01*
X92880970Y-60645671D01*
X92870480Y-60667849D01*
X92857867Y-60688893D01*
X92843253Y-60708598D01*
X92826777Y-60726777D01*
X92808598Y-60743253D01*
X92788893Y-60757867D01*
X92767849Y-60770480D01*
X92745671Y-60780970D01*
X92722571Y-60789235D01*
X92698773Y-60795196D01*
X92674504Y-60798796D01*
X92650000Y-60800000D01*
X91350000Y-60800000D01*
X91325496Y-60798796D01*
X91301227Y-60795196D01*
X91277429Y-60789235D01*
X91254329Y-60780970D01*
X91232151Y-60770480D01*
X91211107Y-60757867D01*
X91191402Y-60743253D01*
X91173223Y-60726777D01*
X91156747Y-60708598D01*
X91142133Y-60688893D01*
X91129520Y-60667849D01*
X91119030Y-60645671D01*
X91110765Y-60622571D01*
X91104804Y-60598773D01*
X91101204Y-60574504D01*
X91100000Y-60550000D01*
X91100000Y-57450000D01*
X91101204Y-57425496D01*
X91104804Y-57401227D01*
X91110765Y-57377429D01*
X91119030Y-57354329D01*
X91129520Y-57332151D01*
X91142133Y-57311107D01*
X91156747Y-57291402D01*
X91173223Y-57273223D01*
X91191402Y-57256747D01*
X91211107Y-57242133D01*
X91232151Y-57229520D01*
X91254329Y-57219030D01*
X91277429Y-57210765D01*
X91301227Y-57204804D01*
X91325496Y-57201204D01*
X91350000Y-57200000D01*
X92650000Y-57200000D01*
X92674504Y-57201204D01*
X92674504Y-57201204D01*
G37*
D13*
X92000000Y-59000000D03*
%TD*%
D16*
%TO.C,H4*%
X27800000Y-139200000D03*
%TD*%
%TO.C,H3*%
X120200000Y-139200000D03*
%TD*%
%TO.C,H2*%
X28000000Y-47000000D03*
%TD*%
%TO.C,H1*%
X120000000Y-47000000D03*
%TD*%
D17*
%TO.C,F9*%
X116500000Y-121600000D03*
X116500000Y-99000000D03*
%TD*%
%TO.C,F8*%
X105500000Y-121600000D03*
X105500000Y-99000000D03*
%TD*%
%TO.C,F7*%
X94500000Y-121600000D03*
X94500000Y-99000000D03*
%TD*%
%TO.C,F6*%
X83500000Y-121600000D03*
X83500000Y-99000000D03*
%TD*%
%TO.C,F5*%
X72500000Y-121600000D03*
X72500000Y-99000000D03*
%TD*%
%TO.C,F4*%
X61500000Y-121600000D03*
X61500000Y-99000000D03*
%TD*%
%TO.C,F3*%
X50500000Y-121600000D03*
X50500000Y-99000000D03*
%TD*%
%TO.C,F2*%
X39500000Y-121600000D03*
X39500000Y-99000000D03*
%TD*%
%TO.C,F1*%
X28500000Y-121600000D03*
X28500000Y-99000000D03*
%TD*%
M02*
