G04 #@! TF.GenerationSoftware,KiCad,Pcbnew,(5.1.4)-1*
G04 #@! TF.CreationDate,2020-02-28T16:58:02+08:00*
G04 #@! TF.ProjectId,led controller v5,6c656420-636f-46e7-9472-6f6c6c657220,rev?*
G04 #@! TF.SameCoordinates,Original*
G04 #@! TF.FileFunction,Soldermask,Bot*
G04 #@! TF.FilePolarity,Negative*
%FSLAX46Y46*%
G04 Gerber Fmt 4.6, Leading zero omitted, Abs format (unit mm)*
G04 Created by KiCad (PCBNEW (5.1.4)-1) date 2020-02-28 16:58:02*
%MOMM*%
%LPD*%
G04 APERTURE LIST*
%ADD10C,0.100000*%
G04 APERTURE END LIST*
D10*
G36*
X10750000Y-97500000D02*
G01*
X2500000Y-97500000D01*
X2500000Y-88000000D01*
X10750000Y-88000000D01*
X10750000Y-97500000D01*
G37*
X10750000Y-97500000D02*
X2500000Y-97500000D01*
X2500000Y-88000000D01*
X10750000Y-88000000D01*
X10750000Y-97500000D01*
G36*
X98021717Y-102289085D02*
G01*
X98448282Y-102373934D01*
X99039926Y-102619001D01*
X99440073Y-102886371D01*
X99572391Y-102974783D01*
X100025217Y-103427609D01*
X100075035Y-103502167D01*
X100380999Y-103960074D01*
X100626066Y-104551718D01*
X100681790Y-104831860D01*
X100751000Y-105179803D01*
X100751000Y-105820197D01*
X100688533Y-106134239D01*
X100626066Y-106448282D01*
X100380999Y-107039926D01*
X100025216Y-107572392D01*
X99572392Y-108025216D01*
X99039926Y-108380999D01*
X98448282Y-108626066D01*
X98134239Y-108688533D01*
X97820197Y-108751000D01*
X97179803Y-108751000D01*
X96865761Y-108688533D01*
X96551718Y-108626066D01*
X95960074Y-108380999D01*
X95427608Y-108025216D01*
X94974784Y-107572392D01*
X94619001Y-107039926D01*
X94373934Y-106448282D01*
X94311467Y-106134239D01*
X94249000Y-105820197D01*
X94249000Y-105179803D01*
X94318210Y-104831860D01*
X94373934Y-104551718D01*
X94619001Y-103960074D01*
X94924965Y-103502167D01*
X94974783Y-103427609D01*
X95427609Y-102974783D01*
X95559927Y-102886371D01*
X95960074Y-102619001D01*
X96551718Y-102373934D01*
X96978283Y-102289085D01*
X97179803Y-102249000D01*
X97820197Y-102249000D01*
X98021717Y-102289085D01*
X98021717Y-102289085D01*
G37*
G36*
X5021717Y-102289085D02*
G01*
X5448282Y-102373934D01*
X6039926Y-102619001D01*
X6440073Y-102886371D01*
X6572391Y-102974783D01*
X7025217Y-103427609D01*
X7075035Y-103502167D01*
X7380999Y-103960074D01*
X7626066Y-104551718D01*
X7681790Y-104831860D01*
X7751000Y-105179803D01*
X7751000Y-105820197D01*
X7688533Y-106134239D01*
X7626066Y-106448282D01*
X7380999Y-107039926D01*
X7025216Y-107572392D01*
X6572392Y-108025216D01*
X6039926Y-108380999D01*
X5448282Y-108626066D01*
X5134239Y-108688533D01*
X4820197Y-108751000D01*
X4179803Y-108751000D01*
X3865761Y-108688533D01*
X3551718Y-108626066D01*
X2960074Y-108380999D01*
X2427608Y-108025216D01*
X1974784Y-107572392D01*
X1619001Y-107039926D01*
X1373934Y-106448282D01*
X1311467Y-106134239D01*
X1249000Y-105820197D01*
X1249000Y-105179803D01*
X1318210Y-104831860D01*
X1373934Y-104551718D01*
X1619001Y-103960074D01*
X1924965Y-103502167D01*
X1974783Y-103427609D01*
X2427609Y-102974783D01*
X2559927Y-102886371D01*
X2960074Y-102619001D01*
X3551718Y-102373934D01*
X3978283Y-102289085D01*
X4179803Y-102249000D01*
X4820197Y-102249000D01*
X5021717Y-102289085D01*
X5021717Y-102289085D01*
G37*
G36*
X78156425Y-102162760D02*
G01*
X78156428Y-102162761D01*
X78156429Y-102162761D01*
X78335693Y-102217140D01*
X78335696Y-102217142D01*
X78335697Y-102217142D01*
X78500903Y-102305446D01*
X78645712Y-102424288D01*
X78764554Y-102569097D01*
X78844473Y-102718616D01*
X78852860Y-102734307D01*
X78898988Y-102886371D01*
X78907240Y-102913575D01*
X78921000Y-103053282D01*
X78921000Y-104946718D01*
X78907240Y-105086425D01*
X78907239Y-105086428D01*
X78907239Y-105086429D01*
X78852860Y-105265693D01*
X78852858Y-105265696D01*
X78852858Y-105265697D01*
X78764554Y-105430903D01*
X78645712Y-105575712D01*
X78500903Y-105694554D01*
X78352964Y-105773628D01*
X78335692Y-105782860D01*
X78156428Y-105837239D01*
X78156427Y-105837239D01*
X78156424Y-105837240D01*
X77970000Y-105855601D01*
X77783575Y-105837240D01*
X77783572Y-105837239D01*
X77783571Y-105837239D01*
X77604307Y-105782860D01*
X77586575Y-105773382D01*
X77439097Y-105694554D01*
X77294288Y-105575712D01*
X77175446Y-105430903D01*
X77087142Y-105265696D01*
X77087141Y-105265693D01*
X77087140Y-105265692D01*
X77032761Y-105086428D01*
X77032761Y-105086427D01*
X77032760Y-105086424D01*
X77019000Y-104946717D01*
X77019000Y-103053283D01*
X77032761Y-102913575D01*
X77041013Y-102886371D01*
X77087141Y-102734307D01*
X77095528Y-102718616D01*
X77175447Y-102569097D01*
X77294289Y-102424288D01*
X77439098Y-102305446D01*
X77604304Y-102217142D01*
X77604305Y-102217142D01*
X77604308Y-102217140D01*
X77783572Y-102162761D01*
X77783573Y-102162761D01*
X77783576Y-102162760D01*
X77970000Y-102144399D01*
X78156425Y-102162760D01*
X78156425Y-102162760D01*
G37*
G36*
X81966425Y-102162760D02*
G01*
X81966428Y-102162761D01*
X81966429Y-102162761D01*
X82145693Y-102217140D01*
X82145696Y-102217142D01*
X82145697Y-102217142D01*
X82310903Y-102305446D01*
X82455712Y-102424288D01*
X82574554Y-102569097D01*
X82654473Y-102718616D01*
X82662860Y-102734307D01*
X82708988Y-102886371D01*
X82717240Y-102913575D01*
X82731000Y-103053282D01*
X82731000Y-104946718D01*
X82717240Y-105086425D01*
X82717239Y-105086428D01*
X82717239Y-105086429D01*
X82662860Y-105265693D01*
X82662858Y-105265696D01*
X82662858Y-105265697D01*
X82574554Y-105430903D01*
X82455712Y-105575712D01*
X82310903Y-105694554D01*
X82162964Y-105773628D01*
X82145692Y-105782860D01*
X81966428Y-105837239D01*
X81966427Y-105837239D01*
X81966424Y-105837240D01*
X81780000Y-105855601D01*
X81593575Y-105837240D01*
X81593572Y-105837239D01*
X81593571Y-105837239D01*
X81414307Y-105782860D01*
X81396575Y-105773382D01*
X81249097Y-105694554D01*
X81104288Y-105575712D01*
X80985446Y-105430903D01*
X80897142Y-105265696D01*
X80897141Y-105265693D01*
X80897140Y-105265692D01*
X80842761Y-105086428D01*
X80842761Y-105086427D01*
X80842760Y-105086424D01*
X80829000Y-104946717D01*
X80829000Y-103053283D01*
X80842761Y-102913575D01*
X80851013Y-102886371D01*
X80897141Y-102734307D01*
X80905528Y-102718616D01*
X80985447Y-102569097D01*
X81104289Y-102424288D01*
X81249098Y-102305446D01*
X81414304Y-102217142D01*
X81414305Y-102217142D01*
X81414308Y-102217140D01*
X81593572Y-102162761D01*
X81593573Y-102162761D01*
X81593576Y-102162760D01*
X81780000Y-102144399D01*
X81966425Y-102162760D01*
X81966425Y-102162760D01*
G37*
G36*
X85776425Y-102162760D02*
G01*
X85776428Y-102162761D01*
X85776429Y-102162761D01*
X85955693Y-102217140D01*
X85955696Y-102217142D01*
X85955697Y-102217142D01*
X86120903Y-102305446D01*
X86265712Y-102424288D01*
X86384554Y-102569097D01*
X86464473Y-102718616D01*
X86472860Y-102734307D01*
X86518988Y-102886371D01*
X86527240Y-102913575D01*
X86541000Y-103053282D01*
X86541000Y-104946718D01*
X86527240Y-105086425D01*
X86527239Y-105086428D01*
X86527239Y-105086429D01*
X86472860Y-105265693D01*
X86472858Y-105265696D01*
X86472858Y-105265697D01*
X86384554Y-105430903D01*
X86265712Y-105575712D01*
X86120903Y-105694554D01*
X85972964Y-105773628D01*
X85955692Y-105782860D01*
X85776428Y-105837239D01*
X85776427Y-105837239D01*
X85776424Y-105837240D01*
X85590000Y-105855601D01*
X85403575Y-105837240D01*
X85403572Y-105837239D01*
X85403571Y-105837239D01*
X85224307Y-105782860D01*
X85206575Y-105773382D01*
X85059097Y-105694554D01*
X84914288Y-105575712D01*
X84795446Y-105430903D01*
X84707142Y-105265696D01*
X84707141Y-105265693D01*
X84707140Y-105265692D01*
X84652761Y-105086428D01*
X84652761Y-105086427D01*
X84652760Y-105086424D01*
X84639000Y-104946717D01*
X84639000Y-103053283D01*
X84652761Y-102913575D01*
X84661013Y-102886371D01*
X84707141Y-102734307D01*
X84715528Y-102718616D01*
X84795447Y-102569097D01*
X84914289Y-102424288D01*
X85059098Y-102305446D01*
X85224304Y-102217142D01*
X85224305Y-102217142D01*
X85224308Y-102217140D01*
X85403572Y-102162761D01*
X85403573Y-102162761D01*
X85403576Y-102162760D01*
X85590000Y-102144399D01*
X85776425Y-102162760D01*
X85776425Y-102162760D01*
G37*
G36*
X90210915Y-102152934D02*
G01*
X90243424Y-102162795D01*
X90273382Y-102178809D01*
X90299641Y-102200359D01*
X90321191Y-102226618D01*
X90337205Y-102256576D01*
X90347066Y-102289085D01*
X90351000Y-102329029D01*
X90351000Y-105670971D01*
X90347066Y-105710915D01*
X90337205Y-105743424D01*
X90321191Y-105773382D01*
X90299641Y-105799641D01*
X90273382Y-105821191D01*
X90243424Y-105837205D01*
X90210915Y-105847066D01*
X90170971Y-105851000D01*
X88629029Y-105851000D01*
X88589085Y-105847066D01*
X88556576Y-105837205D01*
X88526618Y-105821191D01*
X88500359Y-105799641D01*
X88478809Y-105773382D01*
X88462795Y-105743424D01*
X88452934Y-105710915D01*
X88449000Y-105670971D01*
X88449000Y-102329029D01*
X88452934Y-102289085D01*
X88462795Y-102256576D01*
X88478809Y-102226618D01*
X88500359Y-102200359D01*
X88526618Y-102178809D01*
X88556576Y-102162795D01*
X88589085Y-102152934D01*
X88629029Y-102149000D01*
X90170971Y-102149000D01*
X90210915Y-102152934D01*
X90210915Y-102152934D01*
G37*
G36*
X29226979Y-102463293D02*
G01*
X29360625Y-102503834D01*
X29483784Y-102569664D01*
X29591740Y-102658260D01*
X29680336Y-102766216D01*
X29746166Y-102889375D01*
X29786707Y-103023021D01*
X29801000Y-103168140D01*
X29801000Y-104831860D01*
X29786707Y-104976979D01*
X29746166Y-105110625D01*
X29680336Y-105233784D01*
X29591740Y-105341740D01*
X29483784Y-105430336D01*
X29360625Y-105496166D01*
X29226979Y-105536707D01*
X29081860Y-105551000D01*
X26918140Y-105551000D01*
X26773021Y-105536707D01*
X26639375Y-105496166D01*
X26516216Y-105430336D01*
X26408260Y-105341740D01*
X26319664Y-105233784D01*
X26253834Y-105110625D01*
X26213293Y-104976979D01*
X26199000Y-104831860D01*
X26199000Y-103168140D01*
X26213293Y-103023021D01*
X26253834Y-102889375D01*
X26319664Y-102766216D01*
X26408260Y-102658260D01*
X26516216Y-102569664D01*
X26639375Y-102503834D01*
X26773021Y-102463293D01*
X26918140Y-102449000D01*
X29081860Y-102449000D01*
X29226979Y-102463293D01*
X29226979Y-102463293D01*
G37*
G36*
X19551000Y-105051000D02*
G01*
X17449000Y-105051000D01*
X17449000Y-102949000D01*
X19551000Y-102949000D01*
X19551000Y-105051000D01*
X19551000Y-105051000D01*
G37*
G36*
X11306564Y-102989389D02*
G01*
X11497833Y-103068615D01*
X11497835Y-103068616D01*
X11669973Y-103183635D01*
X11816365Y-103330027D01*
X11929718Y-103499671D01*
X11931385Y-103502167D01*
X12010611Y-103693436D01*
X12051000Y-103896484D01*
X12051000Y-104103516D01*
X12010611Y-104306564D01*
X11944419Y-104466365D01*
X11931384Y-104497835D01*
X11816365Y-104669973D01*
X11669973Y-104816365D01*
X11497835Y-104931384D01*
X11497834Y-104931385D01*
X11497833Y-104931385D01*
X11306564Y-105010611D01*
X11103516Y-105051000D01*
X10896484Y-105051000D01*
X10693436Y-105010611D01*
X10502167Y-104931385D01*
X10502166Y-104931385D01*
X10502165Y-104931384D01*
X10330027Y-104816365D01*
X10183635Y-104669973D01*
X10068616Y-104497835D01*
X10055581Y-104466365D01*
X9989389Y-104306564D01*
X9949000Y-104103516D01*
X9949000Y-103896484D01*
X9989389Y-103693436D01*
X10068615Y-103502167D01*
X10070283Y-103499671D01*
X10183635Y-103330027D01*
X10330027Y-103183635D01*
X10502165Y-103068616D01*
X10502167Y-103068615D01*
X10693436Y-102989389D01*
X10896484Y-102949000D01*
X11103516Y-102949000D01*
X11306564Y-102989389D01*
X11306564Y-102989389D01*
G37*
G36*
X37406564Y-102639389D02*
G01*
X37597833Y-102718615D01*
X37597835Y-102718616D01*
X37769973Y-102833635D01*
X37916365Y-102980027D01*
X37975558Y-103068615D01*
X38031385Y-103152167D01*
X38110611Y-103343436D01*
X38151000Y-103546484D01*
X38151000Y-103753516D01*
X38110611Y-103956564D01*
X38031385Y-104147833D01*
X38031384Y-104147835D01*
X37916365Y-104319973D01*
X37769973Y-104466365D01*
X37597835Y-104581384D01*
X37597834Y-104581385D01*
X37597833Y-104581385D01*
X37406564Y-104660611D01*
X37203516Y-104701000D01*
X36996484Y-104701000D01*
X36793436Y-104660611D01*
X36602167Y-104581385D01*
X36602166Y-104581385D01*
X36602165Y-104581384D01*
X36430027Y-104466365D01*
X36283635Y-104319973D01*
X36168616Y-104147835D01*
X36168615Y-104147833D01*
X36089389Y-103956564D01*
X36049000Y-103753516D01*
X36049000Y-103546484D01*
X36089389Y-103343436D01*
X36168615Y-103152167D01*
X36224443Y-103068615D01*
X36283635Y-102980027D01*
X36430027Y-102833635D01*
X36602165Y-102718616D01*
X36602167Y-102718615D01*
X36793436Y-102639389D01*
X36996484Y-102599000D01*
X37203516Y-102599000D01*
X37406564Y-102639389D01*
X37406564Y-102639389D01*
G37*
G36*
X45651000Y-104701000D02*
G01*
X43549000Y-104701000D01*
X43549000Y-102599000D01*
X45651000Y-102599000D01*
X45651000Y-104701000D01*
X45651000Y-104701000D01*
G37*
G36*
X33826366Y-99215695D02*
G01*
X33983460Y-99263349D01*
X34128231Y-99340731D01*
X34255128Y-99444872D01*
X34359269Y-99571769D01*
X34436651Y-99716540D01*
X34484305Y-99873634D01*
X34501000Y-100043140D01*
X34501000Y-101956860D01*
X34484305Y-102126366D01*
X34436651Y-102283460D01*
X34359269Y-102428231D01*
X34255128Y-102555128D01*
X34128231Y-102659269D01*
X33983460Y-102736651D01*
X33826366Y-102784305D01*
X33656860Y-102801000D01*
X31743140Y-102801000D01*
X31573634Y-102784305D01*
X31416540Y-102736651D01*
X31271769Y-102659269D01*
X31144872Y-102555128D01*
X31040731Y-102428231D01*
X30963349Y-102283460D01*
X30915695Y-102126366D01*
X30899000Y-101956860D01*
X30899000Y-100043140D01*
X30915695Y-99873634D01*
X30963349Y-99716540D01*
X31040731Y-99571769D01*
X31144872Y-99444872D01*
X31271769Y-99340731D01*
X31416540Y-99263349D01*
X31573634Y-99215695D01*
X31743140Y-99199000D01*
X33656860Y-99199000D01*
X33826366Y-99215695D01*
X33826366Y-99215695D01*
G37*
G36*
X58988740Y-100059626D02*
G01*
X59037136Y-100069253D01*
X59074902Y-100084896D01*
X59128311Y-100107019D01*
X59128312Y-100107020D01*
X59210369Y-100161848D01*
X59280152Y-100231631D01*
X59280153Y-100231633D01*
X59334981Y-100313689D01*
X59372747Y-100404865D01*
X59392000Y-100501655D01*
X59392000Y-100600345D01*
X59372747Y-100697135D01*
X59334981Y-100788311D01*
X59334980Y-100788312D01*
X59280152Y-100870369D01*
X59210369Y-100940152D01*
X59169062Y-100967752D01*
X59128311Y-100994981D01*
X59074902Y-101017104D01*
X59037136Y-101032747D01*
X58988740Y-101042373D01*
X58940345Y-101052000D01*
X58841655Y-101052000D01*
X58793260Y-101042373D01*
X58744864Y-101032747D01*
X58707098Y-101017104D01*
X58653689Y-100994981D01*
X58612938Y-100967752D01*
X58571631Y-100940152D01*
X58501848Y-100870369D01*
X58447020Y-100788312D01*
X58447019Y-100788311D01*
X58409253Y-100697135D01*
X58390000Y-100600345D01*
X58390000Y-100501655D01*
X58409253Y-100404865D01*
X58447019Y-100313689D01*
X58501847Y-100231633D01*
X58501848Y-100231631D01*
X58571631Y-100161848D01*
X58653688Y-100107020D01*
X58653689Y-100107019D01*
X58707098Y-100084896D01*
X58744864Y-100069253D01*
X58793260Y-100059627D01*
X58841655Y-100050000D01*
X58940345Y-100050000D01*
X58988740Y-100059626D01*
X58988740Y-100059626D01*
G37*
G36*
X50988740Y-100059626D02*
G01*
X51037136Y-100069253D01*
X51074902Y-100084896D01*
X51128311Y-100107019D01*
X51128312Y-100107020D01*
X51210369Y-100161848D01*
X51280152Y-100231631D01*
X51280153Y-100231633D01*
X51334981Y-100313689D01*
X51372747Y-100404865D01*
X51392000Y-100501655D01*
X51392000Y-100600345D01*
X51372747Y-100697135D01*
X51334981Y-100788311D01*
X51334980Y-100788312D01*
X51280152Y-100870369D01*
X51210369Y-100940152D01*
X51169062Y-100967752D01*
X51128311Y-100994981D01*
X51074902Y-101017104D01*
X51037136Y-101032747D01*
X50988740Y-101042373D01*
X50940345Y-101052000D01*
X50841655Y-101052000D01*
X50793260Y-101042373D01*
X50744864Y-101032747D01*
X50707098Y-101017104D01*
X50653689Y-100994981D01*
X50612938Y-100967752D01*
X50571631Y-100940152D01*
X50501848Y-100870369D01*
X50447020Y-100788312D01*
X50447019Y-100788311D01*
X50409253Y-100697135D01*
X50390000Y-100600345D01*
X50390000Y-100501655D01*
X50409253Y-100404865D01*
X50447019Y-100313689D01*
X50501847Y-100231633D01*
X50501848Y-100231631D01*
X50571631Y-100161848D01*
X50653688Y-100107020D01*
X50653689Y-100107019D01*
X50707098Y-100084896D01*
X50744864Y-100069253D01*
X50793260Y-100059627D01*
X50841655Y-100050000D01*
X50940345Y-100050000D01*
X50988740Y-100059626D01*
X50988740Y-100059626D01*
G37*
G36*
X29801000Y-99801000D02*
G01*
X26199000Y-99801000D01*
X26199000Y-96199000D01*
X29801000Y-96199000D01*
X29801000Y-99801000D01*
X29801000Y-99801000D01*
G37*
G36*
X37406564Y-91839389D02*
G01*
X37597833Y-91918615D01*
X37597835Y-91918616D01*
X37769973Y-92033635D01*
X37916365Y-92180027D01*
X38031385Y-92352167D01*
X38110611Y-92543436D01*
X38151000Y-92746484D01*
X38151000Y-92953516D01*
X38110611Y-93156564D01*
X38031385Y-93347833D01*
X38031384Y-93347835D01*
X37916365Y-93519973D01*
X37769973Y-93666365D01*
X37597835Y-93781384D01*
X37597834Y-93781385D01*
X37597833Y-93781385D01*
X37406564Y-93860611D01*
X37203516Y-93901000D01*
X36996484Y-93901000D01*
X36793436Y-93860611D01*
X36602167Y-93781385D01*
X36602166Y-93781385D01*
X36602165Y-93781384D01*
X36430027Y-93666365D01*
X36283635Y-93519973D01*
X36168616Y-93347835D01*
X36168615Y-93347833D01*
X36089389Y-93156564D01*
X36049000Y-92953516D01*
X36049000Y-92746484D01*
X36089389Y-92543436D01*
X36168615Y-92352167D01*
X36283635Y-92180027D01*
X36430027Y-92033635D01*
X36602165Y-91918616D01*
X36602167Y-91918615D01*
X36793436Y-91839389D01*
X36996484Y-91799000D01*
X37203516Y-91799000D01*
X37406564Y-91839389D01*
X37406564Y-91839389D01*
G37*
G36*
X45651000Y-93901000D02*
G01*
X43549000Y-93901000D01*
X43549000Y-91799000D01*
X45651000Y-91799000D01*
X45651000Y-93901000D01*
X45651000Y-93901000D01*
G37*
G36*
X82308000Y-90436000D02*
G01*
X80506000Y-90436000D01*
X80506000Y-88634000D01*
X82308000Y-88634000D01*
X82308000Y-90436000D01*
X82308000Y-90436000D01*
G37*
G36*
X73897443Y-88640519D02*
G01*
X73963627Y-88647037D01*
X74133466Y-88698557D01*
X74289991Y-88782222D01*
X74325729Y-88811552D01*
X74427186Y-88894814D01*
X74510448Y-88996271D01*
X74539778Y-89032009D01*
X74623443Y-89188534D01*
X74674963Y-89358373D01*
X74692359Y-89535000D01*
X74674963Y-89711627D01*
X74623443Y-89881466D01*
X74539778Y-90037991D01*
X74510448Y-90073729D01*
X74427186Y-90175186D01*
X74325729Y-90258448D01*
X74289991Y-90287778D01*
X74133466Y-90371443D01*
X73963627Y-90422963D01*
X73897443Y-90429481D01*
X73831260Y-90436000D01*
X73742740Y-90436000D01*
X73676557Y-90429481D01*
X73610373Y-90422963D01*
X73440534Y-90371443D01*
X73284009Y-90287778D01*
X73248271Y-90258448D01*
X73146814Y-90175186D01*
X73063552Y-90073729D01*
X73034222Y-90037991D01*
X72950557Y-89881466D01*
X72899037Y-89711627D01*
X72881641Y-89535000D01*
X72899037Y-89358373D01*
X72950557Y-89188534D01*
X73034222Y-89032009D01*
X73063552Y-88996271D01*
X73146814Y-88894814D01*
X73248271Y-88811552D01*
X73284009Y-88782222D01*
X73440534Y-88698557D01*
X73610373Y-88647037D01*
X73676557Y-88640519D01*
X73742740Y-88634000D01*
X73831260Y-88634000D01*
X73897443Y-88640519D01*
X73897443Y-88640519D01*
G37*
G36*
X84057443Y-88640519D02*
G01*
X84123627Y-88647037D01*
X84293466Y-88698557D01*
X84449991Y-88782222D01*
X84485729Y-88811552D01*
X84587186Y-88894814D01*
X84670448Y-88996271D01*
X84699778Y-89032009D01*
X84783443Y-89188534D01*
X84834963Y-89358373D01*
X84852359Y-89535000D01*
X84834963Y-89711627D01*
X84783443Y-89881466D01*
X84699778Y-90037991D01*
X84670448Y-90073729D01*
X84587186Y-90175186D01*
X84485729Y-90258448D01*
X84449991Y-90287778D01*
X84293466Y-90371443D01*
X84123627Y-90422963D01*
X84057443Y-90429481D01*
X83991260Y-90436000D01*
X83902740Y-90436000D01*
X83836557Y-90429481D01*
X83770373Y-90422963D01*
X83600534Y-90371443D01*
X83444009Y-90287778D01*
X83408271Y-90258448D01*
X83306814Y-90175186D01*
X83223552Y-90073729D01*
X83194222Y-90037991D01*
X83110557Y-89881466D01*
X83059037Y-89711627D01*
X83041641Y-89535000D01*
X83059037Y-89358373D01*
X83110557Y-89188534D01*
X83194222Y-89032009D01*
X83223552Y-88996271D01*
X83306814Y-88894814D01*
X83408271Y-88811552D01*
X83444009Y-88782222D01*
X83600534Y-88698557D01*
X83770373Y-88647037D01*
X83836557Y-88640519D01*
X83902740Y-88634000D01*
X83991260Y-88634000D01*
X84057443Y-88640519D01*
X84057443Y-88640519D01*
G37*
G36*
X72148000Y-90436000D02*
G01*
X70346000Y-90436000D01*
X70346000Y-88634000D01*
X72148000Y-88634000D01*
X72148000Y-90436000D01*
X72148000Y-90436000D01*
G37*
G36*
X82308000Y-84086000D02*
G01*
X80506000Y-84086000D01*
X80506000Y-82284000D01*
X82308000Y-82284000D01*
X82308000Y-84086000D01*
X82308000Y-84086000D01*
G37*
G36*
X72148000Y-84086000D02*
G01*
X70346000Y-84086000D01*
X70346000Y-82284000D01*
X72148000Y-82284000D01*
X72148000Y-84086000D01*
X72148000Y-84086000D01*
G37*
G36*
X73897443Y-82290519D02*
G01*
X73963627Y-82297037D01*
X74133466Y-82348557D01*
X74289991Y-82432222D01*
X74325729Y-82461552D01*
X74427186Y-82544814D01*
X74510448Y-82646271D01*
X74539778Y-82682009D01*
X74623443Y-82838534D01*
X74674963Y-83008373D01*
X74692359Y-83185000D01*
X74674963Y-83361627D01*
X74623443Y-83531466D01*
X74539778Y-83687991D01*
X74510448Y-83723729D01*
X74427186Y-83825186D01*
X74325729Y-83908448D01*
X74289991Y-83937778D01*
X74133466Y-84021443D01*
X73963627Y-84072963D01*
X73897443Y-84079481D01*
X73831260Y-84086000D01*
X73742740Y-84086000D01*
X73676557Y-84079481D01*
X73610373Y-84072963D01*
X73440534Y-84021443D01*
X73284009Y-83937778D01*
X73248271Y-83908448D01*
X73146814Y-83825186D01*
X73063552Y-83723729D01*
X73034222Y-83687991D01*
X72950557Y-83531466D01*
X72899037Y-83361627D01*
X72881641Y-83185000D01*
X72899037Y-83008373D01*
X72950557Y-82838534D01*
X73034222Y-82682009D01*
X73063552Y-82646271D01*
X73146814Y-82544814D01*
X73248271Y-82461552D01*
X73284009Y-82432222D01*
X73440534Y-82348557D01*
X73610373Y-82297037D01*
X73676557Y-82290519D01*
X73742740Y-82284000D01*
X73831260Y-82284000D01*
X73897443Y-82290519D01*
X73897443Y-82290519D01*
G37*
G36*
X84057443Y-82290519D02*
G01*
X84123627Y-82297037D01*
X84293466Y-82348557D01*
X84449991Y-82432222D01*
X84485729Y-82461552D01*
X84587186Y-82544814D01*
X84670448Y-82646271D01*
X84699778Y-82682009D01*
X84783443Y-82838534D01*
X84834963Y-83008373D01*
X84852359Y-83185000D01*
X84834963Y-83361627D01*
X84783443Y-83531466D01*
X84699778Y-83687991D01*
X84670448Y-83723729D01*
X84587186Y-83825186D01*
X84485729Y-83908448D01*
X84449991Y-83937778D01*
X84293466Y-84021443D01*
X84123627Y-84072963D01*
X84057443Y-84079481D01*
X83991260Y-84086000D01*
X83902740Y-84086000D01*
X83836557Y-84079481D01*
X83770373Y-84072963D01*
X83600534Y-84021443D01*
X83444009Y-83937778D01*
X83408271Y-83908448D01*
X83306814Y-83825186D01*
X83223552Y-83723729D01*
X83194222Y-83687991D01*
X83110557Y-83531466D01*
X83059037Y-83361627D01*
X83041641Y-83185000D01*
X83059037Y-83008373D01*
X83110557Y-82838534D01*
X83194222Y-82682009D01*
X83223552Y-82646271D01*
X83306814Y-82544814D01*
X83408271Y-82461552D01*
X83444009Y-82432222D01*
X83600534Y-82348557D01*
X83770373Y-82297037D01*
X83836557Y-82290519D01*
X83902740Y-82284000D01*
X83991260Y-82284000D01*
X84057443Y-82290519D01*
X84057443Y-82290519D01*
G37*
G36*
X3556564Y-77364389D02*
G01*
X3747833Y-77443615D01*
X3747835Y-77443616D01*
X3919973Y-77558635D01*
X4066365Y-77705027D01*
X4087061Y-77736000D01*
X4181385Y-77877167D01*
X4260611Y-78068436D01*
X4301000Y-78271484D01*
X4301000Y-78478516D01*
X4260611Y-78681564D01*
X4181385Y-78872833D01*
X4181384Y-78872835D01*
X4066365Y-79044973D01*
X3919973Y-79191365D01*
X3747835Y-79306384D01*
X3747834Y-79306385D01*
X3747833Y-79306385D01*
X3556564Y-79385611D01*
X3353516Y-79426000D01*
X3146484Y-79426000D01*
X2943436Y-79385611D01*
X2752167Y-79306385D01*
X2752166Y-79306385D01*
X2752165Y-79306384D01*
X2580027Y-79191365D01*
X2433635Y-79044973D01*
X2318616Y-78872835D01*
X2318615Y-78872833D01*
X2239389Y-78681564D01*
X2199000Y-78478516D01*
X2199000Y-78271484D01*
X2239389Y-78068436D01*
X2318615Y-77877167D01*
X2412940Y-77736000D01*
X2433635Y-77705027D01*
X2580027Y-77558635D01*
X2752165Y-77443616D01*
X2752167Y-77443615D01*
X2943436Y-77364389D01*
X3146484Y-77324000D01*
X3353516Y-77324000D01*
X3556564Y-77364389D01*
X3556564Y-77364389D01*
G37*
G36*
X11801000Y-79426000D02*
G01*
X9699000Y-79426000D01*
X9699000Y-77324000D01*
X11801000Y-77324000D01*
X11801000Y-79426000D01*
X11801000Y-79426000D01*
G37*
G36*
X84057442Y-75940518D02*
G01*
X84123627Y-75947037D01*
X84293466Y-75998557D01*
X84449991Y-76082222D01*
X84485729Y-76111552D01*
X84587186Y-76194814D01*
X84670448Y-76296271D01*
X84699778Y-76332009D01*
X84783443Y-76488534D01*
X84834963Y-76658373D01*
X84852359Y-76835000D01*
X84834963Y-77011627D01*
X84783443Y-77181466D01*
X84699778Y-77337991D01*
X84678113Y-77364390D01*
X84587186Y-77475186D01*
X84485729Y-77558448D01*
X84449991Y-77587778D01*
X84293466Y-77671443D01*
X84123627Y-77722963D01*
X84057443Y-77729481D01*
X83991260Y-77736000D01*
X83902740Y-77736000D01*
X83836557Y-77729481D01*
X83770373Y-77722963D01*
X83600534Y-77671443D01*
X83444009Y-77587778D01*
X83408271Y-77558448D01*
X83306814Y-77475186D01*
X83215887Y-77364390D01*
X83194222Y-77337991D01*
X83110557Y-77181466D01*
X83059037Y-77011627D01*
X83041641Y-76835000D01*
X83059037Y-76658373D01*
X83110557Y-76488534D01*
X83194222Y-76332009D01*
X83223552Y-76296271D01*
X83306814Y-76194814D01*
X83408271Y-76111552D01*
X83444009Y-76082222D01*
X83600534Y-75998557D01*
X83770373Y-75947037D01*
X83836558Y-75940518D01*
X83902740Y-75934000D01*
X83991260Y-75934000D01*
X84057442Y-75940518D01*
X84057442Y-75940518D01*
G37*
G36*
X73897442Y-75940518D02*
G01*
X73963627Y-75947037D01*
X74133466Y-75998557D01*
X74289991Y-76082222D01*
X74325729Y-76111552D01*
X74427186Y-76194814D01*
X74510448Y-76296271D01*
X74539778Y-76332009D01*
X74623443Y-76488534D01*
X74674963Y-76658373D01*
X74692359Y-76835000D01*
X74674963Y-77011627D01*
X74623443Y-77181466D01*
X74539778Y-77337991D01*
X74518113Y-77364390D01*
X74427186Y-77475186D01*
X74325729Y-77558448D01*
X74289991Y-77587778D01*
X74133466Y-77671443D01*
X73963627Y-77722963D01*
X73897443Y-77729481D01*
X73831260Y-77736000D01*
X73742740Y-77736000D01*
X73676557Y-77729481D01*
X73610373Y-77722963D01*
X73440534Y-77671443D01*
X73284009Y-77587778D01*
X73248271Y-77558448D01*
X73146814Y-77475186D01*
X73055887Y-77364390D01*
X73034222Y-77337991D01*
X72950557Y-77181466D01*
X72899037Y-77011627D01*
X72881641Y-76835000D01*
X72899037Y-76658373D01*
X72950557Y-76488534D01*
X73034222Y-76332009D01*
X73063552Y-76296271D01*
X73146814Y-76194814D01*
X73248271Y-76111552D01*
X73284009Y-76082222D01*
X73440534Y-75998557D01*
X73610373Y-75947037D01*
X73676558Y-75940518D01*
X73742740Y-75934000D01*
X73831260Y-75934000D01*
X73897442Y-75940518D01*
X73897442Y-75940518D01*
G37*
G36*
X72148000Y-77736000D02*
G01*
X70346000Y-77736000D01*
X70346000Y-75934000D01*
X72148000Y-75934000D01*
X72148000Y-77736000D01*
X72148000Y-77736000D01*
G37*
G36*
X82308000Y-77736000D02*
G01*
X80506000Y-77736000D01*
X80506000Y-75934000D01*
X82308000Y-75934000D01*
X82308000Y-77736000D01*
X82308000Y-77736000D01*
G37*
G36*
X24347617Y-73658420D02*
G01*
X24438403Y-73685960D01*
X24470335Y-73695646D01*
X24583424Y-73756094D01*
X24682554Y-73837447D01*
X24763906Y-73936575D01*
X24824354Y-74049664D01*
X24834040Y-74081596D01*
X24861580Y-74172382D01*
X24871000Y-74268027D01*
X24871000Y-75131973D01*
X24861580Y-75227618D01*
X24834040Y-75318404D01*
X24824354Y-75350336D01*
X24763906Y-75463425D01*
X24682554Y-75562554D01*
X24583425Y-75643906D01*
X24470336Y-75704354D01*
X24438404Y-75714040D01*
X24347618Y-75741580D01*
X24220000Y-75754149D01*
X24092383Y-75741580D01*
X24001597Y-75714040D01*
X23969665Y-75704354D01*
X23856576Y-75643906D01*
X23757447Y-75562554D01*
X23676095Y-75463425D01*
X23615647Y-75350336D01*
X23611282Y-75335946D01*
X23578420Y-75227618D01*
X23569000Y-75131973D01*
X23569000Y-74268028D01*
X23578420Y-74172383D01*
X23615645Y-74049669D01*
X23615646Y-74049665D01*
X23676094Y-73936576D01*
X23757447Y-73837446D01*
X23856575Y-73756094D01*
X23969664Y-73695646D01*
X24001596Y-73685960D01*
X24092382Y-73658420D01*
X24220000Y-73645851D01*
X24347617Y-73658420D01*
X24347617Y-73658420D01*
G37*
G36*
X59907617Y-73658420D02*
G01*
X59998403Y-73685960D01*
X60030335Y-73695646D01*
X60143424Y-73756094D01*
X60242554Y-73837447D01*
X60323906Y-73936575D01*
X60384354Y-74049664D01*
X60394040Y-74081596D01*
X60421580Y-74172382D01*
X60431000Y-74268027D01*
X60431000Y-75131973D01*
X60421580Y-75227618D01*
X60394040Y-75318404D01*
X60384354Y-75350336D01*
X60323906Y-75463425D01*
X60242554Y-75562554D01*
X60143425Y-75643906D01*
X60030336Y-75704354D01*
X59998404Y-75714040D01*
X59907618Y-75741580D01*
X59780000Y-75754149D01*
X59652383Y-75741580D01*
X59561597Y-75714040D01*
X59529665Y-75704354D01*
X59416576Y-75643906D01*
X59317447Y-75562554D01*
X59236095Y-75463425D01*
X59175647Y-75350336D01*
X59171282Y-75335946D01*
X59138420Y-75227618D01*
X59129000Y-75131973D01*
X59129000Y-74268028D01*
X59138420Y-74172383D01*
X59175645Y-74049669D01*
X59175646Y-74049665D01*
X59236094Y-73936576D01*
X59317447Y-73837446D01*
X59416575Y-73756094D01*
X59529664Y-73695646D01*
X59561596Y-73685960D01*
X59652382Y-73658420D01*
X59780000Y-73645851D01*
X59907617Y-73658420D01*
X59907617Y-73658420D01*
G37*
G36*
X54827617Y-73658420D02*
G01*
X54918403Y-73685960D01*
X54950335Y-73695646D01*
X55063424Y-73756094D01*
X55162554Y-73837447D01*
X55243906Y-73936575D01*
X55304354Y-74049664D01*
X55314040Y-74081596D01*
X55341580Y-74172382D01*
X55351000Y-74268027D01*
X55351000Y-75131973D01*
X55341580Y-75227618D01*
X55314040Y-75318404D01*
X55304354Y-75350336D01*
X55243906Y-75463425D01*
X55162554Y-75562554D01*
X55063425Y-75643906D01*
X54950336Y-75704354D01*
X54918404Y-75714040D01*
X54827618Y-75741580D01*
X54700000Y-75754149D01*
X54572383Y-75741580D01*
X54481597Y-75714040D01*
X54449665Y-75704354D01*
X54336576Y-75643906D01*
X54237447Y-75562554D01*
X54156095Y-75463425D01*
X54095647Y-75350336D01*
X54091282Y-75335946D01*
X54058420Y-75227618D01*
X54049000Y-75131973D01*
X54049000Y-74268028D01*
X54058420Y-74172383D01*
X54095645Y-74049669D01*
X54095646Y-74049665D01*
X54156094Y-73936576D01*
X54237447Y-73837446D01*
X54336575Y-73756094D01*
X54449664Y-73695646D01*
X54481596Y-73685960D01*
X54572382Y-73658420D01*
X54700000Y-73645851D01*
X54827617Y-73658420D01*
X54827617Y-73658420D01*
G37*
G36*
X52287617Y-73658420D02*
G01*
X52378403Y-73685960D01*
X52410335Y-73695646D01*
X52523424Y-73756094D01*
X52622554Y-73837447D01*
X52703906Y-73936575D01*
X52764354Y-74049664D01*
X52774040Y-74081596D01*
X52801580Y-74172382D01*
X52811000Y-74268027D01*
X52811000Y-75131973D01*
X52801580Y-75227618D01*
X52774040Y-75318404D01*
X52764354Y-75350336D01*
X52703906Y-75463425D01*
X52622554Y-75562554D01*
X52523425Y-75643906D01*
X52410336Y-75704354D01*
X52378404Y-75714040D01*
X52287618Y-75741580D01*
X52160000Y-75754149D01*
X52032383Y-75741580D01*
X51941597Y-75714040D01*
X51909665Y-75704354D01*
X51796576Y-75643906D01*
X51697447Y-75562554D01*
X51616095Y-75463425D01*
X51555647Y-75350336D01*
X51551282Y-75335946D01*
X51518420Y-75227618D01*
X51509000Y-75131973D01*
X51509000Y-74268028D01*
X51518420Y-74172383D01*
X51555645Y-74049669D01*
X51555646Y-74049665D01*
X51616094Y-73936576D01*
X51697447Y-73837446D01*
X51796575Y-73756094D01*
X51909664Y-73695646D01*
X51941596Y-73685960D01*
X52032382Y-73658420D01*
X52160000Y-73645851D01*
X52287617Y-73658420D01*
X52287617Y-73658420D01*
G37*
G36*
X49747617Y-73658420D02*
G01*
X49838403Y-73685960D01*
X49870335Y-73695646D01*
X49983424Y-73756094D01*
X50082554Y-73837447D01*
X50163906Y-73936575D01*
X50224354Y-74049664D01*
X50234040Y-74081596D01*
X50261580Y-74172382D01*
X50271000Y-74268027D01*
X50271000Y-75131973D01*
X50261580Y-75227618D01*
X50234040Y-75318404D01*
X50224354Y-75350336D01*
X50163906Y-75463425D01*
X50082554Y-75562554D01*
X49983425Y-75643906D01*
X49870336Y-75704354D01*
X49838404Y-75714040D01*
X49747618Y-75741580D01*
X49620000Y-75754149D01*
X49492383Y-75741580D01*
X49401597Y-75714040D01*
X49369665Y-75704354D01*
X49256576Y-75643906D01*
X49157447Y-75562554D01*
X49076095Y-75463425D01*
X49015647Y-75350336D01*
X49011282Y-75335946D01*
X48978420Y-75227618D01*
X48969000Y-75131973D01*
X48969000Y-74268028D01*
X48978420Y-74172383D01*
X49015645Y-74049669D01*
X49015646Y-74049665D01*
X49076094Y-73936576D01*
X49157447Y-73837446D01*
X49256575Y-73756094D01*
X49369664Y-73695646D01*
X49401596Y-73685960D01*
X49492382Y-73658420D01*
X49620000Y-73645851D01*
X49747617Y-73658420D01*
X49747617Y-73658420D01*
G37*
G36*
X47207617Y-73658420D02*
G01*
X47298403Y-73685960D01*
X47330335Y-73695646D01*
X47443424Y-73756094D01*
X47542554Y-73837447D01*
X47623906Y-73936575D01*
X47684354Y-74049664D01*
X47694040Y-74081596D01*
X47721580Y-74172382D01*
X47731000Y-74268027D01*
X47731000Y-75131973D01*
X47721580Y-75227618D01*
X47694040Y-75318404D01*
X47684354Y-75350336D01*
X47623906Y-75463425D01*
X47542554Y-75562554D01*
X47443425Y-75643906D01*
X47330336Y-75704354D01*
X47298404Y-75714040D01*
X47207618Y-75741580D01*
X47080000Y-75754149D01*
X46952383Y-75741580D01*
X46861597Y-75714040D01*
X46829665Y-75704354D01*
X46716576Y-75643906D01*
X46617447Y-75562554D01*
X46536095Y-75463425D01*
X46475647Y-75350336D01*
X46471282Y-75335946D01*
X46438420Y-75227618D01*
X46429000Y-75131973D01*
X46429000Y-74268028D01*
X46438420Y-74172383D01*
X46475645Y-74049669D01*
X46475646Y-74049665D01*
X46536094Y-73936576D01*
X46617447Y-73837446D01*
X46716575Y-73756094D01*
X46829664Y-73695646D01*
X46861596Y-73685960D01*
X46952382Y-73658420D01*
X47080000Y-73645851D01*
X47207617Y-73658420D01*
X47207617Y-73658420D01*
G37*
G36*
X57367617Y-73658420D02*
G01*
X57458403Y-73685960D01*
X57490335Y-73695646D01*
X57603424Y-73756094D01*
X57702554Y-73837447D01*
X57783906Y-73936575D01*
X57844354Y-74049664D01*
X57854040Y-74081596D01*
X57881580Y-74172382D01*
X57891000Y-74268027D01*
X57891000Y-75131973D01*
X57881580Y-75227618D01*
X57854040Y-75318404D01*
X57844354Y-75350336D01*
X57783906Y-75463425D01*
X57702554Y-75562554D01*
X57603425Y-75643906D01*
X57490336Y-75704354D01*
X57458404Y-75714040D01*
X57367618Y-75741580D01*
X57240000Y-75754149D01*
X57112383Y-75741580D01*
X57021597Y-75714040D01*
X56989665Y-75704354D01*
X56876576Y-75643906D01*
X56777447Y-75562554D01*
X56696095Y-75463425D01*
X56635647Y-75350336D01*
X56631282Y-75335946D01*
X56598420Y-75227618D01*
X56589000Y-75131973D01*
X56589000Y-74268028D01*
X56598420Y-74172383D01*
X56635645Y-74049669D01*
X56635646Y-74049665D01*
X56696094Y-73936576D01*
X56777447Y-73837446D01*
X56876575Y-73756094D01*
X56989664Y-73695646D01*
X57021596Y-73685960D01*
X57112382Y-73658420D01*
X57240000Y-73645851D01*
X57367617Y-73658420D01*
X57367617Y-73658420D01*
G37*
G36*
X39587617Y-73658420D02*
G01*
X39678403Y-73685960D01*
X39710335Y-73695646D01*
X39823424Y-73756094D01*
X39922554Y-73837447D01*
X40003906Y-73936575D01*
X40064354Y-74049664D01*
X40074040Y-74081596D01*
X40101580Y-74172382D01*
X40111000Y-74268027D01*
X40111000Y-75131973D01*
X40101580Y-75227618D01*
X40074040Y-75318404D01*
X40064354Y-75350336D01*
X40003906Y-75463425D01*
X39922554Y-75562554D01*
X39823425Y-75643906D01*
X39710336Y-75704354D01*
X39678404Y-75714040D01*
X39587618Y-75741580D01*
X39460000Y-75754149D01*
X39332383Y-75741580D01*
X39241597Y-75714040D01*
X39209665Y-75704354D01*
X39096576Y-75643906D01*
X38997447Y-75562554D01*
X38916095Y-75463425D01*
X38855647Y-75350336D01*
X38851282Y-75335946D01*
X38818420Y-75227618D01*
X38809000Y-75131973D01*
X38809000Y-74268028D01*
X38818420Y-74172383D01*
X38855645Y-74049669D01*
X38855646Y-74049665D01*
X38916094Y-73936576D01*
X38997447Y-73837446D01*
X39096575Y-73756094D01*
X39209664Y-73695646D01*
X39241596Y-73685960D01*
X39332382Y-73658420D01*
X39460000Y-73645851D01*
X39587617Y-73658420D01*
X39587617Y-73658420D01*
G37*
G36*
X37047617Y-73658420D02*
G01*
X37138403Y-73685960D01*
X37170335Y-73695646D01*
X37283424Y-73756094D01*
X37382554Y-73837447D01*
X37463906Y-73936575D01*
X37524354Y-74049664D01*
X37534040Y-74081596D01*
X37561580Y-74172382D01*
X37571000Y-74268027D01*
X37571000Y-75131973D01*
X37561580Y-75227618D01*
X37534040Y-75318404D01*
X37524354Y-75350336D01*
X37463906Y-75463425D01*
X37382554Y-75562554D01*
X37283425Y-75643906D01*
X37170336Y-75704354D01*
X37138404Y-75714040D01*
X37047618Y-75741580D01*
X36920000Y-75754149D01*
X36792383Y-75741580D01*
X36701597Y-75714040D01*
X36669665Y-75704354D01*
X36556576Y-75643906D01*
X36457447Y-75562554D01*
X36376095Y-75463425D01*
X36315647Y-75350336D01*
X36311282Y-75335946D01*
X36278420Y-75227618D01*
X36269000Y-75131973D01*
X36269000Y-74268028D01*
X36278420Y-74172383D01*
X36315645Y-74049669D01*
X36315646Y-74049665D01*
X36376094Y-73936576D01*
X36457447Y-73837446D01*
X36556575Y-73756094D01*
X36669664Y-73695646D01*
X36701596Y-73685960D01*
X36792382Y-73658420D01*
X36920000Y-73645851D01*
X37047617Y-73658420D01*
X37047617Y-73658420D01*
G37*
G36*
X34507617Y-73658420D02*
G01*
X34598403Y-73685960D01*
X34630335Y-73695646D01*
X34743424Y-73756094D01*
X34842554Y-73837447D01*
X34923906Y-73936575D01*
X34984354Y-74049664D01*
X34994040Y-74081596D01*
X35021580Y-74172382D01*
X35031000Y-74268027D01*
X35031000Y-75131973D01*
X35021580Y-75227618D01*
X34994040Y-75318404D01*
X34984354Y-75350336D01*
X34923906Y-75463425D01*
X34842554Y-75562554D01*
X34743425Y-75643906D01*
X34630336Y-75704354D01*
X34598404Y-75714040D01*
X34507618Y-75741580D01*
X34380000Y-75754149D01*
X34252383Y-75741580D01*
X34161597Y-75714040D01*
X34129665Y-75704354D01*
X34016576Y-75643906D01*
X33917447Y-75562554D01*
X33836095Y-75463425D01*
X33775647Y-75350336D01*
X33771282Y-75335946D01*
X33738420Y-75227618D01*
X33729000Y-75131973D01*
X33729000Y-74268028D01*
X33738420Y-74172383D01*
X33775645Y-74049669D01*
X33775646Y-74049665D01*
X33836094Y-73936576D01*
X33917447Y-73837446D01*
X34016575Y-73756094D01*
X34129664Y-73695646D01*
X34161596Y-73685960D01*
X34252382Y-73658420D01*
X34380000Y-73645851D01*
X34507617Y-73658420D01*
X34507617Y-73658420D01*
G37*
G36*
X31967617Y-73658420D02*
G01*
X32058403Y-73685960D01*
X32090335Y-73695646D01*
X32203424Y-73756094D01*
X32302554Y-73837447D01*
X32383906Y-73936575D01*
X32444354Y-74049664D01*
X32454040Y-74081596D01*
X32481580Y-74172382D01*
X32491000Y-74268027D01*
X32491000Y-75131973D01*
X32481580Y-75227618D01*
X32454040Y-75318404D01*
X32444354Y-75350336D01*
X32383906Y-75463425D01*
X32302554Y-75562554D01*
X32203425Y-75643906D01*
X32090336Y-75704354D01*
X32058404Y-75714040D01*
X31967618Y-75741580D01*
X31840000Y-75754149D01*
X31712383Y-75741580D01*
X31621597Y-75714040D01*
X31589665Y-75704354D01*
X31476576Y-75643906D01*
X31377447Y-75562554D01*
X31296095Y-75463425D01*
X31235647Y-75350336D01*
X31231282Y-75335946D01*
X31198420Y-75227618D01*
X31189000Y-75131973D01*
X31189000Y-74268028D01*
X31198420Y-74172383D01*
X31235645Y-74049669D01*
X31235646Y-74049665D01*
X31296094Y-73936576D01*
X31377447Y-73837446D01*
X31476575Y-73756094D01*
X31589664Y-73695646D01*
X31621596Y-73685960D01*
X31712382Y-73658420D01*
X31840000Y-73645851D01*
X31967617Y-73658420D01*
X31967617Y-73658420D01*
G37*
G36*
X29427617Y-73658420D02*
G01*
X29518403Y-73685960D01*
X29550335Y-73695646D01*
X29663424Y-73756094D01*
X29762554Y-73837447D01*
X29843906Y-73936575D01*
X29904354Y-74049664D01*
X29914040Y-74081596D01*
X29941580Y-74172382D01*
X29951000Y-74268027D01*
X29951000Y-75131973D01*
X29941580Y-75227618D01*
X29914040Y-75318404D01*
X29904354Y-75350336D01*
X29843906Y-75463425D01*
X29762554Y-75562554D01*
X29663425Y-75643906D01*
X29550336Y-75704354D01*
X29518404Y-75714040D01*
X29427618Y-75741580D01*
X29300000Y-75754149D01*
X29172383Y-75741580D01*
X29081597Y-75714040D01*
X29049665Y-75704354D01*
X28936576Y-75643906D01*
X28837447Y-75562554D01*
X28756095Y-75463425D01*
X28695647Y-75350336D01*
X28691282Y-75335946D01*
X28658420Y-75227618D01*
X28649000Y-75131973D01*
X28649000Y-74268028D01*
X28658420Y-74172383D01*
X28695645Y-74049669D01*
X28695646Y-74049665D01*
X28756094Y-73936576D01*
X28837447Y-73837446D01*
X28936575Y-73756094D01*
X29049664Y-73695646D01*
X29081596Y-73685960D01*
X29172382Y-73658420D01*
X29300000Y-73645851D01*
X29427617Y-73658420D01*
X29427617Y-73658420D01*
G37*
G36*
X44667617Y-73658420D02*
G01*
X44758403Y-73685960D01*
X44790335Y-73695646D01*
X44903424Y-73756094D01*
X45002554Y-73837447D01*
X45083906Y-73936575D01*
X45144354Y-74049664D01*
X45154040Y-74081596D01*
X45181580Y-74172382D01*
X45191000Y-74268027D01*
X45191000Y-75131973D01*
X45181580Y-75227618D01*
X45154040Y-75318404D01*
X45144354Y-75350336D01*
X45083906Y-75463425D01*
X45002554Y-75562554D01*
X44903425Y-75643906D01*
X44790336Y-75704354D01*
X44758404Y-75714040D01*
X44667618Y-75741580D01*
X44540000Y-75754149D01*
X44412383Y-75741580D01*
X44321597Y-75714040D01*
X44289665Y-75704354D01*
X44176576Y-75643906D01*
X44077447Y-75562554D01*
X43996095Y-75463425D01*
X43935647Y-75350336D01*
X43931282Y-75335946D01*
X43898420Y-75227618D01*
X43889000Y-75131973D01*
X43889000Y-74268028D01*
X43898420Y-74172383D01*
X43935645Y-74049669D01*
X43935646Y-74049665D01*
X43996094Y-73936576D01*
X44077447Y-73837446D01*
X44176575Y-73756094D01*
X44289664Y-73695646D01*
X44321596Y-73685960D01*
X44412382Y-73658420D01*
X44540000Y-73645851D01*
X44667617Y-73658420D01*
X44667617Y-73658420D01*
G37*
G36*
X42127617Y-73658420D02*
G01*
X42218403Y-73685960D01*
X42250335Y-73695646D01*
X42363424Y-73756094D01*
X42462554Y-73837447D01*
X42543906Y-73936575D01*
X42604354Y-74049664D01*
X42614040Y-74081596D01*
X42641580Y-74172382D01*
X42651000Y-74268027D01*
X42651000Y-75131973D01*
X42641580Y-75227618D01*
X42614040Y-75318404D01*
X42604354Y-75350336D01*
X42543906Y-75463425D01*
X42462554Y-75562554D01*
X42363425Y-75643906D01*
X42250336Y-75704354D01*
X42218404Y-75714040D01*
X42127618Y-75741580D01*
X42000000Y-75754149D01*
X41872383Y-75741580D01*
X41781597Y-75714040D01*
X41749665Y-75704354D01*
X41636576Y-75643906D01*
X41537447Y-75562554D01*
X41456095Y-75463425D01*
X41395647Y-75350336D01*
X41391282Y-75335946D01*
X41358420Y-75227618D01*
X41349000Y-75131973D01*
X41349000Y-74268028D01*
X41358420Y-74172383D01*
X41395645Y-74049669D01*
X41395646Y-74049665D01*
X41456094Y-73936576D01*
X41537447Y-73837446D01*
X41636575Y-73756094D01*
X41749664Y-73695646D01*
X41781596Y-73685960D01*
X41872382Y-73658420D01*
X42000000Y-73645851D01*
X42127617Y-73658420D01*
X42127617Y-73658420D01*
G37*
G36*
X27411000Y-75751000D02*
G01*
X26109000Y-75751000D01*
X26109000Y-73649000D01*
X27411000Y-73649000D01*
X27411000Y-75751000D01*
X27411000Y-75751000D01*
G37*
G36*
X96164600Y-74664600D02*
G01*
X94335400Y-74664600D01*
X94335400Y-72835400D01*
X96164600Y-72835400D01*
X96164600Y-74664600D01*
X96164600Y-74664600D01*
G37*
G36*
X92889294Y-72848633D02*
G01*
X93061695Y-72900931D01*
X93220583Y-72985858D01*
X93359849Y-73100151D01*
X93474142Y-73239417D01*
X93559069Y-73398305D01*
X93611367Y-73570706D01*
X93629025Y-73750000D01*
X93611367Y-73929294D01*
X93559069Y-74101695D01*
X93474142Y-74260583D01*
X93359849Y-74399849D01*
X93220583Y-74514142D01*
X93061695Y-74599069D01*
X92889294Y-74651367D01*
X92754931Y-74664600D01*
X92665069Y-74664600D01*
X92530706Y-74651367D01*
X92358305Y-74599069D01*
X92199417Y-74514142D01*
X92060151Y-74399849D01*
X91945858Y-74260583D01*
X91860931Y-74101695D01*
X91808633Y-73929294D01*
X91790975Y-73750000D01*
X91808633Y-73570706D01*
X91860931Y-73398305D01*
X91945858Y-73239417D01*
X92060151Y-73100151D01*
X92199417Y-72985858D01*
X92358305Y-72900931D01*
X92530706Y-72848633D01*
X92665069Y-72835400D01*
X92754931Y-72835400D01*
X92889294Y-72848633D01*
X92889294Y-72848633D01*
G37*
G36*
X92889294Y-70308633D02*
G01*
X93061695Y-70360931D01*
X93220583Y-70445858D01*
X93359849Y-70560151D01*
X93474142Y-70699417D01*
X93559069Y-70858305D01*
X93611367Y-71030706D01*
X93629025Y-71210000D01*
X93611367Y-71389294D01*
X93559069Y-71561695D01*
X93474142Y-71720583D01*
X93359849Y-71859849D01*
X93220583Y-71974142D01*
X93061695Y-72059069D01*
X92889294Y-72111367D01*
X92754931Y-72124600D01*
X92665069Y-72124600D01*
X92530706Y-72111367D01*
X92358305Y-72059069D01*
X92199417Y-71974142D01*
X92060151Y-71859849D01*
X91945858Y-71720583D01*
X91860931Y-71561695D01*
X91808633Y-71389294D01*
X91790975Y-71210000D01*
X91808633Y-71030706D01*
X91860931Y-70858305D01*
X91945858Y-70699417D01*
X92060151Y-70560151D01*
X92199417Y-70445858D01*
X92358305Y-70360931D01*
X92530706Y-70308633D01*
X92665069Y-70295400D01*
X92754931Y-70295400D01*
X92889294Y-70308633D01*
X92889294Y-70308633D01*
G37*
G36*
X95429294Y-70308633D02*
G01*
X95601695Y-70360931D01*
X95760583Y-70445858D01*
X95899849Y-70560151D01*
X96014142Y-70699417D01*
X96099069Y-70858305D01*
X96151367Y-71030706D01*
X96169025Y-71210000D01*
X96151367Y-71389294D01*
X96099069Y-71561695D01*
X96014142Y-71720583D01*
X95899849Y-71859849D01*
X95760583Y-71974142D01*
X95601695Y-72059069D01*
X95429294Y-72111367D01*
X95294931Y-72124600D01*
X95205069Y-72124600D01*
X95070706Y-72111367D01*
X94898305Y-72059069D01*
X94739417Y-71974142D01*
X94600151Y-71859849D01*
X94485858Y-71720583D01*
X94400931Y-71561695D01*
X94348633Y-71389294D01*
X94330975Y-71210000D01*
X94348633Y-71030706D01*
X94400931Y-70858305D01*
X94485858Y-70699417D01*
X94600151Y-70560151D01*
X94739417Y-70445858D01*
X94898305Y-70360931D01*
X95070706Y-70308633D01*
X95205069Y-70295400D01*
X95294931Y-70295400D01*
X95429294Y-70308633D01*
X95429294Y-70308633D01*
G37*
G36*
X82308000Y-71386000D02*
G01*
X80506000Y-71386000D01*
X80506000Y-69584000D01*
X82308000Y-69584000D01*
X82308000Y-71386000D01*
X82308000Y-71386000D01*
G37*
G36*
X72148000Y-71386000D02*
G01*
X70346000Y-71386000D01*
X70346000Y-69584000D01*
X72148000Y-69584000D01*
X72148000Y-71386000D01*
X72148000Y-71386000D01*
G37*
G36*
X73897442Y-69590518D02*
G01*
X73963627Y-69597037D01*
X74133466Y-69648557D01*
X74289991Y-69732222D01*
X74325729Y-69761552D01*
X74427186Y-69844814D01*
X74510448Y-69946271D01*
X74539778Y-69982009D01*
X74623443Y-70138534D01*
X74674963Y-70308373D01*
X74692359Y-70485000D01*
X74674963Y-70661627D01*
X74623443Y-70831466D01*
X74539778Y-70987991D01*
X74510448Y-71023729D01*
X74427186Y-71125186D01*
X74325729Y-71208448D01*
X74289991Y-71237778D01*
X74133466Y-71321443D01*
X73963627Y-71372963D01*
X73897442Y-71379482D01*
X73831260Y-71386000D01*
X73742740Y-71386000D01*
X73676558Y-71379482D01*
X73610373Y-71372963D01*
X73440534Y-71321443D01*
X73284009Y-71237778D01*
X73248271Y-71208448D01*
X73146814Y-71125186D01*
X73063552Y-71023729D01*
X73034222Y-70987991D01*
X72950557Y-70831466D01*
X72899037Y-70661627D01*
X72881641Y-70485000D01*
X72899037Y-70308373D01*
X72950557Y-70138534D01*
X73034222Y-69982009D01*
X73063552Y-69946271D01*
X73146814Y-69844814D01*
X73248271Y-69761552D01*
X73284009Y-69732222D01*
X73440534Y-69648557D01*
X73610373Y-69597037D01*
X73676558Y-69590518D01*
X73742740Y-69584000D01*
X73831260Y-69584000D01*
X73897442Y-69590518D01*
X73897442Y-69590518D01*
G37*
G36*
X84057442Y-69590518D02*
G01*
X84123627Y-69597037D01*
X84293466Y-69648557D01*
X84449991Y-69732222D01*
X84485729Y-69761552D01*
X84587186Y-69844814D01*
X84670448Y-69946271D01*
X84699778Y-69982009D01*
X84783443Y-70138534D01*
X84834963Y-70308373D01*
X84852359Y-70485000D01*
X84834963Y-70661627D01*
X84783443Y-70831466D01*
X84699778Y-70987991D01*
X84670448Y-71023729D01*
X84587186Y-71125186D01*
X84485729Y-71208448D01*
X84449991Y-71237778D01*
X84293466Y-71321443D01*
X84123627Y-71372963D01*
X84057442Y-71379482D01*
X83991260Y-71386000D01*
X83902740Y-71386000D01*
X83836558Y-71379482D01*
X83770373Y-71372963D01*
X83600534Y-71321443D01*
X83444009Y-71237778D01*
X83408271Y-71208448D01*
X83306814Y-71125186D01*
X83223552Y-71023729D01*
X83194222Y-70987991D01*
X83110557Y-70831466D01*
X83059037Y-70661627D01*
X83041641Y-70485000D01*
X83059037Y-70308373D01*
X83110557Y-70138534D01*
X83194222Y-69982009D01*
X83223552Y-69946271D01*
X83306814Y-69844814D01*
X83408271Y-69761552D01*
X83444009Y-69732222D01*
X83600534Y-69648557D01*
X83770373Y-69597037D01*
X83836558Y-69590518D01*
X83902740Y-69584000D01*
X83991260Y-69584000D01*
X84057442Y-69590518D01*
X84057442Y-69590518D01*
G37*
G36*
X95429294Y-67768633D02*
G01*
X95601695Y-67820931D01*
X95760583Y-67905858D01*
X95899849Y-68020151D01*
X96014142Y-68159417D01*
X96099069Y-68318305D01*
X96151367Y-68490706D01*
X96169025Y-68670000D01*
X96151367Y-68849294D01*
X96099069Y-69021695D01*
X96014142Y-69180583D01*
X95899849Y-69319849D01*
X95760583Y-69434142D01*
X95601695Y-69519069D01*
X95429294Y-69571367D01*
X95294931Y-69584600D01*
X95205069Y-69584600D01*
X95070706Y-69571367D01*
X94898305Y-69519069D01*
X94739417Y-69434142D01*
X94600151Y-69319849D01*
X94485858Y-69180583D01*
X94400931Y-69021695D01*
X94348633Y-68849294D01*
X94330975Y-68670000D01*
X94348633Y-68490706D01*
X94400931Y-68318305D01*
X94485858Y-68159417D01*
X94600151Y-68020151D01*
X94739417Y-67905858D01*
X94898305Y-67820931D01*
X95070706Y-67768633D01*
X95205069Y-67755400D01*
X95294931Y-67755400D01*
X95429294Y-67768633D01*
X95429294Y-67768633D01*
G37*
G36*
X92889294Y-67768633D02*
G01*
X93061695Y-67820931D01*
X93220583Y-67905858D01*
X93359849Y-68020151D01*
X93474142Y-68159417D01*
X93559069Y-68318305D01*
X93611367Y-68490706D01*
X93629025Y-68670000D01*
X93611367Y-68849294D01*
X93559069Y-69021695D01*
X93474142Y-69180583D01*
X93359849Y-69319849D01*
X93220583Y-69434142D01*
X93061695Y-69519069D01*
X92889294Y-69571367D01*
X92754931Y-69584600D01*
X92665069Y-69584600D01*
X92530706Y-69571367D01*
X92358305Y-69519069D01*
X92199417Y-69434142D01*
X92060151Y-69319849D01*
X91945858Y-69180583D01*
X91860931Y-69021695D01*
X91808633Y-68849294D01*
X91790975Y-68670000D01*
X91808633Y-68490706D01*
X91860931Y-68318305D01*
X91945858Y-68159417D01*
X92060151Y-68020151D01*
X92199417Y-67905858D01*
X92358305Y-67820931D01*
X92530706Y-67768633D01*
X92665069Y-67755400D01*
X92754931Y-67755400D01*
X92889294Y-67768633D01*
X92889294Y-67768633D01*
G37*
G36*
X3556564Y-66489389D02*
G01*
X3747833Y-66568615D01*
X3747835Y-66568616D01*
X3919973Y-66683635D01*
X4066365Y-66830027D01*
X4181385Y-67002167D01*
X4260611Y-67193436D01*
X4301000Y-67396484D01*
X4301000Y-67603516D01*
X4260611Y-67806564D01*
X4181385Y-67997833D01*
X4181384Y-67997835D01*
X4066365Y-68169973D01*
X3919973Y-68316365D01*
X3747835Y-68431384D01*
X3747834Y-68431385D01*
X3747833Y-68431385D01*
X3556564Y-68510611D01*
X3353516Y-68551000D01*
X3146484Y-68551000D01*
X2943436Y-68510611D01*
X2752167Y-68431385D01*
X2752166Y-68431385D01*
X2752165Y-68431384D01*
X2580027Y-68316365D01*
X2433635Y-68169973D01*
X2318616Y-67997835D01*
X2318615Y-67997833D01*
X2239389Y-67806564D01*
X2199000Y-67603516D01*
X2199000Y-67396484D01*
X2239389Y-67193436D01*
X2318615Y-67002167D01*
X2433635Y-66830027D01*
X2580027Y-66683635D01*
X2752165Y-66568616D01*
X2752167Y-66568615D01*
X2943436Y-66489389D01*
X3146484Y-66449000D01*
X3353516Y-66449000D01*
X3556564Y-66489389D01*
X3556564Y-66489389D01*
G37*
G36*
X11801000Y-68551000D02*
G01*
X9699000Y-68551000D01*
X9699000Y-66449000D01*
X11801000Y-66449000D01*
X11801000Y-68551000D01*
X11801000Y-68551000D01*
G37*
G36*
X82308000Y-65036000D02*
G01*
X80506000Y-65036000D01*
X80506000Y-63234000D01*
X82308000Y-63234000D01*
X82308000Y-65036000D01*
X82308000Y-65036000D01*
G37*
G36*
X72148000Y-65036000D02*
G01*
X70346000Y-65036000D01*
X70346000Y-63234000D01*
X72148000Y-63234000D01*
X72148000Y-65036000D01*
X72148000Y-65036000D01*
G37*
G36*
X73897443Y-63240519D02*
G01*
X73963627Y-63247037D01*
X74133466Y-63298557D01*
X74289991Y-63382222D01*
X74325729Y-63411552D01*
X74427186Y-63494814D01*
X74510448Y-63596271D01*
X74539778Y-63632009D01*
X74623443Y-63788534D01*
X74674963Y-63958373D01*
X74692359Y-64135000D01*
X74674963Y-64311627D01*
X74623443Y-64481466D01*
X74539778Y-64637991D01*
X74510448Y-64673729D01*
X74427186Y-64775186D01*
X74325729Y-64858448D01*
X74289991Y-64887778D01*
X74133466Y-64971443D01*
X73963627Y-65022963D01*
X73897442Y-65029482D01*
X73831260Y-65036000D01*
X73742740Y-65036000D01*
X73676558Y-65029482D01*
X73610373Y-65022963D01*
X73440534Y-64971443D01*
X73284009Y-64887778D01*
X73248271Y-64858448D01*
X73146814Y-64775186D01*
X73063552Y-64673729D01*
X73034222Y-64637991D01*
X72950557Y-64481466D01*
X72899037Y-64311627D01*
X72881641Y-64135000D01*
X72899037Y-63958373D01*
X72950557Y-63788534D01*
X73034222Y-63632009D01*
X73063552Y-63596271D01*
X73146814Y-63494814D01*
X73248271Y-63411552D01*
X73284009Y-63382222D01*
X73440534Y-63298557D01*
X73610373Y-63247037D01*
X73676557Y-63240519D01*
X73742740Y-63234000D01*
X73831260Y-63234000D01*
X73897443Y-63240519D01*
X73897443Y-63240519D01*
G37*
G36*
X84057443Y-63240519D02*
G01*
X84123627Y-63247037D01*
X84293466Y-63298557D01*
X84449991Y-63382222D01*
X84485729Y-63411552D01*
X84587186Y-63494814D01*
X84670448Y-63596271D01*
X84699778Y-63632009D01*
X84783443Y-63788534D01*
X84834963Y-63958373D01*
X84852359Y-64135000D01*
X84834963Y-64311627D01*
X84783443Y-64481466D01*
X84699778Y-64637991D01*
X84670448Y-64673729D01*
X84587186Y-64775186D01*
X84485729Y-64858448D01*
X84449991Y-64887778D01*
X84293466Y-64971443D01*
X84123627Y-65022963D01*
X84057442Y-65029482D01*
X83991260Y-65036000D01*
X83902740Y-65036000D01*
X83836558Y-65029482D01*
X83770373Y-65022963D01*
X83600534Y-64971443D01*
X83444009Y-64887778D01*
X83408271Y-64858448D01*
X83306814Y-64775186D01*
X83223552Y-64673729D01*
X83194222Y-64637991D01*
X83110557Y-64481466D01*
X83059037Y-64311627D01*
X83041641Y-64135000D01*
X83059037Y-63958373D01*
X83110557Y-63788534D01*
X83194222Y-63632009D01*
X83223552Y-63596271D01*
X83306814Y-63494814D01*
X83408271Y-63411552D01*
X83444009Y-63382222D01*
X83600534Y-63298557D01*
X83770373Y-63247037D01*
X83836557Y-63240519D01*
X83902740Y-63234000D01*
X83991260Y-63234000D01*
X84057443Y-63240519D01*
X84057443Y-63240519D01*
G37*
G36*
X72148000Y-58686000D02*
G01*
X70346000Y-58686000D01*
X70346000Y-56884000D01*
X72148000Y-56884000D01*
X72148000Y-58686000D01*
X72148000Y-58686000D01*
G37*
G36*
X84057442Y-56890518D02*
G01*
X84123627Y-56897037D01*
X84293466Y-56948557D01*
X84449991Y-57032222D01*
X84485729Y-57061552D01*
X84587186Y-57144814D01*
X84670448Y-57246271D01*
X84699778Y-57282009D01*
X84783443Y-57438534D01*
X84834963Y-57608373D01*
X84852359Y-57785000D01*
X84834963Y-57961627D01*
X84783443Y-58131466D01*
X84699778Y-58287991D01*
X84670448Y-58323729D01*
X84587186Y-58425186D01*
X84485729Y-58508448D01*
X84449991Y-58537778D01*
X84293466Y-58621443D01*
X84123627Y-58672963D01*
X84057442Y-58679482D01*
X83991260Y-58686000D01*
X83902740Y-58686000D01*
X83836558Y-58679482D01*
X83770373Y-58672963D01*
X83600534Y-58621443D01*
X83444009Y-58537778D01*
X83408271Y-58508448D01*
X83306814Y-58425186D01*
X83223552Y-58323729D01*
X83194222Y-58287991D01*
X83110557Y-58131466D01*
X83059037Y-57961627D01*
X83041641Y-57785000D01*
X83059037Y-57608373D01*
X83110557Y-57438534D01*
X83194222Y-57282009D01*
X83223552Y-57246271D01*
X83306814Y-57144814D01*
X83408271Y-57061552D01*
X83444009Y-57032222D01*
X83600534Y-56948557D01*
X83770373Y-56897037D01*
X83836558Y-56890518D01*
X83902740Y-56884000D01*
X83991260Y-56884000D01*
X84057442Y-56890518D01*
X84057442Y-56890518D01*
G37*
G36*
X73897442Y-56890518D02*
G01*
X73963627Y-56897037D01*
X74133466Y-56948557D01*
X74289991Y-57032222D01*
X74325729Y-57061552D01*
X74427186Y-57144814D01*
X74510448Y-57246271D01*
X74539778Y-57282009D01*
X74623443Y-57438534D01*
X74674963Y-57608373D01*
X74692359Y-57785000D01*
X74674963Y-57961627D01*
X74623443Y-58131466D01*
X74539778Y-58287991D01*
X74510448Y-58323729D01*
X74427186Y-58425186D01*
X74325729Y-58508448D01*
X74289991Y-58537778D01*
X74133466Y-58621443D01*
X73963627Y-58672963D01*
X73897442Y-58679482D01*
X73831260Y-58686000D01*
X73742740Y-58686000D01*
X73676558Y-58679482D01*
X73610373Y-58672963D01*
X73440534Y-58621443D01*
X73284009Y-58537778D01*
X73248271Y-58508448D01*
X73146814Y-58425186D01*
X73063552Y-58323729D01*
X73034222Y-58287991D01*
X72950557Y-58131466D01*
X72899037Y-57961627D01*
X72881641Y-57785000D01*
X72899037Y-57608373D01*
X72950557Y-57438534D01*
X73034222Y-57282009D01*
X73063552Y-57246271D01*
X73146814Y-57144814D01*
X73248271Y-57061552D01*
X73284009Y-57032222D01*
X73440534Y-56948557D01*
X73610373Y-56897037D01*
X73676558Y-56890518D01*
X73742740Y-56884000D01*
X73831260Y-56884000D01*
X73897442Y-56890518D01*
X73897442Y-56890518D01*
G37*
G36*
X82308000Y-58686000D02*
G01*
X80506000Y-58686000D01*
X80506000Y-56884000D01*
X82308000Y-56884000D01*
X82308000Y-58686000D01*
X82308000Y-58686000D01*
G37*
G36*
X9651000Y-57651000D02*
G01*
X7549000Y-57651000D01*
X7549000Y-55549000D01*
X9651000Y-55549000D01*
X9651000Y-57651000D01*
X9651000Y-57651000D01*
G37*
G36*
X96084600Y-56754600D02*
G01*
X94255400Y-56754600D01*
X94255400Y-54925400D01*
X96084600Y-54925400D01*
X96084600Y-56754600D01*
X96084600Y-56754600D01*
G37*
G36*
X92809294Y-54938633D02*
G01*
X92981695Y-54990931D01*
X93140583Y-55075858D01*
X93279849Y-55190151D01*
X93394142Y-55329417D01*
X93479069Y-55488305D01*
X93531367Y-55660706D01*
X93549025Y-55840000D01*
X93531367Y-56019294D01*
X93479069Y-56191695D01*
X93394142Y-56350583D01*
X93279849Y-56489849D01*
X93140583Y-56604142D01*
X92981695Y-56689069D01*
X92809294Y-56741367D01*
X92674931Y-56754600D01*
X92585069Y-56754600D01*
X92450706Y-56741367D01*
X92278305Y-56689069D01*
X92119417Y-56604142D01*
X91980151Y-56489849D01*
X91865858Y-56350583D01*
X91780931Y-56191695D01*
X91728633Y-56019294D01*
X91710975Y-55840000D01*
X91728633Y-55660706D01*
X91780931Y-55488305D01*
X91865858Y-55329417D01*
X91980151Y-55190151D01*
X92119417Y-55075858D01*
X92278305Y-54990931D01*
X92450706Y-54938633D01*
X92585069Y-54925400D01*
X92674931Y-54925400D01*
X92809294Y-54938633D01*
X92809294Y-54938633D01*
G37*
G36*
X95349294Y-52398633D02*
G01*
X95521695Y-52450931D01*
X95680583Y-52535858D01*
X95819849Y-52650151D01*
X95934142Y-52789417D01*
X96019069Y-52948305D01*
X96071367Y-53120706D01*
X96089025Y-53300000D01*
X96071367Y-53479294D01*
X96019069Y-53651695D01*
X95934142Y-53810583D01*
X95819849Y-53949849D01*
X95680583Y-54064142D01*
X95521695Y-54149069D01*
X95349294Y-54201367D01*
X95214931Y-54214600D01*
X95125069Y-54214600D01*
X94990706Y-54201367D01*
X94818305Y-54149069D01*
X94659417Y-54064142D01*
X94520151Y-53949849D01*
X94405858Y-53810583D01*
X94320931Y-53651695D01*
X94268633Y-53479294D01*
X94250975Y-53300000D01*
X94268633Y-53120706D01*
X94320931Y-52948305D01*
X94405858Y-52789417D01*
X94520151Y-52650151D01*
X94659417Y-52535858D01*
X94818305Y-52450931D01*
X94990706Y-52398633D01*
X95125069Y-52385400D01*
X95214931Y-52385400D01*
X95349294Y-52398633D01*
X95349294Y-52398633D01*
G37*
G36*
X92809294Y-52398633D02*
G01*
X92981695Y-52450931D01*
X93140583Y-52535858D01*
X93279849Y-52650151D01*
X93394142Y-52789417D01*
X93479069Y-52948305D01*
X93531367Y-53120706D01*
X93549025Y-53300000D01*
X93531367Y-53479294D01*
X93479069Y-53651695D01*
X93394142Y-53810583D01*
X93279849Y-53949849D01*
X93140583Y-54064142D01*
X92981695Y-54149069D01*
X92809294Y-54201367D01*
X92674931Y-54214600D01*
X92585069Y-54214600D01*
X92450706Y-54201367D01*
X92278305Y-54149069D01*
X92119417Y-54064142D01*
X91980151Y-53949849D01*
X91865858Y-53810583D01*
X91780931Y-53651695D01*
X91728633Y-53479294D01*
X91710975Y-53300000D01*
X91728633Y-53120706D01*
X91780931Y-52948305D01*
X91865858Y-52789417D01*
X91980151Y-52650151D01*
X92119417Y-52535858D01*
X92278305Y-52450931D01*
X92450706Y-52398633D01*
X92585069Y-52385400D01*
X92674931Y-52385400D01*
X92809294Y-52398633D01*
X92809294Y-52398633D01*
G37*
G36*
X84057442Y-50540518D02*
G01*
X84123627Y-50547037D01*
X84293466Y-50598557D01*
X84449991Y-50682222D01*
X84485729Y-50711552D01*
X84587186Y-50794814D01*
X84670448Y-50896271D01*
X84699778Y-50932009D01*
X84783443Y-51088534D01*
X84834963Y-51258373D01*
X84852359Y-51435000D01*
X84834963Y-51611627D01*
X84783443Y-51781466D01*
X84699778Y-51937991D01*
X84670448Y-51973729D01*
X84587186Y-52075186D01*
X84485729Y-52158448D01*
X84449991Y-52187778D01*
X84293466Y-52271443D01*
X84123627Y-52322963D01*
X84057443Y-52329481D01*
X83991260Y-52336000D01*
X83902740Y-52336000D01*
X83836558Y-52329482D01*
X83770373Y-52322963D01*
X83600534Y-52271443D01*
X83444009Y-52187778D01*
X83408271Y-52158448D01*
X83306814Y-52075186D01*
X83223552Y-51973729D01*
X83194222Y-51937991D01*
X83110557Y-51781466D01*
X83059037Y-51611627D01*
X83041641Y-51435000D01*
X83059037Y-51258373D01*
X83110557Y-51088534D01*
X83194222Y-50932009D01*
X83223552Y-50896271D01*
X83306814Y-50794814D01*
X83408271Y-50711552D01*
X83444009Y-50682222D01*
X83600534Y-50598557D01*
X83770373Y-50547037D01*
X83836558Y-50540518D01*
X83902740Y-50534000D01*
X83991260Y-50534000D01*
X84057442Y-50540518D01*
X84057442Y-50540518D01*
G37*
G36*
X82308000Y-52336000D02*
G01*
X80506000Y-52336000D01*
X80506000Y-50534000D01*
X82308000Y-50534000D01*
X82308000Y-52336000D01*
X82308000Y-52336000D01*
G37*
G36*
X72148000Y-52336000D02*
G01*
X70346000Y-52336000D01*
X70346000Y-50534000D01*
X72148000Y-50534000D01*
X72148000Y-52336000D01*
X72148000Y-52336000D01*
G37*
G36*
X73897442Y-50540518D02*
G01*
X73963627Y-50547037D01*
X74133466Y-50598557D01*
X74289991Y-50682222D01*
X74325729Y-50711552D01*
X74427186Y-50794814D01*
X74510448Y-50896271D01*
X74539778Y-50932009D01*
X74623443Y-51088534D01*
X74674963Y-51258373D01*
X74692359Y-51435000D01*
X74674963Y-51611627D01*
X74623443Y-51781466D01*
X74539778Y-51937991D01*
X74510448Y-51973729D01*
X74427186Y-52075186D01*
X74325729Y-52158448D01*
X74289991Y-52187778D01*
X74133466Y-52271443D01*
X73963627Y-52322963D01*
X73897443Y-52329481D01*
X73831260Y-52336000D01*
X73742740Y-52336000D01*
X73676558Y-52329482D01*
X73610373Y-52322963D01*
X73440534Y-52271443D01*
X73284009Y-52187778D01*
X73248271Y-52158448D01*
X73146814Y-52075186D01*
X73063552Y-51973729D01*
X73034222Y-51937991D01*
X72950557Y-51781466D01*
X72899037Y-51611627D01*
X72881641Y-51435000D01*
X72899037Y-51258373D01*
X72950557Y-51088534D01*
X73034222Y-50932009D01*
X73063552Y-50896271D01*
X73146814Y-50794814D01*
X73248271Y-50711552D01*
X73284009Y-50682222D01*
X73440534Y-50598557D01*
X73610373Y-50547037D01*
X73676558Y-50540518D01*
X73742740Y-50534000D01*
X73831260Y-50534000D01*
X73897442Y-50540518D01*
X73897442Y-50540518D01*
G37*
G36*
X95349294Y-49858633D02*
G01*
X95521695Y-49910931D01*
X95680583Y-49995858D01*
X95819849Y-50110151D01*
X95934142Y-50249417D01*
X96019069Y-50408305D01*
X96071367Y-50580706D01*
X96089025Y-50760000D01*
X96071367Y-50939294D01*
X96019069Y-51111695D01*
X95934142Y-51270583D01*
X95819849Y-51409849D01*
X95680583Y-51524142D01*
X95521695Y-51609069D01*
X95349294Y-51661367D01*
X95214931Y-51674600D01*
X95125069Y-51674600D01*
X94990706Y-51661367D01*
X94818305Y-51609069D01*
X94659417Y-51524142D01*
X94520151Y-51409849D01*
X94405858Y-51270583D01*
X94320931Y-51111695D01*
X94268633Y-50939294D01*
X94250975Y-50760000D01*
X94268633Y-50580706D01*
X94320931Y-50408305D01*
X94405858Y-50249417D01*
X94520151Y-50110151D01*
X94659417Y-49995858D01*
X94818305Y-49910931D01*
X94990706Y-49858633D01*
X95125069Y-49845400D01*
X95214931Y-49845400D01*
X95349294Y-49858633D01*
X95349294Y-49858633D01*
G37*
G36*
X92809294Y-49858633D02*
G01*
X92981695Y-49910931D01*
X93140583Y-49995858D01*
X93279849Y-50110151D01*
X93394142Y-50249417D01*
X93479069Y-50408305D01*
X93531367Y-50580706D01*
X93549025Y-50760000D01*
X93531367Y-50939294D01*
X93479069Y-51111695D01*
X93394142Y-51270583D01*
X93279849Y-51409849D01*
X93140583Y-51524142D01*
X92981695Y-51609069D01*
X92809294Y-51661367D01*
X92674931Y-51674600D01*
X92585069Y-51674600D01*
X92450706Y-51661367D01*
X92278305Y-51609069D01*
X92119417Y-51524142D01*
X91980151Y-51409849D01*
X91865858Y-51270583D01*
X91780931Y-51111695D01*
X91728633Y-50939294D01*
X91710975Y-50760000D01*
X91728633Y-50580706D01*
X91780931Y-50408305D01*
X91865858Y-50249417D01*
X91980151Y-50110151D01*
X92119417Y-49995858D01*
X92278305Y-49910931D01*
X92450706Y-49858633D01*
X92585069Y-49845400D01*
X92674931Y-49845400D01*
X92809294Y-49858633D01*
X92809294Y-49858633D01*
G37*
G36*
X47207617Y-48258420D02*
G01*
X47298403Y-48285960D01*
X47330335Y-48295646D01*
X47443424Y-48356094D01*
X47542554Y-48437447D01*
X47623906Y-48536575D01*
X47684354Y-48649664D01*
X47694040Y-48681596D01*
X47721580Y-48772382D01*
X47731000Y-48868027D01*
X47731000Y-49731973D01*
X47721580Y-49827618D01*
X47712171Y-49858634D01*
X47684354Y-49950336D01*
X47623906Y-50063425D01*
X47542554Y-50162554D01*
X47443425Y-50243906D01*
X47330336Y-50304354D01*
X47298404Y-50314040D01*
X47207618Y-50341580D01*
X47080000Y-50354149D01*
X46952383Y-50341580D01*
X46861597Y-50314040D01*
X46829665Y-50304354D01*
X46716576Y-50243906D01*
X46617447Y-50162554D01*
X46536095Y-50063425D01*
X46475647Y-49950336D01*
X46463694Y-49910932D01*
X46438420Y-49827618D01*
X46429000Y-49731973D01*
X46429000Y-48868028D01*
X46438420Y-48772383D01*
X46475645Y-48649669D01*
X46475646Y-48649665D01*
X46536094Y-48536576D01*
X46617447Y-48437446D01*
X46716575Y-48356094D01*
X46829664Y-48295646D01*
X46861596Y-48285960D01*
X46952382Y-48258420D01*
X47080000Y-48245851D01*
X47207617Y-48258420D01*
X47207617Y-48258420D01*
G37*
G36*
X59907617Y-48258420D02*
G01*
X59998403Y-48285960D01*
X60030335Y-48295646D01*
X60143424Y-48356094D01*
X60242554Y-48437447D01*
X60323906Y-48536575D01*
X60384354Y-48649664D01*
X60394040Y-48681596D01*
X60421580Y-48772382D01*
X60431000Y-48868027D01*
X60431000Y-49731973D01*
X60421580Y-49827618D01*
X60412171Y-49858634D01*
X60384354Y-49950336D01*
X60323906Y-50063425D01*
X60242554Y-50162554D01*
X60143425Y-50243906D01*
X60030336Y-50304354D01*
X59998404Y-50314040D01*
X59907618Y-50341580D01*
X59780000Y-50354149D01*
X59652383Y-50341580D01*
X59561597Y-50314040D01*
X59529665Y-50304354D01*
X59416576Y-50243906D01*
X59317447Y-50162554D01*
X59236095Y-50063425D01*
X59175647Y-49950336D01*
X59163694Y-49910932D01*
X59138420Y-49827618D01*
X59129000Y-49731973D01*
X59129000Y-48868028D01*
X59138420Y-48772383D01*
X59175645Y-48649669D01*
X59175646Y-48649665D01*
X59236094Y-48536576D01*
X59317447Y-48437446D01*
X59416575Y-48356094D01*
X59529664Y-48295646D01*
X59561596Y-48285960D01*
X59652382Y-48258420D01*
X59780000Y-48245851D01*
X59907617Y-48258420D01*
X59907617Y-48258420D01*
G37*
G36*
X57367617Y-48258420D02*
G01*
X57458403Y-48285960D01*
X57490335Y-48295646D01*
X57603424Y-48356094D01*
X57702554Y-48437447D01*
X57783906Y-48536575D01*
X57844354Y-48649664D01*
X57854040Y-48681596D01*
X57881580Y-48772382D01*
X57891000Y-48868027D01*
X57891000Y-49731973D01*
X57881580Y-49827618D01*
X57872171Y-49858634D01*
X57844354Y-49950336D01*
X57783906Y-50063425D01*
X57702554Y-50162554D01*
X57603425Y-50243906D01*
X57490336Y-50304354D01*
X57458404Y-50314040D01*
X57367618Y-50341580D01*
X57240000Y-50354149D01*
X57112383Y-50341580D01*
X57021597Y-50314040D01*
X56989665Y-50304354D01*
X56876576Y-50243906D01*
X56777447Y-50162554D01*
X56696095Y-50063425D01*
X56635647Y-49950336D01*
X56623694Y-49910932D01*
X56598420Y-49827618D01*
X56589000Y-49731973D01*
X56589000Y-48868028D01*
X56598420Y-48772383D01*
X56635645Y-48649669D01*
X56635646Y-48649665D01*
X56696094Y-48536576D01*
X56777447Y-48437446D01*
X56876575Y-48356094D01*
X56989664Y-48295646D01*
X57021596Y-48285960D01*
X57112382Y-48258420D01*
X57240000Y-48245851D01*
X57367617Y-48258420D01*
X57367617Y-48258420D01*
G37*
G36*
X39587617Y-48258420D02*
G01*
X39678403Y-48285960D01*
X39710335Y-48295646D01*
X39823424Y-48356094D01*
X39922554Y-48437447D01*
X40003906Y-48536575D01*
X40064354Y-48649664D01*
X40074040Y-48681596D01*
X40101580Y-48772382D01*
X40111000Y-48868027D01*
X40111000Y-49731973D01*
X40101580Y-49827618D01*
X40092171Y-49858634D01*
X40064354Y-49950336D01*
X40003906Y-50063425D01*
X39922554Y-50162554D01*
X39823425Y-50243906D01*
X39710336Y-50304354D01*
X39678404Y-50314040D01*
X39587618Y-50341580D01*
X39460000Y-50354149D01*
X39332383Y-50341580D01*
X39241597Y-50314040D01*
X39209665Y-50304354D01*
X39096576Y-50243906D01*
X38997447Y-50162554D01*
X38916095Y-50063425D01*
X38855647Y-49950336D01*
X38843694Y-49910932D01*
X38818420Y-49827618D01*
X38809000Y-49731973D01*
X38809000Y-48868028D01*
X38818420Y-48772383D01*
X38855645Y-48649669D01*
X38855646Y-48649665D01*
X38916094Y-48536576D01*
X38997447Y-48437446D01*
X39096575Y-48356094D01*
X39209664Y-48295646D01*
X39241596Y-48285960D01*
X39332382Y-48258420D01*
X39460000Y-48245851D01*
X39587617Y-48258420D01*
X39587617Y-48258420D01*
G37*
G36*
X44667617Y-48258420D02*
G01*
X44758403Y-48285960D01*
X44790335Y-48295646D01*
X44903424Y-48356094D01*
X45002554Y-48437447D01*
X45083906Y-48536575D01*
X45144354Y-48649664D01*
X45154040Y-48681596D01*
X45181580Y-48772382D01*
X45191000Y-48868027D01*
X45191000Y-49731973D01*
X45181580Y-49827618D01*
X45172171Y-49858634D01*
X45144354Y-49950336D01*
X45083906Y-50063425D01*
X45002554Y-50162554D01*
X44903425Y-50243906D01*
X44790336Y-50304354D01*
X44758404Y-50314040D01*
X44667618Y-50341580D01*
X44540000Y-50354149D01*
X44412383Y-50341580D01*
X44321597Y-50314040D01*
X44289665Y-50304354D01*
X44176576Y-50243906D01*
X44077447Y-50162554D01*
X43996095Y-50063425D01*
X43935647Y-49950336D01*
X43923694Y-49910932D01*
X43898420Y-49827618D01*
X43889000Y-49731973D01*
X43889000Y-48868028D01*
X43898420Y-48772383D01*
X43935645Y-48649669D01*
X43935646Y-48649665D01*
X43996094Y-48536576D01*
X44077447Y-48437446D01*
X44176575Y-48356094D01*
X44289664Y-48295646D01*
X44321596Y-48285960D01*
X44412382Y-48258420D01*
X44540000Y-48245851D01*
X44667617Y-48258420D01*
X44667617Y-48258420D01*
G37*
G36*
X49747617Y-48258420D02*
G01*
X49838403Y-48285960D01*
X49870335Y-48295646D01*
X49983424Y-48356094D01*
X50082554Y-48437447D01*
X50163906Y-48536575D01*
X50224354Y-48649664D01*
X50234040Y-48681596D01*
X50261580Y-48772382D01*
X50271000Y-48868027D01*
X50271000Y-49731973D01*
X50261580Y-49827618D01*
X50252171Y-49858634D01*
X50224354Y-49950336D01*
X50163906Y-50063425D01*
X50082554Y-50162554D01*
X49983425Y-50243906D01*
X49870336Y-50304354D01*
X49838404Y-50314040D01*
X49747618Y-50341580D01*
X49620000Y-50354149D01*
X49492383Y-50341580D01*
X49401597Y-50314040D01*
X49369665Y-50304354D01*
X49256576Y-50243906D01*
X49157447Y-50162554D01*
X49076095Y-50063425D01*
X49015647Y-49950336D01*
X49003694Y-49910932D01*
X48978420Y-49827618D01*
X48969000Y-49731973D01*
X48969000Y-48868028D01*
X48978420Y-48772383D01*
X49015645Y-48649669D01*
X49015646Y-48649665D01*
X49076094Y-48536576D01*
X49157447Y-48437446D01*
X49256575Y-48356094D01*
X49369664Y-48295646D01*
X49401596Y-48285960D01*
X49492382Y-48258420D01*
X49620000Y-48245851D01*
X49747617Y-48258420D01*
X49747617Y-48258420D01*
G37*
G36*
X52287617Y-48258420D02*
G01*
X52378403Y-48285960D01*
X52410335Y-48295646D01*
X52523424Y-48356094D01*
X52622554Y-48437447D01*
X52703906Y-48536575D01*
X52764354Y-48649664D01*
X52774040Y-48681596D01*
X52801580Y-48772382D01*
X52811000Y-48868027D01*
X52811000Y-49731973D01*
X52801580Y-49827618D01*
X52792171Y-49858634D01*
X52764354Y-49950336D01*
X52703906Y-50063425D01*
X52622554Y-50162554D01*
X52523425Y-50243906D01*
X52410336Y-50304354D01*
X52378404Y-50314040D01*
X52287618Y-50341580D01*
X52160000Y-50354149D01*
X52032383Y-50341580D01*
X51941597Y-50314040D01*
X51909665Y-50304354D01*
X51796576Y-50243906D01*
X51697447Y-50162554D01*
X51616095Y-50063425D01*
X51555647Y-49950336D01*
X51543694Y-49910932D01*
X51518420Y-49827618D01*
X51509000Y-49731973D01*
X51509000Y-48868028D01*
X51518420Y-48772383D01*
X51555645Y-48649669D01*
X51555646Y-48649665D01*
X51616094Y-48536576D01*
X51697447Y-48437446D01*
X51796575Y-48356094D01*
X51909664Y-48295646D01*
X51941596Y-48285960D01*
X52032382Y-48258420D01*
X52160000Y-48245851D01*
X52287617Y-48258420D01*
X52287617Y-48258420D01*
G37*
G36*
X24347617Y-48258420D02*
G01*
X24438403Y-48285960D01*
X24470335Y-48295646D01*
X24583424Y-48356094D01*
X24682554Y-48437447D01*
X24763906Y-48536575D01*
X24824354Y-48649664D01*
X24834040Y-48681596D01*
X24861580Y-48772382D01*
X24871000Y-48868027D01*
X24871000Y-49731973D01*
X24861580Y-49827618D01*
X24852171Y-49858634D01*
X24824354Y-49950336D01*
X24763906Y-50063425D01*
X24682554Y-50162554D01*
X24583425Y-50243906D01*
X24470336Y-50304354D01*
X24438404Y-50314040D01*
X24347618Y-50341580D01*
X24220000Y-50354149D01*
X24092383Y-50341580D01*
X24001597Y-50314040D01*
X23969665Y-50304354D01*
X23856576Y-50243906D01*
X23757447Y-50162554D01*
X23676095Y-50063425D01*
X23615647Y-49950336D01*
X23603694Y-49910932D01*
X23578420Y-49827618D01*
X23569000Y-49731973D01*
X23569000Y-48868028D01*
X23578420Y-48772383D01*
X23615645Y-48649669D01*
X23615646Y-48649665D01*
X23676094Y-48536576D01*
X23757447Y-48437446D01*
X23856575Y-48356094D01*
X23969664Y-48295646D01*
X24001596Y-48285960D01*
X24092382Y-48258420D01*
X24220000Y-48245851D01*
X24347617Y-48258420D01*
X24347617Y-48258420D01*
G37*
G36*
X29427617Y-48258420D02*
G01*
X29518403Y-48285960D01*
X29550335Y-48295646D01*
X29663424Y-48356094D01*
X29762554Y-48437447D01*
X29843906Y-48536575D01*
X29904354Y-48649664D01*
X29914040Y-48681596D01*
X29941580Y-48772382D01*
X29951000Y-48868027D01*
X29951000Y-49731973D01*
X29941580Y-49827618D01*
X29932171Y-49858634D01*
X29904354Y-49950336D01*
X29843906Y-50063425D01*
X29762554Y-50162554D01*
X29663425Y-50243906D01*
X29550336Y-50304354D01*
X29518404Y-50314040D01*
X29427618Y-50341580D01*
X29300000Y-50354149D01*
X29172383Y-50341580D01*
X29081597Y-50314040D01*
X29049665Y-50304354D01*
X28936576Y-50243906D01*
X28837447Y-50162554D01*
X28756095Y-50063425D01*
X28695647Y-49950336D01*
X28683694Y-49910932D01*
X28658420Y-49827618D01*
X28649000Y-49731973D01*
X28649000Y-48868028D01*
X28658420Y-48772383D01*
X28695645Y-48649669D01*
X28695646Y-48649665D01*
X28756094Y-48536576D01*
X28837447Y-48437446D01*
X28936575Y-48356094D01*
X29049664Y-48295646D01*
X29081596Y-48285960D01*
X29172382Y-48258420D01*
X29300000Y-48245851D01*
X29427617Y-48258420D01*
X29427617Y-48258420D01*
G37*
G36*
X34507617Y-48258420D02*
G01*
X34598403Y-48285960D01*
X34630335Y-48295646D01*
X34743424Y-48356094D01*
X34842554Y-48437447D01*
X34923906Y-48536575D01*
X34984354Y-48649664D01*
X34994040Y-48681596D01*
X35021580Y-48772382D01*
X35031000Y-48868027D01*
X35031000Y-49731973D01*
X35021580Y-49827618D01*
X35012171Y-49858634D01*
X34984354Y-49950336D01*
X34923906Y-50063425D01*
X34842554Y-50162554D01*
X34743425Y-50243906D01*
X34630336Y-50304354D01*
X34598404Y-50314040D01*
X34507618Y-50341580D01*
X34380000Y-50354149D01*
X34252383Y-50341580D01*
X34161597Y-50314040D01*
X34129665Y-50304354D01*
X34016576Y-50243906D01*
X33917447Y-50162554D01*
X33836095Y-50063425D01*
X33775647Y-49950336D01*
X33763694Y-49910932D01*
X33738420Y-49827618D01*
X33729000Y-49731973D01*
X33729000Y-48868028D01*
X33738420Y-48772383D01*
X33775645Y-48649669D01*
X33775646Y-48649665D01*
X33836094Y-48536576D01*
X33917447Y-48437446D01*
X34016575Y-48356094D01*
X34129664Y-48295646D01*
X34161596Y-48285960D01*
X34252382Y-48258420D01*
X34380000Y-48245851D01*
X34507617Y-48258420D01*
X34507617Y-48258420D01*
G37*
G36*
X54827617Y-48258420D02*
G01*
X54918403Y-48285960D01*
X54950335Y-48295646D01*
X55063424Y-48356094D01*
X55162554Y-48437447D01*
X55243906Y-48536575D01*
X55304354Y-48649664D01*
X55314040Y-48681596D01*
X55341580Y-48772382D01*
X55351000Y-48868027D01*
X55351000Y-49731973D01*
X55341580Y-49827618D01*
X55332171Y-49858634D01*
X55304354Y-49950336D01*
X55243906Y-50063425D01*
X55162554Y-50162554D01*
X55063425Y-50243906D01*
X54950336Y-50304354D01*
X54918404Y-50314040D01*
X54827618Y-50341580D01*
X54700000Y-50354149D01*
X54572383Y-50341580D01*
X54481597Y-50314040D01*
X54449665Y-50304354D01*
X54336576Y-50243906D01*
X54237447Y-50162554D01*
X54156095Y-50063425D01*
X54095647Y-49950336D01*
X54083694Y-49910932D01*
X54058420Y-49827618D01*
X54049000Y-49731973D01*
X54049000Y-48868028D01*
X54058420Y-48772383D01*
X54095645Y-48649669D01*
X54095646Y-48649665D01*
X54156094Y-48536576D01*
X54237447Y-48437446D01*
X54336575Y-48356094D01*
X54449664Y-48295646D01*
X54481596Y-48285960D01*
X54572382Y-48258420D01*
X54700000Y-48245851D01*
X54827617Y-48258420D01*
X54827617Y-48258420D01*
G37*
G36*
X42127617Y-48258420D02*
G01*
X42218403Y-48285960D01*
X42250335Y-48295646D01*
X42363424Y-48356094D01*
X42462554Y-48437447D01*
X42543906Y-48536575D01*
X42604354Y-48649664D01*
X42614040Y-48681596D01*
X42641580Y-48772382D01*
X42651000Y-48868027D01*
X42651000Y-49731973D01*
X42641580Y-49827618D01*
X42632171Y-49858634D01*
X42604354Y-49950336D01*
X42543906Y-50063425D01*
X42462554Y-50162554D01*
X42363425Y-50243906D01*
X42250336Y-50304354D01*
X42218404Y-50314040D01*
X42127618Y-50341580D01*
X42000000Y-50354149D01*
X41872383Y-50341580D01*
X41781597Y-50314040D01*
X41749665Y-50304354D01*
X41636576Y-50243906D01*
X41537447Y-50162554D01*
X41456095Y-50063425D01*
X41395647Y-49950336D01*
X41383694Y-49910932D01*
X41358420Y-49827618D01*
X41349000Y-49731973D01*
X41349000Y-48868028D01*
X41358420Y-48772383D01*
X41395645Y-48649669D01*
X41395646Y-48649665D01*
X41456094Y-48536576D01*
X41537447Y-48437446D01*
X41636575Y-48356094D01*
X41749664Y-48295646D01*
X41781596Y-48285960D01*
X41872382Y-48258420D01*
X42000000Y-48245851D01*
X42127617Y-48258420D01*
X42127617Y-48258420D01*
G37*
G36*
X37047617Y-48258420D02*
G01*
X37138403Y-48285960D01*
X37170335Y-48295646D01*
X37283424Y-48356094D01*
X37382554Y-48437447D01*
X37463906Y-48536575D01*
X37524354Y-48649664D01*
X37534040Y-48681596D01*
X37561580Y-48772382D01*
X37571000Y-48868027D01*
X37571000Y-49731973D01*
X37561580Y-49827618D01*
X37552171Y-49858634D01*
X37524354Y-49950336D01*
X37463906Y-50063425D01*
X37382554Y-50162554D01*
X37283425Y-50243906D01*
X37170336Y-50304354D01*
X37138404Y-50314040D01*
X37047618Y-50341580D01*
X36920000Y-50354149D01*
X36792383Y-50341580D01*
X36701597Y-50314040D01*
X36669665Y-50304354D01*
X36556576Y-50243906D01*
X36457447Y-50162554D01*
X36376095Y-50063425D01*
X36315647Y-49950336D01*
X36303694Y-49910932D01*
X36278420Y-49827618D01*
X36269000Y-49731973D01*
X36269000Y-48868028D01*
X36278420Y-48772383D01*
X36315645Y-48649669D01*
X36315646Y-48649665D01*
X36376094Y-48536576D01*
X36457447Y-48437446D01*
X36556575Y-48356094D01*
X36669664Y-48295646D01*
X36701596Y-48285960D01*
X36792382Y-48258420D01*
X36920000Y-48245851D01*
X37047617Y-48258420D01*
X37047617Y-48258420D01*
G37*
G36*
X31967617Y-48258420D02*
G01*
X32058403Y-48285960D01*
X32090335Y-48295646D01*
X32203424Y-48356094D01*
X32302554Y-48437447D01*
X32383906Y-48536575D01*
X32444354Y-48649664D01*
X32454040Y-48681596D01*
X32481580Y-48772382D01*
X32491000Y-48868027D01*
X32491000Y-49731973D01*
X32481580Y-49827618D01*
X32472171Y-49858634D01*
X32444354Y-49950336D01*
X32383906Y-50063425D01*
X32302554Y-50162554D01*
X32203425Y-50243906D01*
X32090336Y-50304354D01*
X32058404Y-50314040D01*
X31967618Y-50341580D01*
X31840000Y-50354149D01*
X31712383Y-50341580D01*
X31621597Y-50314040D01*
X31589665Y-50304354D01*
X31476576Y-50243906D01*
X31377447Y-50162554D01*
X31296095Y-50063425D01*
X31235647Y-49950336D01*
X31223694Y-49910932D01*
X31198420Y-49827618D01*
X31189000Y-49731973D01*
X31189000Y-48868028D01*
X31198420Y-48772383D01*
X31235645Y-48649669D01*
X31235646Y-48649665D01*
X31296094Y-48536576D01*
X31377447Y-48437446D01*
X31476575Y-48356094D01*
X31589664Y-48295646D01*
X31621596Y-48285960D01*
X31712382Y-48258420D01*
X31840000Y-48245851D01*
X31967617Y-48258420D01*
X31967617Y-48258420D01*
G37*
G36*
X27411000Y-50351000D02*
G01*
X26109000Y-50351000D01*
X26109000Y-48249000D01*
X27411000Y-48249000D01*
X27411000Y-50351000D01*
X27411000Y-50351000D01*
G37*
G36*
X8906564Y-47989389D02*
G01*
X9097833Y-48068615D01*
X9097835Y-48068616D01*
X9269973Y-48183635D01*
X9416365Y-48330027D01*
X9531385Y-48502167D01*
X9610611Y-48693436D01*
X9651000Y-48896484D01*
X9651000Y-49103516D01*
X9610611Y-49306564D01*
X9531385Y-49497833D01*
X9531384Y-49497835D01*
X9416365Y-49669973D01*
X9269973Y-49816365D01*
X9097835Y-49931384D01*
X9097834Y-49931385D01*
X9097833Y-49931385D01*
X8906564Y-50010611D01*
X8703516Y-50051000D01*
X8496484Y-50051000D01*
X8293436Y-50010611D01*
X8102167Y-49931385D01*
X8102166Y-49931385D01*
X8102165Y-49931384D01*
X7930027Y-49816365D01*
X7783635Y-49669973D01*
X7668616Y-49497835D01*
X7668615Y-49497833D01*
X7589389Y-49306564D01*
X7549000Y-49103516D01*
X7549000Y-48896484D01*
X7589389Y-48693436D01*
X7668615Y-48502167D01*
X7783635Y-48330027D01*
X7930027Y-48183635D01*
X8102165Y-48068616D01*
X8102167Y-48068615D01*
X8293436Y-47989389D01*
X8496484Y-47949000D01*
X8703516Y-47949000D01*
X8906564Y-47989389D01*
X8906564Y-47989389D01*
G37*
G36*
X72148000Y-45986000D02*
G01*
X70346000Y-45986000D01*
X70346000Y-44184000D01*
X72148000Y-44184000D01*
X72148000Y-45986000D01*
X72148000Y-45986000D01*
G37*
G36*
X73897442Y-44190518D02*
G01*
X73963627Y-44197037D01*
X74133466Y-44248557D01*
X74289991Y-44332222D01*
X74325729Y-44361552D01*
X74427186Y-44444814D01*
X74510448Y-44546271D01*
X74539778Y-44582009D01*
X74623443Y-44738534D01*
X74674963Y-44908373D01*
X74692359Y-45085000D01*
X74674963Y-45261627D01*
X74623443Y-45431466D01*
X74539778Y-45587991D01*
X74510448Y-45623729D01*
X74427186Y-45725186D01*
X74325729Y-45808448D01*
X74289991Y-45837778D01*
X74133466Y-45921443D01*
X73963627Y-45972963D01*
X73897442Y-45979482D01*
X73831260Y-45986000D01*
X73742740Y-45986000D01*
X73676558Y-45979482D01*
X73610373Y-45972963D01*
X73440534Y-45921443D01*
X73284009Y-45837778D01*
X73248271Y-45808448D01*
X73146814Y-45725186D01*
X73063552Y-45623729D01*
X73034222Y-45587991D01*
X72950557Y-45431466D01*
X72899037Y-45261627D01*
X72881641Y-45085000D01*
X72899037Y-44908373D01*
X72950557Y-44738534D01*
X73034222Y-44582009D01*
X73063552Y-44546271D01*
X73146814Y-44444814D01*
X73248271Y-44361552D01*
X73284009Y-44332222D01*
X73440534Y-44248557D01*
X73610373Y-44197037D01*
X73676558Y-44190518D01*
X73742740Y-44184000D01*
X73831260Y-44184000D01*
X73897442Y-44190518D01*
X73897442Y-44190518D01*
G37*
G36*
X84057442Y-44190518D02*
G01*
X84123627Y-44197037D01*
X84293466Y-44248557D01*
X84449991Y-44332222D01*
X84485729Y-44361552D01*
X84587186Y-44444814D01*
X84670448Y-44546271D01*
X84699778Y-44582009D01*
X84783443Y-44738534D01*
X84834963Y-44908373D01*
X84852359Y-45085000D01*
X84834963Y-45261627D01*
X84783443Y-45431466D01*
X84699778Y-45587991D01*
X84670448Y-45623729D01*
X84587186Y-45725186D01*
X84485729Y-45808448D01*
X84449991Y-45837778D01*
X84293466Y-45921443D01*
X84123627Y-45972963D01*
X84057442Y-45979482D01*
X83991260Y-45986000D01*
X83902740Y-45986000D01*
X83836558Y-45979482D01*
X83770373Y-45972963D01*
X83600534Y-45921443D01*
X83444009Y-45837778D01*
X83408271Y-45808448D01*
X83306814Y-45725186D01*
X83223552Y-45623729D01*
X83194222Y-45587991D01*
X83110557Y-45431466D01*
X83059037Y-45261627D01*
X83041641Y-45085000D01*
X83059037Y-44908373D01*
X83110557Y-44738534D01*
X83194222Y-44582009D01*
X83223552Y-44546271D01*
X83306814Y-44444814D01*
X83408271Y-44361552D01*
X83444009Y-44332222D01*
X83600534Y-44248557D01*
X83770373Y-44197037D01*
X83836558Y-44190518D01*
X83902740Y-44184000D01*
X83991260Y-44184000D01*
X84057442Y-44190518D01*
X84057442Y-44190518D01*
G37*
G36*
X82308000Y-45986000D02*
G01*
X80506000Y-45986000D01*
X80506000Y-44184000D01*
X82308000Y-44184000D01*
X82308000Y-45986000D01*
X82308000Y-45986000D01*
G37*
G36*
X6226000Y-40226000D02*
G01*
X4424000Y-40226000D01*
X4424000Y-38424000D01*
X6226000Y-38424000D01*
X6226000Y-40226000D01*
X6226000Y-40226000D01*
G37*
G36*
X97086425Y-37872760D02*
G01*
X97086428Y-37872761D01*
X97086429Y-37872761D01*
X97265693Y-37927140D01*
X97265696Y-37927142D01*
X97265697Y-37927142D01*
X97430903Y-38015446D01*
X97575712Y-38134288D01*
X97694554Y-38279097D01*
X97772006Y-38424000D01*
X97782860Y-38444307D01*
X97837239Y-38623571D01*
X97837240Y-38623575D01*
X97855601Y-38810000D01*
X97837240Y-38996425D01*
X97837239Y-38996428D01*
X97837239Y-38996429D01*
X97782860Y-39175693D01*
X97782858Y-39175696D01*
X97782858Y-39175697D01*
X97694554Y-39340903D01*
X97575712Y-39485712D01*
X97430903Y-39604554D01*
X97265697Y-39692858D01*
X97265693Y-39692860D01*
X97086429Y-39747239D01*
X97086428Y-39747239D01*
X97086425Y-39747240D01*
X96946718Y-39761000D01*
X95053282Y-39761000D01*
X94913575Y-39747240D01*
X94913572Y-39747239D01*
X94913571Y-39747239D01*
X94734307Y-39692860D01*
X94734303Y-39692858D01*
X94569097Y-39604554D01*
X94424288Y-39485712D01*
X94305446Y-39340903D01*
X94217142Y-39175697D01*
X94217142Y-39175696D01*
X94217140Y-39175693D01*
X94162761Y-38996429D01*
X94162761Y-38996428D01*
X94162760Y-38996425D01*
X94144399Y-38810000D01*
X94162760Y-38623575D01*
X94162761Y-38623571D01*
X94217140Y-38444307D01*
X94227994Y-38424000D01*
X94305446Y-38279097D01*
X94424288Y-38134288D01*
X94569097Y-38015446D01*
X94734303Y-37927142D01*
X94734304Y-37927142D01*
X94734307Y-37927140D01*
X94913571Y-37872761D01*
X94913572Y-37872761D01*
X94913575Y-37872760D01*
X95053282Y-37859000D01*
X96946718Y-37859000D01*
X97086425Y-37872760D01*
X97086425Y-37872760D01*
G37*
G36*
X5435443Y-35890519D02*
G01*
X5501627Y-35897037D01*
X5671466Y-35948557D01*
X5671468Y-35948558D01*
X5749729Y-35990390D01*
X5827991Y-36032222D01*
X5863729Y-36061552D01*
X5965186Y-36144814D01*
X6048448Y-36246271D01*
X6077778Y-36282009D01*
X6161443Y-36438534D01*
X6212963Y-36608373D01*
X6230359Y-36785000D01*
X6212963Y-36961627D01*
X6161443Y-37131466D01*
X6077778Y-37287991D01*
X6048448Y-37323729D01*
X5965186Y-37425186D01*
X5863729Y-37508448D01*
X5827991Y-37537778D01*
X5671466Y-37621443D01*
X5501627Y-37672963D01*
X5435443Y-37679481D01*
X5369260Y-37686000D01*
X5280740Y-37686000D01*
X5214557Y-37679481D01*
X5148373Y-37672963D01*
X4978534Y-37621443D01*
X4822009Y-37537778D01*
X4786271Y-37508448D01*
X4684814Y-37425186D01*
X4601552Y-37323729D01*
X4572222Y-37287991D01*
X4488557Y-37131466D01*
X4437037Y-36961627D01*
X4419641Y-36785000D01*
X4437037Y-36608373D01*
X4488557Y-36438534D01*
X4572222Y-36282009D01*
X4601552Y-36246271D01*
X4684814Y-36144814D01*
X4786271Y-36061552D01*
X4822009Y-36032222D01*
X4900271Y-35990390D01*
X4978532Y-35948558D01*
X4978534Y-35948557D01*
X5148373Y-35897037D01*
X5214557Y-35890519D01*
X5280740Y-35884000D01*
X5369260Y-35884000D01*
X5435443Y-35890519D01*
X5435443Y-35890519D01*
G37*
G36*
X97710915Y-34052934D02*
G01*
X97743424Y-34062795D01*
X97773382Y-34078809D01*
X97799641Y-34100359D01*
X97821191Y-34126618D01*
X97837205Y-34156576D01*
X97847066Y-34189085D01*
X97851000Y-34229029D01*
X97851000Y-35770971D01*
X97847066Y-35810915D01*
X97837205Y-35843424D01*
X97821191Y-35873382D01*
X97799641Y-35899641D01*
X97773382Y-35921191D01*
X97743424Y-35937205D01*
X97710915Y-35947066D01*
X97670971Y-35951000D01*
X94329029Y-35951000D01*
X94289085Y-35947066D01*
X94256576Y-35937205D01*
X94226618Y-35921191D01*
X94200359Y-35899641D01*
X94178809Y-35873382D01*
X94162795Y-35843424D01*
X94152934Y-35810915D01*
X94149000Y-35770971D01*
X94149000Y-34229029D01*
X94152934Y-34189085D01*
X94162795Y-34156576D01*
X94178809Y-34126618D01*
X94200359Y-34100359D01*
X94226618Y-34078809D01*
X94256576Y-34062795D01*
X94289085Y-34052934D01*
X94329029Y-34049000D01*
X97670971Y-34049000D01*
X97710915Y-34052934D01*
X97710915Y-34052934D01*
G37*
G36*
X5435442Y-33350518D02*
G01*
X5501627Y-33357037D01*
X5671466Y-33408557D01*
X5827991Y-33492222D01*
X5863729Y-33521552D01*
X5965186Y-33604814D01*
X6048448Y-33706271D01*
X6077778Y-33742009D01*
X6161443Y-33898534D01*
X6212963Y-34068373D01*
X6230359Y-34245000D01*
X6212963Y-34421627D01*
X6161443Y-34591466D01*
X6077778Y-34747991D01*
X6048448Y-34783729D01*
X5965186Y-34885186D01*
X5863729Y-34968448D01*
X5827991Y-34997778D01*
X5671466Y-35081443D01*
X5501627Y-35132963D01*
X5435443Y-35139481D01*
X5369260Y-35146000D01*
X5280740Y-35146000D01*
X5214557Y-35139481D01*
X5148373Y-35132963D01*
X4978534Y-35081443D01*
X4822009Y-34997778D01*
X4786271Y-34968448D01*
X4684814Y-34885186D01*
X4601552Y-34783729D01*
X4572222Y-34747991D01*
X4488557Y-34591466D01*
X4437037Y-34421627D01*
X4419641Y-34245000D01*
X4437037Y-34068373D01*
X4488557Y-33898534D01*
X4572222Y-33742009D01*
X4601552Y-33706271D01*
X4684814Y-33604814D01*
X4786271Y-33521552D01*
X4822009Y-33492222D01*
X4978534Y-33408557D01*
X5148373Y-33357037D01*
X5214558Y-33350518D01*
X5280740Y-33344000D01*
X5369260Y-33344000D01*
X5435442Y-33350518D01*
X5435442Y-33350518D01*
G37*
G36*
X5435443Y-30810519D02*
G01*
X5501627Y-30817037D01*
X5671466Y-30868557D01*
X5827991Y-30952222D01*
X5863729Y-30981552D01*
X5965186Y-31064814D01*
X6048448Y-31166271D01*
X6077778Y-31202009D01*
X6161443Y-31358534D01*
X6212963Y-31528373D01*
X6230359Y-31705000D01*
X6212963Y-31881627D01*
X6161443Y-32051466D01*
X6077778Y-32207991D01*
X6048448Y-32243729D01*
X5965186Y-32345186D01*
X5863729Y-32428448D01*
X5827991Y-32457778D01*
X5671466Y-32541443D01*
X5501627Y-32592963D01*
X5435442Y-32599482D01*
X5369260Y-32606000D01*
X5280740Y-32606000D01*
X5214558Y-32599482D01*
X5148373Y-32592963D01*
X4978534Y-32541443D01*
X4822009Y-32457778D01*
X4786271Y-32428448D01*
X4684814Y-32345186D01*
X4601552Y-32243729D01*
X4572222Y-32207991D01*
X4488557Y-32051466D01*
X4437037Y-31881627D01*
X4419641Y-31705000D01*
X4437037Y-31528373D01*
X4488557Y-31358534D01*
X4572222Y-31202009D01*
X4601552Y-31166271D01*
X4684814Y-31064814D01*
X4786271Y-30981552D01*
X4822009Y-30952222D01*
X4978534Y-30868557D01*
X5148373Y-30817037D01*
X5214557Y-30810519D01*
X5280740Y-30804000D01*
X5369260Y-30804000D01*
X5435443Y-30810519D01*
X5435443Y-30810519D01*
G37*
G36*
X97086425Y-25872760D02*
G01*
X97086428Y-25872761D01*
X97086429Y-25872761D01*
X97265693Y-25927140D01*
X97265696Y-25927142D01*
X97265697Y-25927142D01*
X97430903Y-26015446D01*
X97575712Y-26134288D01*
X97694554Y-26279097D01*
X97782858Y-26444303D01*
X97782860Y-26444307D01*
X97837239Y-26623571D01*
X97837240Y-26623575D01*
X97855601Y-26810000D01*
X97837240Y-26996425D01*
X97837239Y-26996428D01*
X97837239Y-26996429D01*
X97782860Y-27175693D01*
X97782858Y-27175696D01*
X97782858Y-27175697D01*
X97694554Y-27340903D01*
X97575712Y-27485712D01*
X97430903Y-27604554D01*
X97265697Y-27692858D01*
X97265693Y-27692860D01*
X97086429Y-27747239D01*
X97086428Y-27747239D01*
X97086425Y-27747240D01*
X96946718Y-27761000D01*
X95053282Y-27761000D01*
X94913575Y-27747240D01*
X94913572Y-27747239D01*
X94913571Y-27747239D01*
X94734307Y-27692860D01*
X94734303Y-27692858D01*
X94569097Y-27604554D01*
X94424288Y-27485712D01*
X94305446Y-27340903D01*
X94217142Y-27175697D01*
X94217142Y-27175696D01*
X94217140Y-27175693D01*
X94162761Y-26996429D01*
X94162761Y-26996428D01*
X94162760Y-26996425D01*
X94144399Y-26810000D01*
X94162760Y-26623575D01*
X94162761Y-26623571D01*
X94217140Y-26444307D01*
X94217142Y-26444303D01*
X94305446Y-26279097D01*
X94424288Y-26134288D01*
X94569097Y-26015446D01*
X94734303Y-25927142D01*
X94734304Y-25927142D01*
X94734307Y-25927140D01*
X94913571Y-25872761D01*
X94913572Y-25872761D01*
X94913575Y-25872760D01*
X95053282Y-25859000D01*
X96946718Y-25859000D01*
X97086425Y-25872760D01*
X97086425Y-25872760D01*
G37*
G36*
X97710915Y-22052934D02*
G01*
X97743424Y-22062795D01*
X97773382Y-22078809D01*
X97799641Y-22100359D01*
X97821191Y-22126618D01*
X97837205Y-22156576D01*
X97847066Y-22189085D01*
X97851000Y-22229029D01*
X97851000Y-23770971D01*
X97847066Y-23810915D01*
X97837205Y-23843424D01*
X97821191Y-23873382D01*
X97799641Y-23899641D01*
X97773382Y-23921191D01*
X97743424Y-23937205D01*
X97710915Y-23947066D01*
X97670971Y-23951000D01*
X94329029Y-23951000D01*
X94289085Y-23947066D01*
X94256576Y-23937205D01*
X94226618Y-23921191D01*
X94200359Y-23899641D01*
X94178809Y-23873382D01*
X94162795Y-23843424D01*
X94152934Y-23810915D01*
X94149000Y-23770971D01*
X94149000Y-22229029D01*
X94152934Y-22189085D01*
X94162795Y-22156576D01*
X94178809Y-22126618D01*
X94200359Y-22100359D01*
X94226618Y-22078809D01*
X94256576Y-22062795D01*
X94289085Y-22052934D01*
X94329029Y-22049000D01*
X97670971Y-22049000D01*
X97710915Y-22052934D01*
X97710915Y-22052934D01*
G37*
G36*
X97845548Y-9373934D02*
G01*
X98348282Y-9473934D01*
X98939926Y-9719001D01*
X99340073Y-9986371D01*
X99472391Y-10074783D01*
X99925217Y-10527609D01*
X99973367Y-10599671D01*
X100280999Y-11060074D01*
X100484645Y-11551719D01*
X100526066Y-11651719D01*
X100651000Y-12279803D01*
X100651000Y-12920197D01*
X100588533Y-13234239D01*
X100526066Y-13548282D01*
X100280999Y-14139926D01*
X100086574Y-14430903D01*
X99926166Y-14670971D01*
X99925216Y-14672392D01*
X99472392Y-15125216D01*
X98939926Y-15480999D01*
X98348282Y-15726066D01*
X98222930Y-15751000D01*
X97720197Y-15851000D01*
X97079803Y-15851000D01*
X96577070Y-15751000D01*
X96451718Y-15726066D01*
X95860074Y-15480999D01*
X95327608Y-15125216D01*
X94874784Y-14672392D01*
X94873835Y-14670971D01*
X94713426Y-14430903D01*
X94519001Y-14139926D01*
X94273934Y-13548282D01*
X94211467Y-13234239D01*
X94149000Y-12920197D01*
X94149000Y-12279803D01*
X94273934Y-11651719D01*
X94315355Y-11551719D01*
X94519001Y-11060074D01*
X94826633Y-10599671D01*
X94874783Y-10527609D01*
X95327609Y-10074783D01*
X95459927Y-9986371D01*
X95860074Y-9719001D01*
X96451718Y-9473934D01*
X96954452Y-9373934D01*
X97079803Y-9349000D01*
X97720197Y-9349000D01*
X97845548Y-9373934D01*
X97845548Y-9373934D01*
G37*
G36*
X5134239Y-9311467D02*
G01*
X5448282Y-9373934D01*
X6039926Y-9619001D01*
X6572392Y-9974784D01*
X7025216Y-10427608D01*
X7380999Y-10960074D01*
X7626066Y-11551718D01*
X7626066Y-11551719D01*
X7751000Y-12179803D01*
X7751000Y-12820197D01*
X7715300Y-12999671D01*
X7626066Y-13448282D01*
X7380999Y-14039926D01*
X7119756Y-14430903D01*
X7025217Y-14572391D01*
X6572391Y-15025217D01*
X6466477Y-15095986D01*
X6039926Y-15380999D01*
X5448282Y-15626066D01*
X5134239Y-15688533D01*
X4820197Y-15751000D01*
X4179803Y-15751000D01*
X3865761Y-15688533D01*
X3551718Y-15626066D01*
X2960074Y-15380999D01*
X2533523Y-15095986D01*
X2427609Y-15025217D01*
X1974783Y-14572391D01*
X1880244Y-14430903D01*
X1619001Y-14039926D01*
X1373934Y-13448282D01*
X1284700Y-12999671D01*
X1249000Y-12820197D01*
X1249000Y-12179803D01*
X1373934Y-11551719D01*
X1373934Y-11551718D01*
X1619001Y-10960074D01*
X1974784Y-10427608D01*
X2427608Y-9974784D01*
X2960074Y-9619001D01*
X3551718Y-9373934D01*
X3865761Y-9311467D01*
X4179803Y-9249000D01*
X4820197Y-9249000D01*
X5134239Y-9311467D01*
X5134239Y-9311467D01*
G37*
G36*
X16996424Y-11162760D02*
G01*
X16996427Y-11162761D01*
X16996428Y-11162761D01*
X17175692Y-11217140D01*
X17175695Y-11217142D01*
X17175696Y-11217142D01*
X17340903Y-11305446D01*
X17485712Y-11424288D01*
X17604554Y-11569097D01*
X17648716Y-11651719D01*
X17692860Y-11734307D01*
X17692860Y-11734308D01*
X17747240Y-11913575D01*
X17761000Y-12053282D01*
X17761000Y-13946718D01*
X17747240Y-14086425D01*
X17747239Y-14086428D01*
X17747239Y-14086429D01*
X17692860Y-14265693D01*
X17692858Y-14265696D01*
X17692858Y-14265697D01*
X17604554Y-14430903D01*
X17485712Y-14575712D01*
X17340903Y-14694554D01*
X17202656Y-14768448D01*
X17175693Y-14782860D01*
X16996429Y-14837239D01*
X16996428Y-14837239D01*
X16996425Y-14837240D01*
X16810000Y-14855601D01*
X16623576Y-14837240D01*
X16623573Y-14837239D01*
X16623572Y-14837239D01*
X16444308Y-14782860D01*
X16417345Y-14768448D01*
X16279098Y-14694554D01*
X16134289Y-14575712D01*
X16015447Y-14430903D01*
X15927143Y-14265697D01*
X15927143Y-14265696D01*
X15927141Y-14265693D01*
X15872762Y-14086429D01*
X15872762Y-14086428D01*
X15872761Y-14086425D01*
X15859000Y-13946717D01*
X15859000Y-12053283D01*
X15872760Y-11913576D01*
X15872761Y-11913572D01*
X15927140Y-11734308D01*
X15927143Y-11734303D01*
X16015446Y-11569097D01*
X16134288Y-11424288D01*
X16279097Y-11305446D01*
X16444303Y-11217142D01*
X16444304Y-11217142D01*
X16444307Y-11217140D01*
X16623571Y-11162761D01*
X16623572Y-11162761D01*
X16623575Y-11162760D01*
X16810000Y-11144399D01*
X16996424Y-11162760D01*
X16996424Y-11162760D01*
G37*
G36*
X32236424Y-11162760D02*
G01*
X32236427Y-11162761D01*
X32236428Y-11162761D01*
X32415692Y-11217140D01*
X32415695Y-11217142D01*
X32415696Y-11217142D01*
X32580903Y-11305446D01*
X32725712Y-11424288D01*
X32844554Y-11569097D01*
X32888716Y-11651719D01*
X32932860Y-11734307D01*
X32932860Y-11734308D01*
X32987240Y-11913575D01*
X33001000Y-12053282D01*
X33001000Y-13946718D01*
X32987240Y-14086425D01*
X32987239Y-14086428D01*
X32987239Y-14086429D01*
X32932860Y-14265693D01*
X32932858Y-14265696D01*
X32932858Y-14265697D01*
X32844554Y-14430903D01*
X32725712Y-14575712D01*
X32580903Y-14694554D01*
X32442656Y-14768448D01*
X32415693Y-14782860D01*
X32236429Y-14837239D01*
X32236428Y-14837239D01*
X32236425Y-14837240D01*
X32050000Y-14855601D01*
X31863576Y-14837240D01*
X31863573Y-14837239D01*
X31863572Y-14837239D01*
X31684308Y-14782860D01*
X31657345Y-14768448D01*
X31519098Y-14694554D01*
X31374289Y-14575712D01*
X31255447Y-14430903D01*
X31167143Y-14265697D01*
X31167143Y-14265696D01*
X31167141Y-14265693D01*
X31112762Y-14086429D01*
X31112762Y-14086428D01*
X31112761Y-14086425D01*
X31099000Y-13946717D01*
X31099000Y-12053283D01*
X31112760Y-11913576D01*
X31112761Y-11913572D01*
X31167140Y-11734308D01*
X31167143Y-11734303D01*
X31255446Y-11569097D01*
X31374288Y-11424288D01*
X31519097Y-11305446D01*
X31684303Y-11217142D01*
X31684304Y-11217142D01*
X31684307Y-11217140D01*
X31863571Y-11162761D01*
X31863572Y-11162761D01*
X31863575Y-11162760D01*
X32050000Y-11144399D01*
X32236424Y-11162760D01*
X32236424Y-11162760D01*
G37*
G36*
X20806424Y-11162760D02*
G01*
X20806427Y-11162761D01*
X20806428Y-11162761D01*
X20985692Y-11217140D01*
X20985695Y-11217142D01*
X20985696Y-11217142D01*
X21150903Y-11305446D01*
X21295712Y-11424288D01*
X21414554Y-11569097D01*
X21458716Y-11651719D01*
X21502860Y-11734307D01*
X21502860Y-11734308D01*
X21557240Y-11913575D01*
X21571000Y-12053282D01*
X21571000Y-13946718D01*
X21557240Y-14086425D01*
X21557239Y-14086428D01*
X21557239Y-14086429D01*
X21502860Y-14265693D01*
X21502858Y-14265696D01*
X21502858Y-14265697D01*
X21414554Y-14430903D01*
X21295712Y-14575712D01*
X21150903Y-14694554D01*
X21012656Y-14768448D01*
X20985693Y-14782860D01*
X20806429Y-14837239D01*
X20806428Y-14837239D01*
X20806425Y-14837240D01*
X20620000Y-14855601D01*
X20433576Y-14837240D01*
X20433573Y-14837239D01*
X20433572Y-14837239D01*
X20254308Y-14782860D01*
X20227345Y-14768448D01*
X20089098Y-14694554D01*
X19944289Y-14575712D01*
X19825447Y-14430903D01*
X19737143Y-14265697D01*
X19737143Y-14265696D01*
X19737141Y-14265693D01*
X19682762Y-14086429D01*
X19682762Y-14086428D01*
X19682761Y-14086425D01*
X19669000Y-13946717D01*
X19669000Y-12053283D01*
X19682760Y-11913576D01*
X19682761Y-11913572D01*
X19737140Y-11734308D01*
X19737143Y-11734303D01*
X19825446Y-11569097D01*
X19944288Y-11424288D01*
X20089097Y-11305446D01*
X20254303Y-11217142D01*
X20254304Y-11217142D01*
X20254307Y-11217140D01*
X20433571Y-11162761D01*
X20433572Y-11162761D01*
X20433575Y-11162760D01*
X20620000Y-11144399D01*
X20806424Y-11162760D01*
X20806424Y-11162760D01*
G37*
G36*
X39856424Y-11162760D02*
G01*
X39856427Y-11162761D01*
X39856428Y-11162761D01*
X40035692Y-11217140D01*
X40035695Y-11217142D01*
X40035696Y-11217142D01*
X40200903Y-11305446D01*
X40345712Y-11424288D01*
X40464554Y-11569097D01*
X40508716Y-11651719D01*
X40552860Y-11734307D01*
X40552860Y-11734308D01*
X40607240Y-11913575D01*
X40621000Y-12053282D01*
X40621000Y-13946718D01*
X40607240Y-14086425D01*
X40607239Y-14086428D01*
X40607239Y-14086429D01*
X40552860Y-14265693D01*
X40552858Y-14265696D01*
X40552858Y-14265697D01*
X40464554Y-14430903D01*
X40345712Y-14575712D01*
X40200903Y-14694554D01*
X40062656Y-14768448D01*
X40035693Y-14782860D01*
X39856429Y-14837239D01*
X39856428Y-14837239D01*
X39856425Y-14837240D01*
X39670000Y-14855601D01*
X39483576Y-14837240D01*
X39483573Y-14837239D01*
X39483572Y-14837239D01*
X39304308Y-14782860D01*
X39277345Y-14768448D01*
X39139098Y-14694554D01*
X38994289Y-14575712D01*
X38875447Y-14430903D01*
X38787143Y-14265697D01*
X38787143Y-14265696D01*
X38787141Y-14265693D01*
X38732762Y-14086429D01*
X38732762Y-14086428D01*
X38732761Y-14086425D01*
X38719000Y-13946717D01*
X38719000Y-12053283D01*
X38732760Y-11913576D01*
X38732761Y-11913572D01*
X38787140Y-11734308D01*
X38787143Y-11734303D01*
X38875446Y-11569097D01*
X38994288Y-11424288D01*
X39139097Y-11305446D01*
X39304303Y-11217142D01*
X39304304Y-11217142D01*
X39304307Y-11217140D01*
X39483571Y-11162761D01*
X39483572Y-11162761D01*
X39483575Y-11162760D01*
X39670000Y-11144399D01*
X39856424Y-11162760D01*
X39856424Y-11162760D01*
G37*
G36*
X43666424Y-11162760D02*
G01*
X43666427Y-11162761D01*
X43666428Y-11162761D01*
X43845692Y-11217140D01*
X43845695Y-11217142D01*
X43845696Y-11217142D01*
X44010903Y-11305446D01*
X44155712Y-11424288D01*
X44274554Y-11569097D01*
X44318716Y-11651719D01*
X44362860Y-11734307D01*
X44362860Y-11734308D01*
X44417240Y-11913575D01*
X44431000Y-12053282D01*
X44431000Y-13946718D01*
X44417240Y-14086425D01*
X44417239Y-14086428D01*
X44417239Y-14086429D01*
X44362860Y-14265693D01*
X44362858Y-14265696D01*
X44362858Y-14265697D01*
X44274554Y-14430903D01*
X44155712Y-14575712D01*
X44010903Y-14694554D01*
X43872656Y-14768448D01*
X43845693Y-14782860D01*
X43666429Y-14837239D01*
X43666428Y-14837239D01*
X43666425Y-14837240D01*
X43480000Y-14855601D01*
X43293576Y-14837240D01*
X43293573Y-14837239D01*
X43293572Y-14837239D01*
X43114308Y-14782860D01*
X43087345Y-14768448D01*
X42949098Y-14694554D01*
X42804289Y-14575712D01*
X42685447Y-14430903D01*
X42597143Y-14265697D01*
X42597143Y-14265696D01*
X42597141Y-14265693D01*
X42542762Y-14086429D01*
X42542762Y-14086428D01*
X42542761Y-14086425D01*
X42529000Y-13946717D01*
X42529000Y-12053283D01*
X42542760Y-11913576D01*
X42542761Y-11913572D01*
X42597140Y-11734308D01*
X42597143Y-11734303D01*
X42685446Y-11569097D01*
X42804288Y-11424288D01*
X42949097Y-11305446D01*
X43114303Y-11217142D01*
X43114304Y-11217142D01*
X43114307Y-11217140D01*
X43293571Y-11162761D01*
X43293572Y-11162761D01*
X43293575Y-11162760D01*
X43480000Y-11144399D01*
X43666424Y-11162760D01*
X43666424Y-11162760D01*
G37*
G36*
X64996424Y-11162760D02*
G01*
X64996427Y-11162761D01*
X64996428Y-11162761D01*
X65175692Y-11217140D01*
X65175695Y-11217142D01*
X65175696Y-11217142D01*
X65340903Y-11305446D01*
X65485712Y-11424288D01*
X65604554Y-11569097D01*
X65648716Y-11651719D01*
X65692860Y-11734307D01*
X65692860Y-11734308D01*
X65747240Y-11913575D01*
X65761000Y-12053282D01*
X65761000Y-13946718D01*
X65747240Y-14086425D01*
X65747239Y-14086428D01*
X65747239Y-14086429D01*
X65692860Y-14265693D01*
X65692858Y-14265696D01*
X65692858Y-14265697D01*
X65604554Y-14430903D01*
X65485712Y-14575712D01*
X65340903Y-14694554D01*
X65202656Y-14768448D01*
X65175693Y-14782860D01*
X64996429Y-14837239D01*
X64996428Y-14837239D01*
X64996425Y-14837240D01*
X64810000Y-14855601D01*
X64623576Y-14837240D01*
X64623573Y-14837239D01*
X64623572Y-14837239D01*
X64444308Y-14782860D01*
X64417345Y-14768448D01*
X64279098Y-14694554D01*
X64134289Y-14575712D01*
X64015447Y-14430903D01*
X63927143Y-14265697D01*
X63927143Y-14265696D01*
X63927141Y-14265693D01*
X63872762Y-14086429D01*
X63872762Y-14086428D01*
X63872761Y-14086425D01*
X63859000Y-13946717D01*
X63859000Y-12053283D01*
X63872760Y-11913576D01*
X63872761Y-11913572D01*
X63927140Y-11734308D01*
X63927143Y-11734303D01*
X64015446Y-11569097D01*
X64134288Y-11424288D01*
X64279097Y-11305446D01*
X64444303Y-11217142D01*
X64444304Y-11217142D01*
X64444307Y-11217140D01*
X64623571Y-11162761D01*
X64623572Y-11162761D01*
X64623575Y-11162760D01*
X64810000Y-11144399D01*
X64996424Y-11162760D01*
X64996424Y-11162760D01*
G37*
G36*
X68806424Y-11162760D02*
G01*
X68806427Y-11162761D01*
X68806428Y-11162761D01*
X68985692Y-11217140D01*
X68985695Y-11217142D01*
X68985696Y-11217142D01*
X69150903Y-11305446D01*
X69295712Y-11424288D01*
X69414554Y-11569097D01*
X69458716Y-11651719D01*
X69502860Y-11734307D01*
X69502860Y-11734308D01*
X69557240Y-11913575D01*
X69571000Y-12053282D01*
X69571000Y-13946718D01*
X69557240Y-14086425D01*
X69557239Y-14086428D01*
X69557239Y-14086429D01*
X69502860Y-14265693D01*
X69502858Y-14265696D01*
X69502858Y-14265697D01*
X69414554Y-14430903D01*
X69295712Y-14575712D01*
X69150903Y-14694554D01*
X69012656Y-14768448D01*
X68985693Y-14782860D01*
X68806429Y-14837239D01*
X68806428Y-14837239D01*
X68806425Y-14837240D01*
X68620000Y-14855601D01*
X68433576Y-14837240D01*
X68433573Y-14837239D01*
X68433572Y-14837239D01*
X68254308Y-14782860D01*
X68227345Y-14768448D01*
X68089098Y-14694554D01*
X67944289Y-14575712D01*
X67825447Y-14430903D01*
X67737143Y-14265697D01*
X67737143Y-14265696D01*
X67737141Y-14265693D01*
X67682762Y-14086429D01*
X67682762Y-14086428D01*
X67682761Y-14086425D01*
X67669000Y-13946717D01*
X67669000Y-12053283D01*
X67682760Y-11913576D01*
X67682761Y-11913572D01*
X67737140Y-11734308D01*
X67737143Y-11734303D01*
X67825446Y-11569097D01*
X67944288Y-11424288D01*
X68089097Y-11305446D01*
X68254303Y-11217142D01*
X68254304Y-11217142D01*
X68254307Y-11217140D01*
X68433571Y-11162761D01*
X68433572Y-11162761D01*
X68433575Y-11162760D01*
X68620000Y-11144399D01*
X68806424Y-11162760D01*
X68806424Y-11162760D01*
G37*
G36*
X72616424Y-11162760D02*
G01*
X72616427Y-11162761D01*
X72616428Y-11162761D01*
X72795692Y-11217140D01*
X72795695Y-11217142D01*
X72795696Y-11217142D01*
X72960903Y-11305446D01*
X73105712Y-11424288D01*
X73224554Y-11569097D01*
X73268716Y-11651719D01*
X73312860Y-11734307D01*
X73312860Y-11734308D01*
X73367240Y-11913575D01*
X73381000Y-12053282D01*
X73381000Y-13946718D01*
X73367240Y-14086425D01*
X73367239Y-14086428D01*
X73367239Y-14086429D01*
X73312860Y-14265693D01*
X73312858Y-14265696D01*
X73312858Y-14265697D01*
X73224554Y-14430903D01*
X73105712Y-14575712D01*
X72960903Y-14694554D01*
X72822656Y-14768448D01*
X72795693Y-14782860D01*
X72616429Y-14837239D01*
X72616428Y-14837239D01*
X72616425Y-14837240D01*
X72430000Y-14855601D01*
X72243576Y-14837240D01*
X72243573Y-14837239D01*
X72243572Y-14837239D01*
X72064308Y-14782860D01*
X72037345Y-14768448D01*
X71899098Y-14694554D01*
X71754289Y-14575712D01*
X71635447Y-14430903D01*
X71547143Y-14265697D01*
X71547143Y-14265696D01*
X71547141Y-14265693D01*
X71492762Y-14086429D01*
X71492762Y-14086428D01*
X71492761Y-14086425D01*
X71479000Y-13946717D01*
X71479000Y-12053283D01*
X71492760Y-11913576D01*
X71492761Y-11913572D01*
X71547140Y-11734308D01*
X71547143Y-11734303D01*
X71635446Y-11569097D01*
X71754288Y-11424288D01*
X71899097Y-11305446D01*
X72064303Y-11217142D01*
X72064304Y-11217142D01*
X72064307Y-11217140D01*
X72243571Y-11162761D01*
X72243572Y-11162761D01*
X72243575Y-11162760D01*
X72430000Y-11144399D01*
X72616424Y-11162760D01*
X72616424Y-11162760D01*
G37*
G36*
X76426424Y-11162760D02*
G01*
X76426427Y-11162761D01*
X76426428Y-11162761D01*
X76605692Y-11217140D01*
X76605695Y-11217142D01*
X76605696Y-11217142D01*
X76770903Y-11305446D01*
X76915712Y-11424288D01*
X77034554Y-11569097D01*
X77078716Y-11651719D01*
X77122860Y-11734307D01*
X77122860Y-11734308D01*
X77177240Y-11913575D01*
X77191000Y-12053282D01*
X77191000Y-13946718D01*
X77177240Y-14086425D01*
X77177239Y-14086428D01*
X77177239Y-14086429D01*
X77122860Y-14265693D01*
X77122858Y-14265696D01*
X77122858Y-14265697D01*
X77034554Y-14430903D01*
X76915712Y-14575712D01*
X76770903Y-14694554D01*
X76632656Y-14768448D01*
X76605693Y-14782860D01*
X76426429Y-14837239D01*
X76426428Y-14837239D01*
X76426425Y-14837240D01*
X76240000Y-14855601D01*
X76053576Y-14837240D01*
X76053573Y-14837239D01*
X76053572Y-14837239D01*
X75874308Y-14782860D01*
X75847345Y-14768448D01*
X75709098Y-14694554D01*
X75564289Y-14575712D01*
X75445447Y-14430903D01*
X75357143Y-14265697D01*
X75357143Y-14265696D01*
X75357141Y-14265693D01*
X75302762Y-14086429D01*
X75302762Y-14086428D01*
X75302761Y-14086425D01*
X75289000Y-13946717D01*
X75289000Y-12053283D01*
X75302760Y-11913576D01*
X75302761Y-11913572D01*
X75357140Y-11734308D01*
X75357143Y-11734303D01*
X75445446Y-11569097D01*
X75564288Y-11424288D01*
X75709097Y-11305446D01*
X75874303Y-11217142D01*
X75874304Y-11217142D01*
X75874307Y-11217140D01*
X76053571Y-11162761D01*
X76053572Y-11162761D01*
X76053575Y-11162760D01*
X76240000Y-11144399D01*
X76426424Y-11162760D01*
X76426424Y-11162760D01*
G37*
G36*
X80236424Y-11162760D02*
G01*
X80236427Y-11162761D01*
X80236428Y-11162761D01*
X80415692Y-11217140D01*
X80415695Y-11217142D01*
X80415696Y-11217142D01*
X80580903Y-11305446D01*
X80725712Y-11424288D01*
X80844554Y-11569097D01*
X80888716Y-11651719D01*
X80932860Y-11734307D01*
X80932860Y-11734308D01*
X80987240Y-11913575D01*
X81001000Y-12053282D01*
X81001000Y-13946718D01*
X80987240Y-14086425D01*
X80987239Y-14086428D01*
X80987239Y-14086429D01*
X80932860Y-14265693D01*
X80932858Y-14265696D01*
X80932858Y-14265697D01*
X80844554Y-14430903D01*
X80725712Y-14575712D01*
X80580903Y-14694554D01*
X80442656Y-14768448D01*
X80415693Y-14782860D01*
X80236429Y-14837239D01*
X80236428Y-14837239D01*
X80236425Y-14837240D01*
X80050000Y-14855601D01*
X79863576Y-14837240D01*
X79863573Y-14837239D01*
X79863572Y-14837239D01*
X79684308Y-14782860D01*
X79657345Y-14768448D01*
X79519098Y-14694554D01*
X79374289Y-14575712D01*
X79255447Y-14430903D01*
X79167143Y-14265697D01*
X79167143Y-14265696D01*
X79167141Y-14265693D01*
X79112762Y-14086429D01*
X79112762Y-14086428D01*
X79112761Y-14086425D01*
X79099000Y-13946717D01*
X79099000Y-12053283D01*
X79112760Y-11913576D01*
X79112761Y-11913572D01*
X79167140Y-11734308D01*
X79167143Y-11734303D01*
X79255446Y-11569097D01*
X79374288Y-11424288D01*
X79519097Y-11305446D01*
X79684303Y-11217142D01*
X79684304Y-11217142D01*
X79684307Y-11217140D01*
X79863571Y-11162761D01*
X79863572Y-11162761D01*
X79863575Y-11162760D01*
X80050000Y-11144399D01*
X80236424Y-11162760D01*
X80236424Y-11162760D01*
G37*
G36*
X84046424Y-11162760D02*
G01*
X84046427Y-11162761D01*
X84046428Y-11162761D01*
X84225692Y-11217140D01*
X84225695Y-11217142D01*
X84225696Y-11217142D01*
X84390903Y-11305446D01*
X84535712Y-11424288D01*
X84654554Y-11569097D01*
X84698716Y-11651719D01*
X84742860Y-11734307D01*
X84742860Y-11734308D01*
X84797240Y-11913575D01*
X84811000Y-12053282D01*
X84811000Y-13946718D01*
X84797240Y-14086425D01*
X84797239Y-14086428D01*
X84797239Y-14086429D01*
X84742860Y-14265693D01*
X84742858Y-14265696D01*
X84742858Y-14265697D01*
X84654554Y-14430903D01*
X84535712Y-14575712D01*
X84390903Y-14694554D01*
X84252656Y-14768448D01*
X84225693Y-14782860D01*
X84046429Y-14837239D01*
X84046428Y-14837239D01*
X84046425Y-14837240D01*
X83860000Y-14855601D01*
X83673576Y-14837240D01*
X83673573Y-14837239D01*
X83673572Y-14837239D01*
X83494308Y-14782860D01*
X83467345Y-14768448D01*
X83329098Y-14694554D01*
X83184289Y-14575712D01*
X83065447Y-14430903D01*
X82977143Y-14265697D01*
X82977143Y-14265696D01*
X82977141Y-14265693D01*
X82922762Y-14086429D01*
X82922762Y-14086428D01*
X82922761Y-14086425D01*
X82909000Y-13946717D01*
X82909000Y-12053283D01*
X82922760Y-11913576D01*
X82922761Y-11913572D01*
X82977140Y-11734308D01*
X82977143Y-11734303D01*
X83065446Y-11569097D01*
X83184288Y-11424288D01*
X83329097Y-11305446D01*
X83494303Y-11217142D01*
X83494304Y-11217142D01*
X83494307Y-11217140D01*
X83673571Y-11162761D01*
X83673572Y-11162761D01*
X83673575Y-11162760D01*
X83860000Y-11144399D01*
X84046424Y-11162760D01*
X84046424Y-11162760D01*
G37*
G36*
X87856424Y-11162760D02*
G01*
X87856427Y-11162761D01*
X87856428Y-11162761D01*
X88035692Y-11217140D01*
X88035695Y-11217142D01*
X88035696Y-11217142D01*
X88200903Y-11305446D01*
X88345712Y-11424288D01*
X88464554Y-11569097D01*
X88508716Y-11651719D01*
X88552860Y-11734307D01*
X88552860Y-11734308D01*
X88607240Y-11913575D01*
X88621000Y-12053282D01*
X88621000Y-13946718D01*
X88607240Y-14086425D01*
X88607239Y-14086428D01*
X88607239Y-14086429D01*
X88552860Y-14265693D01*
X88552858Y-14265696D01*
X88552858Y-14265697D01*
X88464554Y-14430903D01*
X88345712Y-14575712D01*
X88200903Y-14694554D01*
X88062656Y-14768448D01*
X88035693Y-14782860D01*
X87856429Y-14837239D01*
X87856428Y-14837239D01*
X87856425Y-14837240D01*
X87670000Y-14855601D01*
X87483576Y-14837240D01*
X87483573Y-14837239D01*
X87483572Y-14837239D01*
X87304308Y-14782860D01*
X87277345Y-14768448D01*
X87139098Y-14694554D01*
X86994289Y-14575712D01*
X86875447Y-14430903D01*
X86787143Y-14265697D01*
X86787143Y-14265696D01*
X86787141Y-14265693D01*
X86732762Y-14086429D01*
X86732762Y-14086428D01*
X86732761Y-14086425D01*
X86719000Y-13946717D01*
X86719000Y-12053283D01*
X86732760Y-11913576D01*
X86732761Y-11913572D01*
X86787140Y-11734308D01*
X86787143Y-11734303D01*
X86875446Y-11569097D01*
X86994288Y-11424288D01*
X87139097Y-11305446D01*
X87304303Y-11217142D01*
X87304304Y-11217142D01*
X87304307Y-11217140D01*
X87483571Y-11162761D01*
X87483572Y-11162761D01*
X87483575Y-11162760D01*
X87670000Y-11144399D01*
X87856424Y-11162760D01*
X87856424Y-11162760D01*
G37*
G36*
X28426424Y-11162760D02*
G01*
X28426427Y-11162761D01*
X28426428Y-11162761D01*
X28605692Y-11217140D01*
X28605695Y-11217142D01*
X28605696Y-11217142D01*
X28770903Y-11305446D01*
X28915712Y-11424288D01*
X29034554Y-11569097D01*
X29078716Y-11651719D01*
X29122860Y-11734307D01*
X29122860Y-11734308D01*
X29177240Y-11913575D01*
X29191000Y-12053282D01*
X29191000Y-13946718D01*
X29177240Y-14086425D01*
X29177239Y-14086428D01*
X29177239Y-14086429D01*
X29122860Y-14265693D01*
X29122858Y-14265696D01*
X29122858Y-14265697D01*
X29034554Y-14430903D01*
X28915712Y-14575712D01*
X28770903Y-14694554D01*
X28632656Y-14768448D01*
X28605693Y-14782860D01*
X28426429Y-14837239D01*
X28426428Y-14837239D01*
X28426425Y-14837240D01*
X28240000Y-14855601D01*
X28053576Y-14837240D01*
X28053573Y-14837239D01*
X28053572Y-14837239D01*
X27874308Y-14782860D01*
X27847345Y-14768448D01*
X27709098Y-14694554D01*
X27564289Y-14575712D01*
X27445447Y-14430903D01*
X27357143Y-14265697D01*
X27357143Y-14265696D01*
X27357141Y-14265693D01*
X27302762Y-14086429D01*
X27302762Y-14086428D01*
X27302761Y-14086425D01*
X27289000Y-13946717D01*
X27289000Y-12053283D01*
X27302760Y-11913576D01*
X27302761Y-11913572D01*
X27357140Y-11734308D01*
X27357143Y-11734303D01*
X27445446Y-11569097D01*
X27564288Y-11424288D01*
X27709097Y-11305446D01*
X27874303Y-11217142D01*
X27874304Y-11217142D01*
X27874307Y-11217140D01*
X28053571Y-11162761D01*
X28053572Y-11162761D01*
X28053575Y-11162760D01*
X28240000Y-11144399D01*
X28426424Y-11162760D01*
X28426424Y-11162760D01*
G37*
G36*
X24616424Y-11162760D02*
G01*
X24616427Y-11162761D01*
X24616428Y-11162761D01*
X24795692Y-11217140D01*
X24795695Y-11217142D01*
X24795696Y-11217142D01*
X24960903Y-11305446D01*
X25105712Y-11424288D01*
X25224554Y-11569097D01*
X25268716Y-11651719D01*
X25312860Y-11734307D01*
X25312860Y-11734308D01*
X25367240Y-11913575D01*
X25381000Y-12053282D01*
X25381000Y-13946718D01*
X25367240Y-14086425D01*
X25367239Y-14086428D01*
X25367239Y-14086429D01*
X25312860Y-14265693D01*
X25312858Y-14265696D01*
X25312858Y-14265697D01*
X25224554Y-14430903D01*
X25105712Y-14575712D01*
X24960903Y-14694554D01*
X24822656Y-14768448D01*
X24795693Y-14782860D01*
X24616429Y-14837239D01*
X24616428Y-14837239D01*
X24616425Y-14837240D01*
X24430000Y-14855601D01*
X24243576Y-14837240D01*
X24243573Y-14837239D01*
X24243572Y-14837239D01*
X24064308Y-14782860D01*
X24037345Y-14768448D01*
X23899098Y-14694554D01*
X23754289Y-14575712D01*
X23635447Y-14430903D01*
X23547143Y-14265697D01*
X23547143Y-14265696D01*
X23547141Y-14265693D01*
X23492762Y-14086429D01*
X23492762Y-14086428D01*
X23492761Y-14086425D01*
X23479000Y-13946717D01*
X23479000Y-12053283D01*
X23492760Y-11913576D01*
X23492761Y-11913572D01*
X23547140Y-11734308D01*
X23547143Y-11734303D01*
X23635446Y-11569097D01*
X23754288Y-11424288D01*
X23899097Y-11305446D01*
X24064303Y-11217142D01*
X24064304Y-11217142D01*
X24064307Y-11217140D01*
X24243571Y-11162761D01*
X24243572Y-11162761D01*
X24243575Y-11162760D01*
X24430000Y-11144399D01*
X24616424Y-11162760D01*
X24616424Y-11162760D01*
G37*
G36*
X36046424Y-11162760D02*
G01*
X36046427Y-11162761D01*
X36046428Y-11162761D01*
X36225692Y-11217140D01*
X36225695Y-11217142D01*
X36225696Y-11217142D01*
X36390903Y-11305446D01*
X36535712Y-11424288D01*
X36654554Y-11569097D01*
X36698716Y-11651719D01*
X36742860Y-11734307D01*
X36742860Y-11734308D01*
X36797240Y-11913575D01*
X36811000Y-12053282D01*
X36811000Y-13946718D01*
X36797240Y-14086425D01*
X36797239Y-14086428D01*
X36797239Y-14086429D01*
X36742860Y-14265693D01*
X36742858Y-14265696D01*
X36742858Y-14265697D01*
X36654554Y-14430903D01*
X36535712Y-14575712D01*
X36390903Y-14694554D01*
X36252656Y-14768448D01*
X36225693Y-14782860D01*
X36046429Y-14837239D01*
X36046428Y-14837239D01*
X36046425Y-14837240D01*
X35860000Y-14855601D01*
X35673576Y-14837240D01*
X35673573Y-14837239D01*
X35673572Y-14837239D01*
X35494308Y-14782860D01*
X35467345Y-14768448D01*
X35329098Y-14694554D01*
X35184289Y-14575712D01*
X35065447Y-14430903D01*
X34977143Y-14265697D01*
X34977143Y-14265696D01*
X34977141Y-14265693D01*
X34922762Y-14086429D01*
X34922762Y-14086428D01*
X34922761Y-14086425D01*
X34909000Y-13946717D01*
X34909000Y-12053283D01*
X34922760Y-11913576D01*
X34922761Y-11913572D01*
X34977140Y-11734308D01*
X34977143Y-11734303D01*
X35065446Y-11569097D01*
X35184288Y-11424288D01*
X35329097Y-11305446D01*
X35494303Y-11217142D01*
X35494304Y-11217142D01*
X35494307Y-11217140D01*
X35673571Y-11162761D01*
X35673572Y-11162761D01*
X35673575Y-11162760D01*
X35860000Y-11144399D01*
X36046424Y-11162760D01*
X36046424Y-11162760D01*
G37*
G36*
X13810915Y-11152934D02*
G01*
X13843424Y-11162795D01*
X13873382Y-11178809D01*
X13899641Y-11200359D01*
X13921191Y-11226618D01*
X13937205Y-11256576D01*
X13947066Y-11289085D01*
X13951000Y-11329029D01*
X13951000Y-14670971D01*
X13947066Y-14710915D01*
X13937205Y-14743424D01*
X13921191Y-14773382D01*
X13899641Y-14799641D01*
X13873382Y-14821191D01*
X13843424Y-14837205D01*
X13810915Y-14847066D01*
X13770971Y-14851000D01*
X12229029Y-14851000D01*
X12189085Y-14847066D01*
X12156576Y-14837205D01*
X12126618Y-14821191D01*
X12100359Y-14799641D01*
X12078809Y-14773382D01*
X12062795Y-14743424D01*
X12052934Y-14710915D01*
X12049000Y-14670971D01*
X12049000Y-11329029D01*
X12052934Y-11289085D01*
X12062795Y-11256576D01*
X12078809Y-11226618D01*
X12100359Y-11200359D01*
X12126618Y-11178809D01*
X12156576Y-11162795D01*
X12189085Y-11152934D01*
X12229029Y-11149000D01*
X13770971Y-11149000D01*
X13810915Y-11152934D01*
X13810915Y-11152934D01*
G37*
G36*
X61810915Y-11152934D02*
G01*
X61843424Y-11162795D01*
X61873382Y-11178809D01*
X61899641Y-11200359D01*
X61921191Y-11226618D01*
X61937205Y-11256576D01*
X61947066Y-11289085D01*
X61951000Y-11329029D01*
X61951000Y-14670971D01*
X61947066Y-14710915D01*
X61937205Y-14743424D01*
X61921191Y-14773382D01*
X61899641Y-14799641D01*
X61873382Y-14821191D01*
X61843424Y-14837205D01*
X61810915Y-14847066D01*
X61770971Y-14851000D01*
X60229029Y-14851000D01*
X60189085Y-14847066D01*
X60156576Y-14837205D01*
X60126618Y-14821191D01*
X60100359Y-14799641D01*
X60078809Y-14773382D01*
X60062795Y-14743424D01*
X60052934Y-14710915D01*
X60049000Y-14670971D01*
X60049000Y-11329029D01*
X60052934Y-11289085D01*
X60062795Y-11256576D01*
X60078809Y-11226618D01*
X60100359Y-11200359D01*
X60126618Y-11178809D01*
X60156576Y-11162795D01*
X60189085Y-11152934D01*
X60229029Y-11149000D01*
X61770971Y-11149000D01*
X61810915Y-11152934D01*
X61810915Y-11152934D01*
G37*
M02*
