M48
; DRILL file {KiCad (5.1.4)-1} date 16/03/2020 2:23:43 AM
; FORMAT={-:-/ absolute / inch / decimal}
; #@! TF.CreationDate,2020-03-16T02:23:43+08:00
; #@! TF.GenerationSoftware,Kicad,Pcbnew,(5.1.4)-1
; #@! TF.FileFunction,Plated,1,2,PTH
FMAT,2
INCH
T1C0.0157
T2C0.0197
T3C0.0315
T4C0.0394
T5C0.0400
T6C0.0472
T7C0.1260
%
G90
G05
T1
X0.2272Y-2.0488
X0.4528Y-1.1417
X0.6004Y-2.1122
X0.6457Y-2.8583
X0.7067Y-2.6024
X0.7323Y-3.7264
X0.7579Y-1.1909
X0.7717Y-2.811
X0.7874Y-2.0669
X0.8504Y-3.4724
X0.9547Y-1.2008
X1.0551Y-2.5827
X1.0571Y-1.2571
X1.061Y-2.4724
X1.1024Y-1.2008
X1.14Y-1.54
X1.2244Y-1.3228
X1.2697Y-1.3189
X1.2953Y-1.1969
X1.3228Y-1.3189
X1.3726Y-1.2856
X1.376Y-2.374
X1.3915Y-2.7047
X1.3986Y-2.563
X1.4075Y-1.0531
X1.5059Y-1.3189
X1.5157Y-1.2008
X1.6201Y-2.1844
X1.6437Y-1.6142
X1.6929Y-1.2008
X1.7126Y-2.5827
X1.7165Y-2.0906
X1.7441Y-1.7047
X1.796Y-2.3693
X1.8031Y-1.5591
X1.8185Y-4.0677
X1.8376Y-2.4892
X1.8898Y-1.1909
X1.8988Y-3.6071
X1.9173Y-1.6575
X1.9528Y-2.4213
X2.0276Y-1.1811
X2.0323Y-2.4748
X2.0803Y-3.5937
X2.0976Y-2.4043
X2.1021Y-2.2758
X2.1063Y-1.3189
X2.1102Y-2.0669
X2.1602Y-2.4004
X2.162Y-2.325
X2.1654Y-3.7697
X2.1654Y-3.8583
X2.22Y-2.525
X2.2224Y-2.6047
X2.2244Y-1.1417
X2.2886Y-1.3248
X2.3346Y-1.6732
X2.345Y-2.105
X2.42Y-2.445
X2.4508Y-3.1594
X2.455Y-2.075
X2.4803Y-1.198
X2.5063Y-2.9622
X2.5118Y-1.7638
X2.5559Y-3.4449
X2.5642Y-3.0925
X2.5921Y-3.6949
X2.5984Y-1.063
X2.611Y-4.0724
X2.6122Y-1.5453
X2.628Y-2.815
X2.6433Y-2.5378
X2.6605Y-2.6447
X2.6719Y-2.5082
X2.6772Y-1.2008
X2.6811Y-1.8622
X2.6909Y-1.315
X2.7067Y-2.2441
X2.7739Y-3.18
X2.7854Y-2.3612
X2.8051Y-1.0335
X2.874Y-1.2008
X3.0118Y-1.2008
X3.0118Y-2.372
X3.0866Y-2.1535
X3.09Y-1.51
X3.0953Y-3.15
X3.1131Y-2.9069
X3.1638Y-2.8799
X3.2087Y-1.2106
X3.385Y-2.12
X3.39Y-2.625
X3.4154Y-1.4469
X3.4646Y-1.2106
X3.7102Y-3.0665
X3.8504Y-3.5
X3.8505Y-2.4694
T2
X0.0827Y-4.1535
X0.1104Y-4.0867
X0.1104Y-4.2204
X0.1772Y-4.0591
X0.1772Y-4.248
X0.244Y-4.0867
X0.244Y-4.2204
X0.2717Y-4.1535
X0.0827Y-0.4921
X0.1104Y-0.4253
X0.1104Y-0.5589
X0.1772Y-0.3976
X0.1772Y-0.5866
X0.244Y-0.4253
X0.244Y-0.5589
X0.2717Y-0.4921
X3.7402Y-0.4961
X3.7678Y-0.4292
X3.7678Y-0.5629
X3.8346Y-0.4016
X3.8346Y-0.5906
X3.9015Y-0.4292
X3.9015Y-0.5629
X3.9291Y-0.4961
X3.7441Y-4.1535
X3.7718Y-4.0867
X3.7718Y-4.2204
X3.8386Y-4.0591
X3.8386Y-4.248
X3.9054Y-4.0867
X3.9054Y-4.2204
X3.9331Y-4.1535
T3
X0.1014Y-3.5285
X0.1014Y-3.5876
X0.1014Y-3.6467
X0.1014Y-3.7057
X0.1014Y-3.7648
X0.1014Y-3.8238
X0.1014Y-3.8829
X0.1604Y-3.5285
X0.1604Y-3.5876
X0.1604Y-3.6467
X0.1604Y-3.7057
X0.1604Y-3.7648
X0.1604Y-3.8238
X0.1604Y-3.8829
X0.2195Y-3.5285
X0.2195Y-3.5876
X0.2195Y-3.6467
X0.2195Y-3.7057
X0.2195Y-3.7648
X0.2195Y-3.8238
X0.2195Y-3.8829
X0.2864Y-3.5285
X0.2864Y-3.5876
X0.2864Y-3.6467
X0.2864Y-3.7057
X0.2864Y-3.7648
X0.2864Y-3.8238
X0.2864Y-3.8829
X0.3455Y-3.5285
X0.3455Y-3.5876
X0.3455Y-3.6467
X0.3455Y-3.7057
X0.3455Y-3.7648
X0.3455Y-3.8238
X0.3455Y-3.8829
X0.4045Y-3.5285
X0.4045Y-3.5876
X0.4045Y-3.6467
X0.4045Y-3.7057
X0.4045Y-3.7648
X0.4045Y-3.8238
X0.4045Y-3.8829
X0.9535Y-1.9409
X0.9535Y-2.9409
X1.0535Y-1.9409
X1.0535Y-2.9409
X1.1535Y-1.9409
X1.1535Y-2.9409
X1.2535Y-1.9409
X1.2535Y-2.9409
X1.3535Y-1.9409
X1.3535Y-2.9409
X1.4535Y-1.9409
X1.4535Y-2.9409
X1.5535Y-1.9409
X1.5535Y-2.9409
X1.6535Y-1.9409
X1.6535Y-2.9409
X1.7535Y-1.9409
X1.7535Y-2.9409
X1.8535Y-1.9409
X1.8535Y-2.9409
X1.9535Y-1.9409
X1.9535Y-2.9409
X2.0535Y-1.9409
X2.0535Y-2.9409
X2.1535Y-1.9409
X2.1535Y-2.9409
X2.2535Y-1.9409
X2.2535Y-2.9409
X2.3535Y-1.9409
X2.3535Y-2.9409
T4
X2.805Y-3.525
X2.905Y-3.525
X0.7303Y-3.2244
X1.0256Y-3.2244
X0.8236Y-1.7331
X0.9236Y-1.7331
X1.0236Y-1.7331
X1.1236Y-1.7331
X3.205Y-3.025
X3.305Y-3.025
X3.205Y-2.525
X3.305Y-2.525
X2.2583Y-3.2594
X2.5535Y-3.2594
X3.205Y-2.275
X3.305Y-2.275
X2.805Y-2.525
X2.905Y-2.525
X3.205Y-3.525
X3.305Y-3.525
X3.205Y-2.775
X3.305Y-2.775
X2.805Y-1.775
X2.905Y-1.775
X2.805Y-3.025
X2.905Y-3.025
X2.805Y-2.275
X2.905Y-2.275
X1.622Y-3.2343
X1.9173Y-3.2343
X0.1969Y-3.1496
X0.4961Y-3.1496
X0.498Y-4.1516
X0.7933Y-4.1516
X2.805Y-3.275
X2.905Y-3.275
X2.805Y-2.775
X2.905Y-2.775
X3.205Y-2.025
X3.305Y-2.025
X3.205Y-3.275
X3.305Y-3.275
X2.805Y-2.025
X2.905Y-2.025
X1.1713Y-3.2264
X1.4665Y-3.2264
X3.205Y-1.775
X3.305Y-1.775
T5
X0.2835Y-2.3504
X0.2835Y-2.4504
X0.2835Y-2.5504
X0.3835Y-2.3504
X0.3835Y-2.4504
X0.3835Y-2.5504
X0.2874Y-1.5906
X0.2874Y-1.6906
X0.2874Y-1.7906
X0.3874Y-1.5906
X0.3874Y-1.6906
X0.3874Y-1.7906
T6
X3.7008Y-1.8799
X3.7008Y-2.0299
X3.7008Y-1.1713
X3.7008Y-1.3213
X0.5118Y-0.5118
X0.6618Y-0.5118
X0.8118Y-0.5118
X0.9618Y-0.5118
X1.1118Y-0.5118
X1.2618Y-0.5118
X1.4118Y-0.5118
X1.5618Y-0.5118
X1.7118Y-0.5118
X2.8079Y-3.9469
X2.9579Y-3.9469
X3.1079Y-3.9469
X3.2579Y-3.9469
X2.4016Y-0.5118
X2.5516Y-0.5118
X2.7016Y-0.5118
X2.8516Y-0.5118
X3.0016Y-0.5118
X3.1516Y-0.5118
X3.3016Y-0.5118
X3.4516Y-0.5118
T7
X0.1772Y-4.1535
X0.1772Y-0.4921
X3.8346Y-0.4961
X3.8386Y-4.1535
T4
G00X1.0866Y-3.8898
M15
G01X1.1654Y-3.8898
M16
G05
G00X1.0866Y-4.126
M15
G01X1.1654Y-4.126
M16
G05
G00X1.311Y-4.0472
M15
G01X1.311Y-3.9685
M16
G05
T0
M30
