M48
; DRILL file {KiCad (5.1.4)-1} date 28/02/2020 4:58:05 PM
; FORMAT={-:-/ absolute / inch / decimal}
; #@! TF.CreationDate,2020-02-28T16:58:05+08:00
; #@! TF.GenerationSoftware,Kicad,Pcbnew,(5.1.4)-1
; #@! TF.FileFunction,Plated,1,2,PTH
FMAT,2
INCH
T1C0.0157
T2C0.0197
T3C0.0315
T4C0.0394
T5C0.0400
T6C0.0472
T7C0.1260
%
G90
G05
T1
X0.2756Y-3.2283
X0.3907Y-1.6644
X0.4528Y-1.1417
X0.6004Y-3.1732
X0.7579Y-1.1909
X0.7579Y-2.1949
X0.8051Y-3.2795
X0.8366Y-3.3819
X0.935Y-3.5335
X0.9547Y-1.2008
X0.9764Y-1.6929
X1.0571Y-1.2571
X1.1024Y-1.2008
X1.14Y-1.54
X1.2165Y-2.5591
X1.2244Y-1.3228
X1.2323Y-2.7047
X1.2697Y-1.3189
X1.2736Y-3.1083
X1.2776Y-3.2254
X1.2953Y-1.1969
X1.3228Y-1.3189
X1.3361Y-3.0448
X1.3726Y-1.2856
X1.4075Y-1.0531
X1.5059Y-1.3189
X1.5157Y-1.2008
X1.622Y-1.7402
X1.6732Y-2.3071
X1.6929Y-1.2008
X1.7126Y-2.5827
X1.7165Y-2.0906
X1.7441Y-1.7047
X1.7551Y-2.7528
X1.7559Y-2.4606
X1.796Y-2.3693
X1.8031Y-1.5591
X1.8729Y-3.4796
X1.8898Y-1.1909
X1.8898Y-2.2165
X1.8898Y-2.437
X1.9122Y-4.0307
X1.9173Y-1.6575
X1.9528Y-2.4213
X2.0Y-2.4409
X2.0276Y-1.1811
X2.0442Y-2.2758
X2.045Y-2.3979
X2.0697Y-3.4402
X2.095Y-2.3408
X2.1063Y-1.3189
X2.1102Y-2.0669
X2.1275Y-2.4055
X2.1417Y-2.7677
X2.19Y-3.25
X2.195Y-2.145
X2.22Y-2.525
X2.2244Y-1.1417
X2.2886Y-1.3248
X2.3346Y-1.6732
X2.345Y-2.105
X2.42Y-2.445
X2.455Y-2.075
X2.4567Y-1.7382
X2.48Y-3.49
X2.4803Y-1.198
X2.5028Y-4.0307
X2.5984Y-1.063
X2.6122Y-1.5453
X2.635Y-2.935
X2.6637Y-2.3713
X2.665Y-2.6187
X2.67Y-2.8
X2.6703Y-2.5057
X2.6713Y-2.7487
X2.675Y-2.695
X2.6772Y-1.2008
X2.68Y-2.855
X2.6909Y-1.315
X2.7Y-3.555
X2.72Y-3.18
X2.77Y-3.405
X2.775Y-2.4
X2.785Y-1.9
X2.785Y-2.15
X2.7873Y-2.65
X2.7873Y-2.9
X2.7873Y-3.15
X2.79Y-1.65
X2.8051Y-1.0335
X2.874Y-1.2008
X2.99Y-2.5998
X2.995Y-3.12
X3.0Y-2.895
X3.0118Y-1.2008
X3.035Y-2.17
X3.09Y-1.51
X3.1675Y-2.8525
X3.18Y-1.9
X3.18Y-2.4
X3.18Y-2.65
X3.18Y-3.15
X3.18Y-3.4
X3.185Y-1.65
X3.185Y-2.15
X3.185Y-2.9
X3.2087Y-1.2106
X3.32Y-2.845
X3.34Y-3.7
X3.385Y-2.12
X3.39Y-2.625
X3.4154Y-1.4469
X3.45Y-2.135
X3.4646Y-1.2106
X3.55Y-3.1
X3.5726Y-3.2824
X3.5827Y-2.4508
X3.66Y-2.6
X3.7791Y-3.8043
X3.7964Y-3.4864
X3.815Y-1.935
X3.85Y-2.03
T2
X3.7402Y-0.4961
X3.7678Y-0.4292
X3.7678Y-0.5629
X3.8346Y-0.4016
X3.8346Y-0.5906
X3.9015Y-0.4292
X3.9015Y-0.5629
X3.9291Y-0.4961
X0.0827Y-0.4921
X0.1104Y-0.4253
X0.1104Y-0.5589
X0.1772Y-0.3976
X0.1772Y-0.5866
X0.244Y-0.4253
X0.244Y-0.5589
X0.2717Y-0.4921
X3.7441Y-4.1535
X3.7718Y-4.0867
X3.7718Y-4.2204
X3.8386Y-4.0591
X3.8386Y-4.248
X3.9054Y-4.0867
X3.9054Y-4.2204
X3.9331Y-4.1535
X0.0827Y-4.1535
X0.1104Y-4.0867
X0.1104Y-4.2204
X0.1772Y-4.0591
X0.1772Y-4.248
X0.244Y-4.0867
X0.244Y-4.2204
X0.2717Y-4.1535
T3
X0.1112Y-3.4734
X0.1112Y-3.5325
X0.1112Y-3.5915
X0.1112Y-3.6506
X0.1112Y-3.7096
X0.1112Y-3.7687
X0.1112Y-3.8278
X0.1703Y-3.4734
X0.1703Y-3.5325
X0.1703Y-3.5915
X0.1703Y-3.6506
X0.1703Y-3.7096
X0.1703Y-3.7687
X0.1703Y-3.8278
X0.2293Y-3.4734
X0.2293Y-3.5325
X0.2293Y-3.5915
X0.2293Y-3.6506
X0.2293Y-3.7096
X0.2293Y-3.7687
X0.2293Y-3.8278
X0.2884Y-3.4734
X0.2884Y-3.5325
X0.2884Y-3.5915
X0.2884Y-3.6506
X0.2884Y-3.7096
X0.2884Y-3.7687
X0.2884Y-3.8278
X0.3474Y-3.4734
X0.3474Y-3.5325
X0.3474Y-3.5915
X0.3474Y-3.6506
X0.3474Y-3.7096
X0.3474Y-3.7687
X0.3474Y-3.8278
X0.4065Y-3.4734
X0.4065Y-3.5325
X0.4065Y-3.5915
X0.4065Y-3.6506
X0.4065Y-3.7096
X0.4065Y-3.7687
X0.4065Y-3.8278
X0.9535Y-1.9409
X0.9535Y-2.9409
X1.0535Y-1.9409
X1.0535Y-2.9409
X1.1535Y-1.9409
X1.1535Y-2.9409
X1.2535Y-1.9409
X1.2535Y-2.9409
X1.3535Y-1.9409
X1.3535Y-2.9409
X1.4535Y-1.9409
X1.4535Y-2.9409
X1.5535Y-1.9409
X1.5535Y-2.9409
X1.6535Y-1.9409
X1.6535Y-2.9409
X1.7535Y-1.9409
X1.7535Y-2.9409
X1.8535Y-1.9409
X1.8535Y-2.9409
X1.9535Y-1.9409
X1.9535Y-2.9409
X2.0535Y-1.9409
X2.0535Y-2.9409
X2.1535Y-1.9409
X2.1535Y-2.9409
X2.2535Y-1.9409
X2.2535Y-2.9409
X2.3535Y-1.9409
X2.3535Y-2.9409
T4
X2.805Y-2.025
X2.905Y-2.025
X1.4606Y-3.6555
X1.7559Y-3.6555
X2.805Y-2.525
X2.905Y-2.525
X3.205Y-3.025
X3.305Y-3.025
X3.205Y-2.525
X3.305Y-2.525
X1.4606Y-4.0807
X1.7559Y-4.0807
X2.805Y-1.775
X2.905Y-1.775
X0.2096Y-1.2482
X0.2096Y-1.3482
X0.2096Y-1.4482
X0.2096Y-1.5482
X2.805Y-2.775
X2.905Y-2.775
X0.128Y-3.0856
X0.4232Y-3.0856
X3.205Y-1.775
X3.305Y-1.775
X2.805Y-3.275
X2.905Y-3.275
X3.205Y-2.275
X3.305Y-2.275
X3.205Y-3.275
X3.305Y-3.275
X3.205Y-3.525
X3.305Y-3.525
X0.4331Y-4.0945
X0.7283Y-4.0945
X0.128Y-2.6575
X0.4232Y-2.6575
X2.805Y-3.525
X2.905Y-3.525
X3.205Y-2.775
X3.305Y-2.775
X0.3386Y-1.9291
X0.3386Y-2.2283
X2.805Y-2.275
X2.905Y-2.275
X3.205Y-2.025
X3.305Y-2.025
X2.805Y-3.025
X2.905Y-3.025
T5
X3.65Y-2.7035
X3.65Y-2.8035
X3.65Y-2.9035
X3.75Y-2.7035
X3.75Y-2.8035
X3.75Y-2.9035
X3.6469Y-1.9984
X3.6469Y-2.0984
X3.6469Y-2.1984
X3.7469Y-1.9984
X3.7469Y-2.0984
X3.7469Y-2.1984
T6
X3.7795Y-0.9055
X3.7795Y-1.0555
X0.5118Y-0.5118
X0.6618Y-0.5118
X0.8118Y-0.5118
X0.9618Y-0.5118
X1.1118Y-0.5118
X1.2618Y-0.5118
X1.4118Y-0.5118
X1.5618Y-0.5118
X1.7118Y-0.5118
X2.4016Y-0.5118
X2.5516Y-0.5118
X2.7016Y-0.5118
X2.8516Y-0.5118
X3.0016Y-0.5118
X3.1516Y-0.5118
X3.3016Y-0.5118
X3.4516Y-0.5118
X3.0697Y-4.0945
X3.2197Y-4.0945
X3.3697Y-4.0945
X3.5197Y-4.0945
X3.7795Y-1.378
X3.7795Y-1.528
T7
X3.8346Y-0.4961
X0.1772Y-0.4921
X3.8386Y-4.1535
X0.1772Y-4.1535
T4
G00X1.063Y-3.8583
M15
G01X1.1417Y-3.8583
M16
G05
G00X1.063Y-4.0945
M15
G01X1.1417Y-4.0945
M16
G05
G00X1.2874Y-4.0157
M15
G01X1.2874Y-3.937
M16
G05
T0
M30
